{
.appVersion = "1356";
classes = (
{
automatic = 1;

glyphs = (
{
glyphname = A;
lastChange = "2021-01-26 11:03:50 +0000";
layers = (
{
anchors = (
{
name = bottom;
position = "{680, 0}";
},
{
name = ogonek;
position = "{1310, 0}";
},
{
name = top;
position = "{680, 1474}";
}
);
guideLines = (
{
angle = 67.5;
position = "{-112, -200}";
}
);
layerId = "AB099EFE-E788-4EFC-8633-CF147CB782A6";
paths = (
{
closed = 1;
nodes = (
"50 0 LINE",
"116 0 LINE",
"314 496 LINE",
"326 518 LINE",
"676 1386 LINE",
"684 1386 LINE",
"1034 518 LINE",
"1046 496 LINE",
"1244 0 LINE",
"1310 0 LINE",
"706 1474 LINE",
"654 1474 LINE"
);
},
{
closed = 1;
nodes = (
"286 476 LINE",
"1074 476 LINE",
"1074 536 LINE",
"286 536 LINE"
);
}
);
width = 1360;
},
{
anchors = (
{
name = bottom;
position = "{750, 0}";
},
{
name = ogonek;
position = "{1516, 0}";
},
{
name = top;
position = "{750, 1474}";
}
);
guideLines = (
{
angle = 67.5;
position = "{-114, -200}";
}
);
layerId = "2D8F7115-C311-411E-929D-56333CF7FFB2";
paths = (
{
closed = 1;
nodes = (
"-16 0 LINE",
"376 0 LINE",
"512 360 LINE",
"540 504 LINE",
"746 1052 LINE",
"754 1052 LINE",
"960 504 LINE",
"988 360 LINE",
"1124 0 LINE",
"1516 0 LINE",
"906 1474 LINE",
"594 1474 LINE"
);
},
{
closed = 1;
nodes = (
"344 270 LINE",
"1156 270 LINE",
"1156 570 LINE",
"344 570 LINE"
);
}
);
width = 1500;
},
{
anchors = (
{
name = bottom;
position = "{700, 0}";
},
{
name = ogonek;
position = "{1384, 0}";
},
{
name = top;
position = "{700, 1474}";
}
);
layerId = "FD1CEFBD-BAB1-4C2A-A598-30E93F9A29F6";
paths = (
{
closed = 1;
nodes = (
"16 0 LINE",
"204 0 LINE",
"386 440 LINE",
"410 504 LINE",
"696 1228 LINE",
"704 1228 LINE",
"990 504 LINE",
"1014 440 LINE",
"1196 0 LINE",
"1384 0 LINE",
"774 1474 LINE",
"626 1474 LINE"
);
},
{
closed = 1;
nodes = (
"300 386 LINE",
"1100 386 LINE",
"1100 550 LINE",
"300 550 LINE"
);
}
);
width = 1400;
}
);
leftKerningGroup = LAT_A_UC;
rightKerningGroup = LAT_A_UC;
unicode = 0041;
},
{
glyphname = AE;
lastChange = "2021-01-26 06:34:31 +0000";
layers = (
{
anchors = (
{
name = bottom;
position = "{1114, 0}";
},
{
name = top;
position = "{1150, 1474}";
}
);
layerId = "AB099EFE-E788-4EFC-8633-CF147CB782A6";
paths = (
{
closed = 1;
nodes = (
"20 0 LINE",
"88 0 LINE",
"370 496 LINE",
"872 1390 LINE",
"926 1390 LINE",
"914 1474 LINE",
"858 1474 LINE"
);
},
{
closed = 1;
nodes = (
"344 476 LINE",
"976 476 LINE",
"976 536 LINE",
"344 536 LINE"
);
},
{
closed = 1;
nodes = (
"932 1414 LINE",
"1716 1414 LINE",
"1716 1474 LINE",
"868 1474 LINE",
"954 500 LINE",
"1000 0 LINE",
"1716 0 LINE",
"1716 60 LINE",
"1054 60 LINE"
);
},
{
closed = 1;
nodes = (
"1618 726 LINE",
"1618 786 LINE",
"972 786 LINE",
"982 726 LINE"
);
}
);
width = 1856;
},
{
anchors = (
{
name = bottom;
position = "{1118, 0}";
},
{
name = top;
position = "{1118, 1474}";
}
);
background = {
components = (
{
name = A;
transform = "{1, 0, 0.03492, 1, -8, 0}";
}
);
};
layerId = "2D8F7115-C311-411E-929D-56333CF7FFB2";
paths = (
{
closed = 1;
nodes = (
"-16 0 LINE",
"368 0 LINE",
"574 480 LINE",
"852 1156 LINE",
"892 1156 LINE",
"876 1474 LINE",
"664 1474 LINE"
);
},
{
closed = 1;
nodes = (
"394 270 LINE",
"1098 270 LINE",
"1098 570 LINE",
"394 570 LINE"
);
},
{
closed = 1;
nodes = (
"1196 1146 LINE",
"1736 1146 LINE",
"1736 1474 LINE",
"860 1474 LINE",
"906 450 LINE",
"930 0 LINE",
"1736 0 LINE",
"1736 328 LINE",
"1246 328 LINE"
);
},
{
closed = 1;
nodes = (
"1650 586 LINE",
"1650 902 LINE",
"1184 902 LINE",
"1204 586 LINE"
);
}
);
width = 1818;
},
{
anchors = (
{
name = bottom;
position = "{1118, 0}";
},
{
name = top;
position = "{1138, 1474}";
}
);
layerId = "FD1CEFBD-BAB1-4C2A-A598-30E93F9A29F6";
paths = (
{
closed = 1;
nodes = (
"8 0 LINE",
"196 0 LINE",
"450 492 LINE",
"872 1302 LINE",
"914 1302 LINE",
"902 1474 LINE",
"786 1474 LINE"
);
},
{
closed = 1;
nodes = (
"364 386 LINE",
"1040 386 LINE",
"1040 550 LINE",
"364 550 LINE"
);
},
{
closed = 1;
nodes = (
"1036 1310 LINE",
"1724 1310 LINE",
"1724 1474 LINE",
"868 1474 LINE",
"938 484 LINE",
"970 0 LINE",
"1724 0 LINE",
"1724 164 LINE",
"1126 164 LINE"
);
},
{
closed = 1;
nodes = (
"1634 668 LINE",
"1634 832 LINE",
"1056 832 LINE",
"1070 668 LINE"
);
}
);
width = 1842;
}
);
leftKerningGroup = LAT_AE_UC;
rightKerningGroup = LAT_E_UC;
rightMetricsKey = E;
unicode = 00C6;
},
{
glyphname = B;
lastChange = "2021-01-26 09:51:44 +0000";
layers = (
{
anchors = (
{
name = bottom;
position = "{592, 0}";
},
{
name = center;
position = "{244, 422}";
},
{
name = top;
position = "{586, 1474}";
}
);
layerId = "AB099EFE-E788-4EFC-8633-CF147CB782A6";
paths = (
{
closed = 1;
nodes = (
"616 0 LINE SMOOTH",
"900 0 OFFCURVE",
"1080 156 OFFCURVE",
"1080 394 CURVE SMOOTH",
"1080 596 OFFCURVE",
"952 738 OFFCURVE",
"744 774 CURVE",
"744 762 LINE",
"876 820 OFFCURVE",
"962 944 OFFCURVE",
"962 1098 CURVE SMOOTH",
"962 1324 OFFCURVE",
"802 1474 OFFCURVE",
"574 1474 CURVE SMOOTH",
"224 1474 LINE",
"224 1414 LINE",
"574 1414 LINE SMOOTH",
"762 1414 OFFCURVE",
"898 1290 OFFCURVE",
"898 1098 CURVE SMOOTH",
"898 914 OFFCURVE",
"760 786 OFFCURVE",
"574 786 CURVE SMOOTH",
"224 786 LINE",
"224 726 LINE",
"616 726 LINE SMOOTH",
"864 726 OFFCURVE",
"1016 598 OFFCURVE",
"1016 394 CURVE SMOOTH",
"1016 188 OFFCURVE",
"864 60 OFFCURVE",
"616 60 CURVE SMOOTH",
"260 60 LINE",
"260 0 LINE"
);
},
{
closed = 1;
nodes = (
"268 0 LINE",
"268 1474 LINE",
"204 1474 LINE",
"204 0 LINE"
);
}
);
width = 1214;
},
{
anchors = (
{
name = bottom;
position = "{690, 0}";
},
{
name = center;
position = "{310, 462}";
},
{
name = top;
position = "{616, 1474}";
}
);
layerId = "2D8F7115-C311-411E-929D-56333CF7FFB2";
paths = (
{
closed = 1;
nodes = (
"784 0 LINE SMOOTH",
"1068 0 OFFCURVE",
"1276 176 OFFCURVE",
"1276 434 CURVE SMOOTH",
"1276 676 OFFCURVE",
"1092 778 OFFCURVE",
"900 806 CURVE",
"890 716 LINE",
"1034 766 OFFCURVE",
"1158 922 OFFCURVE",
"1158 1098 CURVE SMOOTH",
"1158 1312 OFFCURVE",
"974 1474 OFFCURVE",
"646 1474 CURVE SMOOTH",
"464 1474 LINE",
"464 1154 LINE",
"646 1154 LINE SMOOTH",
"740 1154 OFFCURVE",
"806 1114 OFFCURVE",
"804 1020 CURVE SMOOTH",
"806 942 OFFCURVE",
"756 880 OFFCURVE",
"670 880 CURVE SMOOTH",
"464 880 LINE",
"464 610 LINE",
"748 610 LINE SMOOTH",
"842 610 OFFCURVE",
"912 558 OFFCURVE",
"912 472 CURVE SMOOTH",
"912 378 OFFCURVE",
"846 320 OFFCURVE",
"760 320 CURVE SMOOTH",
"464 320 LINE",
"464 0 LINE"
);
},
{
closed = 1;
nodes = (
"492 0 LINE",
"492 1474 LINE",
"124 1474 LINE",
"124 0 LINE"
);
}
);
width = 1320;
},
{
anchors = (
{
name = bottom;
position = "{618, 0}";
},
{
name = center;
position = "{260, 426}";
},
{
name = top;
position = "{614, 1474}";
}
);
hints = (
{
horizontal = 1;
origin = "{0, 22}";
type = Delta;
settings = {
deltaV = {
"{100, 370, 0, 0, 0, 0}" = {
"12" = -1;
};
};
};
},
{
horizontal = 1;
origin = "{0, 23}";
type = Delta;
settings = {
deltaV = {
"{100, 370, 0, 0, 0, 0}" = {
"12" = -1;
};
};
};
},
{
horizontal = 1;
origin = "{0, 24}";
type = Delta;
settings = {
deltaV = {
"{100, 370, 0, 0, 0, 0}" = {
"12" = -1;
};
};
};
},
{
horizontal = 1;
origin = "{0, 25}";
type = Delta;
settings = {
deltaV = {
"{100, 370, 0, 0, 0, 0}" = {
"12" = -1;
};
};
};
},
{
horizontal = 1;
origin = "{0, 23, 1, 1}";
type = Delta;
settings = {
deltaV = {
"{100, 370, 0, 0, 0, 0}" = {
"12" = -1;
};
};
};
},
{
horizontal = 1;
origin = "{0, 25, 1, 1}";
type = Delta;
settings = {
deltaV = {
"{100, 370, 0, 0, 0, 0}" = {
"12" = -1;
};
};
};
}
);
layerId = "FD1CEFBD-BAB1-4C2A-A598-30E93F9A29F6";
paths = (
{
closed = 1;
nodes = (
"644 0 LINE SMOOTH",
"942 0 OFFCURVE",
"1132 168 OFFCURVE",
"1130 406 CURVE SMOOTH",
"1132 610 OFFCURVE",
"1004 746 OFFCURVE",
"794 794 CURVE",
"794 750 LINE",
"922 796 OFFCURVE",
"1024 942 OFFCURVE",
"1024 1102 CURVE SMOOTH",
"1024 1320 OFFCURVE",
"840 1474 OFFCURVE",
"554 1474 CURVE SMOOTH",
"308 1474 LINE",
"308 1310 LINE",
"562 1310 LINE SMOOTH",
"734 1310 OFFCURVE",
"844 1230 OFFCURVE",
"844 1078 CURVE SMOOTH",
"844 934 OFFCURVE",
"738 830 OFFCURVE",
"574 830 CURVE SMOOTH",
"308 830 LINE",
"308 670 LINE",
"630 670 LINE SMOOTH",
"828 670 OFFCURVE",
"950 578 OFFCURVE",
"950 418 CURVE SMOOTH",
"950 258 OFFCURVE",
"836 164 OFFCURVE",
"656 164 CURVE SMOOTH",
"332 164 LINE",
"332 0 LINE"
);
},
{
closed = 1;
nodes = (
"348 0 LINE",
"348 1474 LINE",
"172 1474 LINE",
"172 0 LINE"
);
}
);
width = 1238;
}
);
leftKerningGroup = LAT_H_UC;
leftMetricsKey = H;
rightKerningGroup = LAT_B_UC;
unicode = 0042;
},
{
glyphname = C;
lastChange = "2021-01-26 06:43:40 +0000";
layers = (
{
anchors = (
{
name = base;
position = "{868, 0}";
},
{
name = bottom;
position = "{828, 0}";
},
{
name = cedilla;
position = "{828, 0}";
},
{
name = top;
position = "{828, 1474}";
}
);
guideLines = (
{
angle = 67.5;
position = "{476, 360}";
},
{
angle = 112.5;
position = "{480, 360}";
}
);
layerId = "AB099EFE-E788-4EFC-8633-CF147CB782A6";
paths = (
{
closed = 1;
nodes = (
"998 -16 OFFCURVE",
"1178 50 OFFCURVE",
"1290 156 CURVE",
"1262 220 LINE",
"1190 134 OFFCURVE",
"1014 44 OFFCURVE",
"828 44 CURVE SMOOTH",
"504 44 OFFCURVE",
"186 320 OFFCURVE",
"186 736 CURVE SMOOTH",
"186 1148 OFFCURVE",
"500 1430 OFFCURVE",
"838 1430 CURVE SMOOTH",
"988 1430 OFFCURVE",
"1156 1374 OFFCURVE",
"1258 1272 CURVE",
"1286 1336 LINE",
"1178 1426 OFFCURVE",
"1010 1490 OFFCURVE",
"838 1490 CURVE SMOOTH",
"460 1490 OFFCURVE",
"122 1180 OFFCURVE",
"122 738 CURVE SMOOTH",
"122 322 OFFCURVE",
"432 -16 OFFCURVE",
"826 -16 CURVE SMOOTH"
);
}
);
width = 1380;
},
{
anchors = (
{
name = base;
position = "{828, 0}";
},
{
name = bottom;
position = "{816, 0}";
},
{
name = cedilla;
position = "{840, 0}";
},
{
name = top;
position = "{806, 1474}";
}
);
layerId = "2D8F7115-C311-411E-929D-56333CF7FFB2";
paths = (
{
closed = 1;
nodes = (
"992 -16 OFFCURVE",
"1152 16 OFFCURVE",
"1286 94 CURVE",
"1146 422 LINE",
"1078 348 OFFCURVE",
"950 320 OFFCURVE",
"852 320 CURVE SMOOTH",
"604 320 OFFCURVE",
"400 494 OFFCURVE",
"400 740 CURVE SMOOTH",
"400 988 OFFCURVE",
"606 1154 OFFCURVE",
"840 1154 CURVE SMOOTH",
"964 1154 OFFCURVE",
"1076 1108 OFFCURVE",
"1142 1044 CURVE",
"1282 1372 LINE",
"1144 1454 OFFCURVE",
"984 1490 OFFCURVE",
"836 1490 CURVE SMOOTH",
"392 1490 OFFCURVE",
"32 1170 OFFCURVE",
"32 740 CURVE SMOOTH",
"32 308 OFFCURVE",
"398 -16 OFFCURVE",
"850 -16 CURVE SMOOTH"
);
}
);
width = 1328;
},
{
anchors = (
{
name = base;
position = "{852, 0}";
},
{
name = bottom;
position = "{820, 0}";
},
{
name = cedilla;
position = "{832, 0}";
},
{
name = top;
position = "{820, 1474}";
}
);
layerId = "FD1CEFBD-BAB1-4C2A-A598-30E93F9A29F6";
paths = (
{
closed = 1;
nodes = (
"1000 -16 OFFCURVE",
"1172 42 OFFCURVE",
"1290 136 CURVE",
"1224 294 LINE",
"1140 206 OFFCURVE",
"988 148 OFFCURVE",
"840 148 CURVE SMOOTH",
"528 148 OFFCURVE",
"270 406 OFFCURVE",
"270 742 CURVE SMOOTH",
"270 1090 OFFCURVE",
"550 1326 OFFCURVE",
"840 1326 CURVE SMOOTH",
"984 1326 OFFCURVE",
"1130 1278 OFFCURVE",
"1220 1192 CURVE",
"1286 1352 LINE",
"1168 1438 OFFCURVE",
"1004 1492 OFFCURVE",
"836 1490 CURVE SMOOTH",
"438 1492 OFFCURVE",
"90 1180 OFFCURVE",
"90 738 CURVE SMOOTH",
"90 304 OFFCURVE",
"430 -16 OFFCURVE",
"832 -16 CURVE SMOOTH"
);
}
);
width = 1360;
}
);
leftKerningGroup = LAT_O_UC;
leftMetricsKey = O;
rightKerningGroup = LAT_C_UC;
unicode = 0043;
},
{
glyphname = D;
lastChange = "2021-01-26 07:07:40 +0000";
layers = (
{
anchors = (
{
name = bottom;
position = "{704, 0}";
},
{
name = center;
position = "{232, 758}";
},
{
name = top;
position = "{700, 1474}";
}
);
layerId = "AB099EFE-E788-4EFC-8633-CF147CB782A6";
paths = (
{
closed = 1;
nodes = (
"204 0 LINE",
"660 0 LINE SMOOTH",
"1044 0 OFFCURVE",
"1296 286 OFFCURVE",
"1296 752 CURVE SMOOTH",
"1296 1178 OFFCURVE",
"1070 1474 OFFCURVE",
"660 1474 CURVE SMOOTH",
"204 1474 LINE"
);
},
{
closed = 1;
nodes = (
"268 60 LINE",
"268 1414 LINE",
"652 1414 LINE SMOOTH",
"990 1414 OFFCURVE",
"1232 1166 OFFCURVE",
"1232 752 CURVE SMOOTH",
"1232 356 OFFCURVE",
"1020 60 OFFCURVE",
"652 60 CURVE SMOOTH"
);
}
);
width = 1418;
},
{
anchors = (
{
name = bottom;
position = "{682, 0}";
},
{
name = center;
position = "{322, 738}";
},
{
name = top;
position = "{686, 1474}";
}
);
layerId = "2D8F7115-C311-411E-929D-56333CF7FFB2";
paths = (
{
closed = 1;
nodes = (
"124 0 LINE",
"666 0 LINE SMOOTH",
"1014 0 OFFCURVE",
"1400 238 OFFCURVE",
"1398 746 CURVE SMOOTH",
"1400 1250 OFFCURVE",
"1014 1474 OFFCURVE",
"636 1474 CURVE SMOOTH",
"124 1474 LINE"
);
},
{
closed = 1;
nodes = (
"492 328 LINE",
"492 1146 LINE",
"678 1146 LINE SMOOTH",
"802 1146 OFFCURVE",
"1030 1062 OFFCURVE",
"1030 746 CURVE SMOOTH",
"1030 426 OFFCURVE",
"802 328 OFFCURVE",
"678 328 CURVE SMOOTH"
);
}
);
width = 1430;
},
{
anchors = (
{
name = bottom;
position = "{692, 0}";
},
{
name = center;
position = "{262, 750}";
},
{
name = top;
position = "{692, 1474}";
}
);
layerId = "FD1CEFBD-BAB1-4C2A-A598-30E93F9A29F6";
paths = (
{
closed = 1;
nodes = (
"172 0 LINE",
"660 0 LINE SMOOTH",
"1046 0 OFFCURVE",
"1336 288 OFFCURVE",
"1336 750 CURVE SMOOTH",
"1336 1200 OFFCURVE",
"1046 1476 OFFCURVE",
"648 1474 CURVE SMOOTH",
"172 1474 LINE"
);
},
{
closed = 1;
nodes = (
"352 164 LINE",
"352 1310 LINE",
"660 1310 LINE SMOOTH",
"938 1312 OFFCURVE",
"1156 1102 OFFCURVE",
"1156 750 CURVE SMOOTH",
"1156 390 OFFCURVE",
"938 164 OFFCURVE",
"660 164 CURVE SMOOTH"
);
}
);
width = 1426;
}
);
leftKerningGroup = LAT_H_UC;
leftMetricsKey = H;
rightKerningGroup = LAT_O_UC;
rightMetricsKey = O;
unicode = 0044;
},
{
glyphname = E;
lastChange = "2021-01-26 07:07:40 +0000";
layers = (
{
anchors = (
{
name = bottom;
position = "{598, 0}";
},
{
name = cedilla;
position = "{586, 0}";
},
{
name = ogonek;
position = "{966, 0}";
},
{
name = top;
position = "{586, 1474}";
},
{
name = topleft;
position = "{40, 1474}";
}
);
hints = (
{
horizontal = 1;
origin = "{0, 0}";
target = "{0, 3}";
type = TTStem;
options = 4;
},
{
horizontal = 1;
origin = "{0, 4}";
target = "{0, 7}";
type = TTStem;
options = 1;
},
{
horizontal = 1;
origin = "{0, 11}";
target = "{0, 8}";
type = TTStem;
options = 4;
},
{
horizontal = 1;
origin = "{0, 5}";
type = Anchor;
options = 1;
},
{
horizontal = 1;
origin = "{0, 4}";
type = Anchor;
options = 1;
},
{
horizontal = 1;
origin = "{0, 5}";
type = Anchor;
options = 1;
},
{
horizontal = 1;
origin = "{0, 6}";
type = Anchor;
options = 1;
},
{
horizontal = 1;
origin = "{0, 7}";
type = Anchor;
options = 1;
}
);
layerId = "AB099EFE-E788-4EFC-8633-CF147CB782A6";
paths = (
{
closed = 1;
nodes = (
"204 0 LINE",
"966 0 LINE",
"966 60 LINE",
"268 60 LINE",
"268 726 LINE",
"868 726 LINE",
"868 786 LINE",
"268 786 LINE",
"268 1414 LINE",
"966 1414 LINE",
"966 1474 LINE",
"204 1474 LINE"
);
}
);
width = 1106;
},
{
anchors = (
{
name = bottom;
position = "{580, 0}";
},
{
name = cedilla;
position = "{576, 0}";
},
{
name = ogonek;
position = "{998, 0}";
},
{
name = top;
position = "{576, 1474}";
},
{
name = topleft;
position = "{18, 1474}";
}
);
hints = (
{
horizontal = 1;
origin = "{0, 0}";
target = "{0, 3}";
type = TTStem;
options = 4;
},
{
horizontal = 1;
origin = "{0, 4}";
target = "{0, 7}";
type = TTStem;
options = 1;
},
{
horizontal = 1;
origin = "{0, 11}";
target = "{0, 8}";
type = TTStem;
options = 4;
},
{
horizontal = 1;
origin = "{0, 5}";
type = Anchor;
options = 1;
},
{
horizontal = 1;
origin = "{0, 4}";
type = Anchor;
options = 1;
},
{
horizontal = 1;
origin = "{0, 5}";
type = Anchor;
options = 1;
},
{
horizontal = 1;
origin = "{0, 6}";
type = Anchor;
options = 1;
},
{
horizontal = 1;
origin = "{0, 7}";
type = Anchor;
options = 1;
}
);
layerId = "2D8F7115-C311-411E-929D-56333CF7FFB2";
paths = (
{
closed = 1;
nodes = (
"124 0 LINE",
"1002 0 LINE",
"1002 328 LINE",
"492 328 LINE",
"492 586 LINE",
"912 586 LINE",
"912 902 LINE",
"492 902 LINE",
"492 1146 LINE",
"1002 1146 LINE",
"1002 1474 LINE",
"124 1474 LINE"
);
}
);
width = 1084;
},
{
anchors = (
{
name = bottom;
position = "{590, 0}";
},
{
name = cedilla;
position = "{578, 0}";
},
{
name = ogonek;
position = "{974, 0}";
},
{
name = top;
position = "{578, 1474}";
},
{
name = topleft;
position = "{28, 1474}";
}
);
hints = (
{
horizontal = 1;
origin = "{0, 0}";
target = "{0, 3}";
type = TTStem;
options = 4;
},
{
horizontal = 1;
origin = "{0, 4}";
target = "{0, 7}";
type = TTStem;
options = 1;
},
{
horizontal = 1;
origin = "{0, 11}";
target = "{0, 8}";
type = TTStem;
options = 4;
},
{
horizontal = 1;
origin = "{0, 5}";
type = Anchor;
options = 1;
},
{
horizontal = 1;
origin = "{0, 4}";
type = Anchor;
options = 1;
},
{
horizontal = 1;
origin = "{0, 5}";
type = Anchor;
options = 1;
},
{
horizontal = 1;
origin = "{0, 6}";
type = Anchor;
options = 1;
},
{
horizontal = 1;
origin = "{0, 7}";
type = Anchor;
options = 1;
}
);
layerId = "FD1CEFBD-BAB1-4C2A-A598-30E93F9A29F6";
paths = (
{
closed = 1;
nodes = (
"172 0 LINE",
"980 0 LINE",
"980 164 LINE",
"352 164 LINE",
"352 668 LINE",
"880 668 LINE",
"880 832 LINE",
"352 832 LINE",
"352 1310 LINE",
"980 1310 LINE",
"980 1474 LINE",
"172 1474 LINE"
);
}
);
width = 1098;
}
);
leftKerningGroup = LAT_H_UC;
leftMetricsKey = H;
rightKerningGroup = LAT_E_UC;
unicode = 0045;
},
{
glyphname = F;
lastChange = "2021-01-27 04:33:49 +0000";
layers = (
{
anchors = (
{
name = bottom;
position = "{236, 0}";
},
{
name = center;
position = "{236, 376}";
},
{
name = top;
position = "{606, 1474}";
}
);
layerId = "AB099EFE-E788-4EFC-8633-CF147CB782A6";
paths = (
{
closed = 1;
nodes = (
"204 0 LINE",
"268 0 LINE",
"268 726 LINE",
"860 726 LINE",
"860 786 LINE",
"268 786 LINE",
"268 1414 LINE",
"940 1414 LINE",
"940 1474 LINE",
"204 1474 LINE"
);
}
);
width = 1022;
},
{
anchors = (
{
name = bottom;
position = "{310, 0}";
},
{
name = center;
position = "{310, 290}";
},
{
name = top;
position = "{624, 1474}";
}
);
layerId = "2D8F7115-C311-411E-929D-56333CF7FFB2";
paths = (
{
closed = 1;
nodes = (
"124 0 LINE",
"492 0 LINE",
"492 524 LINE",
"912 524 LINE",
"912 852 LINE",
"492 852 LINE",
"492 1146 LINE",
"1002 1146 LINE",
"1002 1474 LINE",
"124 1474 LINE"
);
}
);
width = 1042;
},
{
anchors = (
{
name = bottom;
position = "{262, 0}";
},
{
name = center;
position = "{262, 344}";
},
{
name = top;
position = "{610, 1474}";
}
);
layerId = "FD1CEFBD-BAB1-4C2A-A598-30E93F9A29F6";
paths = (
{
closed = 1;
nodes = (
"172 0 LINE",
"352 0 LINE",
"352 646 LINE",
"876 646 LINE",
"876 810 LINE",
"352 810 LINE",
"352 1310 LINE",
"962 1310 LINE",
"962 1474 LINE",
"172 1474 LINE"
);
}
);
width = 1028;
}
);
leftKerningGroup = LAT_H_UC;
leftMetricsKey = H;
rightKerningGroup = LAT_F_UC;
unicode = 0046;
},
{
glyphname = G;
lastChange = "2021-01-27 05:09:52 +0000";
layers = (
{
anchors = (
{
name = bottom;
position = "{790, 0}";
},
{
name = hook;
position = "{1286, 1336}";
},
{
name = top;
position = "{790, 1474}";
}
);
layerId = "AB099EFE-E788-4EFC-8633-CF147CB782A6";
paths = (
{
closed = 1;
nodes = (
"1190 -16 OFFCURVE",
"1424 270 OFFCURVE",
"1424 704 CURVE SMOOTH",
"1424 758 LINE",
"770 758 LINE",
"770 698 LINE",
"1362 698 LINE",
"1362 340 OFFCURVE",
"1176 44 OFFCURVE",
"820 44 CURVE SMOOTH",
"468 44 OFFCURVE",
"186 330 OFFCURVE",
"186 736 CURVE SMOOTH",
"186 1130 OFFCURVE",
"454 1430 OFFCURVE",
"828 1430 CURVE SMOOTH",
"994 1430 OFFCURVE",
"1156 1374 OFFCURVE",
"1258 1272 CURVE",
"1286 1336 LINE",
"1188 1418 OFFCURVE",
"1022 1490 OFFCURVE",
"824 1490 CURVE SMOOTH",
"410 1490 OFFCURVE",
"122 1172 OFFCURVE",
"122 738 CURVE SMOOTH",
"122 308 OFFCURVE",
"422 -16 OFFCURVE",
"820 -16 CURVE SMOOTH"
);
}
);
width = 1546;
},
{
anchors = (
{
name = bottom;
position = "{790, 0}";
},
{
name = hook;
position = "{1286, 1372}";
},
{
name = top;
position = "{790, 1474}";
}
);
layerId = "2D8F7115-C311-411E-929D-56333CF7FFB2";
paths = (
{
closed = 1;
nodes = (
"1222 -16 OFFCURVE",
"1490 246 OFFCURVE",
"1490 598 CURVE SMOOTH",
"1490 864 LINE",
"770 864 LINE",
"770 562 LINE",
"1146 562 LINE",
"1148 414 OFFCURVE",
"1000 312 OFFCURVE",
"818 312 CURVE SMOOTH",
"576 312 OFFCURVE",
"400 490 OFFCURVE",
"400 738 CURVE SMOOTH",
"400 1000 OFFCURVE",
"594 1154 OFFCURVE",
"832 1154 CURVE SMOOTH",
"968 1154 OFFCURVE",
"1078 1106 OFFCURVE",
"1142 1044 CURVE",
"1282 1372 LINE",
"1144 1454 OFFCURVE",
"984 1492 OFFCURVE",
"832 1490 CURVE SMOOTH",
"362 1488 OFFCURVE",
"32 1154 OFFCURVE",
"32 730 CURVE SMOOTH",
"34 304 OFFCURVE",
"356 -16 OFFCURVE",
"812 -16 CURVE SMOOTH"
);
}
);
width = 1548;
},
{
anchors = (
{
name = bottom;
position = "{798, 0}";
},
{
name = hook;
position = "{1286, 1352}";
},
{
name = top;
position = "{782, 1474}";
}
);
layerId = "FD1CEFBD-BAB1-4C2A-A598-30E93F9A29F6";
paths = (
{
closed = 1;
nodes = (
"1196 -16 OFFCURVE",
"1442 274 OFFCURVE",
"1442 672 CURVE SMOOTH",
"1442 802 LINE",
"762 802 LINE",
"762 638 LINE",
"1262 638 LINE",
"1262 370 OFFCURVE",
"1094 148 OFFCURVE",
"806 148 CURVE SMOOTH",
"504 148 OFFCURVE",
"270 390 OFFCURVE",
"270 742 CURVE SMOOTH",
"270 1082 OFFCURVE",
"496 1326 OFFCURVE",
"820 1326 CURVE SMOOTH",
"984 1326 OFFCURVE",
"1130 1270 OFFCURVE",
"1216 1184 CURVE",
"1286 1352 LINE",
"1168 1434 OFFCURVE",
"1008 1492 OFFCURVE",
"820 1490 CURVE SMOOTH",
"390 1492 OFFCURVE",
"90 1172 OFFCURVE",
"90 738 CURVE SMOOTH",
"90 292 OFFCURVE",
"402 -16 OFFCURVE",
"806 -16 CURVE SMOOTH"
);
}
);
width = 1532;
}
);
leftKerningGroup = LAT_O_UC;
leftMetricsKey = O;
rightKerningGroup = LAT_G_UC;
unicode = 0047;
},
{
glyphname = H;
lastChange = "2021-01-27 10:43:29 +0000";
layers = (
{
anchors = (
{
name = bottom;
position = "{712, 0}";
},
{
name = center;
position = "{712, 1086}";
},
{
name = top;
position = "{712, 1474}";
}
);
layerId = "AB099EFE-E788-4EFC-8633-CF147CB782A6";
paths = (
{
closed = 1;
nodes = (
"204 0 LINE",
"268 0 LINE",
"268 726 LINE",
"1158 726 LINE",
"1158 0 LINE",
"1222 0 LINE",
"1222 1474 LINE",
"1158 1474 LINE",
"1158 786 LINE",
"268 786 LINE",
"268 1474 LINE",
"204 1474 LINE"
);
}
);
width = 1426;
},
{
anchors = (
{
name = bottom;
position = "{764, 0}";
},
{
name = center;
position = "{764, 1184}";
},
{
name = top;
position = "{764, 1474}";
}
);
layerId = "2D8F7115-C311-411E-929D-56333CF7FFB2";
paths = (
{
closed = 1;
nodes = (
"124 0 LINE",
"492 0 LINE",
"492 578 LINE",
"1034 578 LINE",
"1034 0 LINE",
"1402 0 LINE",
"1402 1474 LINE",
"1034 1474 LINE",
"1034 906 LINE",
"492 906 LINE",
"492 1474 LINE",
"124 1474 LINE"
);
}
);
width = 1526;
},
{
anchors = (
{
name = bottom;
position = "{738, 0}";
},
{
name = center;
position = "{738, 1122}";
},
{
name = top;
position = "{738, 1474}";
}
);
layerId = "FD1CEFBD-BAB1-4C2A-A598-30E93F9A29F6";
paths = (
{
closed = 1;
nodes = (
"172 0 LINE",
"352 0 LINE",
"352 672 LINE",
"1114 672 LINE",
"1114 0 LINE",
"1294 0 LINE",
"1294 1474 LINE",
"1114 1474 LINE",
"1114 836 LINE",
"352 836 LINE",
"352 1474 LINE",
"172 1474 LINE"
);
}
);
width = 1466;
}
);
leftKerningGroup = LAT_H_UC;
rightKerningGroup = LAT_H_UC;
unicode = 0048;
},
{
glyphname = I;
lastChange = "2021-01-26 04:56:20 +0000";
layers = (
{
anchors = (
{
name = bottom;
position = "{244, 0}";
},
{
name = ogonek;
position = "{276, 0}";
},
{
name = top;
position = "{244, 1474}";
}
);
layerId = "AB099EFE-E788-4EFC-8633-CF147CB782A6";
paths = (
{
closed = 1;
nodes = (
"212 0 LINE",
"276 0 LINE",
"276 1474 LINE",
"212 1474 LINE"
);
}
);
width = 490;
},
{
anchors = (
{
name = bottom;
position = "{332, 0}";
},
{
name = ogonek;
position = "{516, 0}";
},
{
name = top;
position = "{332, 1474}";
}
);
layerId = "2D8F7115-C311-411E-929D-56333CF7FFB2";
paths = (
{
closed = 1;
nodes = (
"148 0 LINE",
"516 0 LINE",
"516 1474 LINE",
"148 1474 LINE"
);
}
);
width = 664;
},
{
anchors = (
{
name = bottom;
position = "{278, 0}";
},
{
name = ogonek;
position = "{368, 0}";
},
{
name = top;
position = "{278, 1474}";
}
);
layerId = "FD1CEFBD-BAB1-4C2A-A598-30E93F9A29F6";
paths = (
{
closed = 1;
nodes = (
"188 0 LINE",
"368 0 LINE",
"368 1474 LINE",
"188 1474 LINE"
);
}
);
width = 558;
}
);
leftKerningGroup = LAT_H_UC;
rightKerningGroup = LAT_H_UC;
unicode = 0049;
},
{
color = 10;
glyphname = I.ss03;
lastChange = "2021-01-26 04:56:20 +0000";
layers = (
{
anchors = (
{
name = bottom;
position = "{374, 0}";
},
{
name = ogonek;
position = "{588, 0}";
},
{
name = top;
position = "{374, 1474}";
}
);
layerId = "AB099EFE-E788-4EFC-8633-CF147CB782A6";
paths = (
{
closed = 1;
nodes = (
"344 0 LINE",
"408 0 LINE",
"408 1474 LINE",
"344 1474 LINE"
);
},
{
closed = 1;
nodes = (
"164 1416 LINE",
"588 1416 LINE",
"588 1474 LINE",
"164 1474 LINE"
);
},
{
closed = 1;
nodes = (
"164 0 LINE",
"588 0 LINE",
"588 60 LINE",
"164 60 LINE"
);
}
);
width = 752;
},
{
anchors = (
{
name = bottom;
position = "{492, 0}";
},
{
name = ogonek;
position = "{868, 0}";
},
{
name = top;
position = "{492, 1474}";
}
);
layerId = "2D8F7115-C311-411E-929D-56333CF7FFB2";
paths = (
{
closed = 1;
nodes = (
"308 0 LINE",
"676 0 LINE",
"676 1474 LINE",
"308 1474 LINE"
);
},
{
closed = 1;
nodes = (
"114 1156 LINE",
"868 1156 LINE",
"868 1474 LINE",
"114 1474 LINE"
);
},
{
closed = 1;
nodes = (
"114 0 LINE",
"868 0 LINE",
"868 320 LINE",
"114 320 LINE"
);
}
);
width = 984;
},
{
anchors = (
{
name = bottom;
position = "{418, 0}";
},
{
name = ogonek;
position = "{696, 0}";
},
{
name = top;
position = "{418, 1474}";
}
);
layerId = "FD1CEFBD-BAB1-4C2A-A598-30E93F9A29F6";
paths = (
{
closed = 1;
nodes = (
"328 0 LINE",
"508 0 LINE",
"508 1474 LINE",
"328 1474 LINE"
);
},
{
closed = 1;
nodes = (
"140 1314 LINE",
"696 1314 LINE",
"696 1474 LINE",
"140 1474 LINE"
);
},
{
closed = 1;
nodes = (
"140 0 LINE",
"696 0 LINE",
"696 160 LINE",
"140 160 LINE"
);
}
);
width = 836;
}
);
leftKerningGroup = LAT_ISS03_UC;
rightKerningGroup = LAT_ISS03_UC;
},
{
glyphname = J;
lastChange = "2021-01-26 10:09:10 +0000";
layers = (
{
anchors = (
{
name = bottom;
position = "{432, 0}";
},
{
name = top;
position = "{686, 1474}";
}
);
layerId = "AB099EFE-E788-4EFC-8633-CF147CB782A6";
paths = (
{
closed = 1;
nodes = (
"668 152 OFFCURVE",
"538 44 OFFCURVE",
"384 44 CURVE SMOOTH",
"222 44 OFFCURVE",
"114 166 OFFCURVE",
"112 346 CURVE",
"50 346 LINE",
"54 136 OFFCURVE",
"184 -16 OFFCURVE",
"384 -16 CURVE SMOOTH",
"580 -16 OFFCURVE",
"732 124 OFFCURVE",
"732 434 CURVE SMOOTH",
"732 1474 LINE",
"668 1474 LINE",
"668 430 LINE SMOOTH"
);
}
);
width = 936;
},
{
anchors = (
{
name = bottom;
position = "{556, 0}";
},
{
name = top;
position = "{794, 1474}";
}
);
layerId = "2D8F7115-C311-411E-929D-56333CF7FFB2";
paths = (
{
closed = 1;
nodes = (
"618 374 OFFCURVE",
"566 312 OFFCURVE",
"488 312 CURVE SMOOTH",
"406 312 OFFCURVE",
"352 382 OFFCURVE",
"352 496 CURVE",
"8 496 LINE",
"8 184 OFFCURVE",
"196 -16 OFFCURVE",
"496 -16 CURVE SMOOTH",
"794 -16 OFFCURVE",
"988 172 OFFCURVE",
"986 466 CURVE SMOOTH",
"986 1474 LINE",
"618 1474 LINE",
"618 462 LINE SMOOTH"
);
}
);
width = 1110;
},
{
anchors = (
{
name = bottom;
position = "{458, 0}";
},
{
name = top;
position = "{730, 1474}";
}
);
layerId = "FD1CEFBD-BAB1-4C2A-A598-30E93F9A29F6";
paths = (
{
closed = 1;
nodes = (
"648 238 OFFCURVE",
"550 148 OFFCURVE",
"422 148 CURVE SMOOTH",
"292 148 OFFCURVE",
"214 250 OFFCURVE",
"212 406 CURVE",
"32 406 LINE",
"38 156 OFFCURVE",
"188 -16 OFFCURVE",
"428 -16 CURVE SMOOTH",
"654 -16 OFFCURVE",
"828 138 OFFCURVE",
"828 446 CURVE SMOOTH",
"828 1474 LINE",
"648 1474 LINE",
"648 442 LINE SMOOTH"
);
}
);
width = 1000;
}
);
leftKerningGroup = LAT_J_UC;
rightKerningGroup = LAT_U_UC;
rightMetricsKey = H;
unicode = 004A;
},
{
glyphname = K;
lastChange = "2021-01-26 07:07:40 +0000";
layers = (
{
anchors = (
{
name = bottom;
position = "{628, 0}";
},
{
name = top;
position = "{630, 1474}";
}
);
layerId = "AB099EFE-E788-4EFC-8633-CF147CB782A6";
paths = (
{
closed = 1;
nodes = (
"268 0 LINE",
"268 708 LINE",
"302 708 LINE",
"264 734 LINE",
"1048 0 LINE",
"1136 0 LINE",
"324 762 LINE",
"324 716 LINE",
"1084 1474 LINE",
"996 1474 LINE",
"264 742 LINE",
"302 766 LINE",
"268 766 LINE",
"268 1474 LINE",
"204 1474 LINE",
"204 0 LINE"
);
}
);
width = 1210;
},
{
anchors = (
{
name = bottom;
position = "{722, 0}";
},
{
name = top;
position = "{686, 1474}";
}
);
guideLines = (
{
angle = 120;
position = "{626, 0}";
}
);
layerId = "2D8F7115-C311-411E-929D-56333CF7FFB2";
paths = (
{
closed = 1;
nodes = (
"492 0 LINE",
"492 638 LINE",
"580 638 LINE",
"460 692 LINE",
"976 0 LINE",
"1416 0 LINE",
"776 848 LINE",
"776 648 LINE",
"1398 1474 LINE",
"956 1474 LINE",
"460 774 LINE",
"580 828 LINE",
"492 828 LINE",
"492 1474 LINE",
"124 1474 LINE",
"124 0 LINE"
);
}
);
width = 1406;
},
{
anchors = (
{
name = bottom;
position = "{664, 0}";
},
{
name = top;
position = "{648, 1474}";
}
);
layerId = "FD1CEFBD-BAB1-4C2A-A598-30E93F9A29F6";
paths = (
{
closed = 1;
nodes = (
"352 0 LINE",
"352 684 LINE",
"406 684 LINE",
"328 716 LINE",
"1008 0 LINE",
"1246 0 LINE",
"504 782 LINE",
"504 692 LINE",
"1204 1474 LINE",
"970 1474 LINE",
"328 754 LINE",
"406 790 LINE",
"352 790 LINE",
"352 1474 LINE",
"172 1474 LINE",
"172 0 LINE"
);
}
);
width = 1286;
}
);
leftKerningGroup = LAT_H_UC;
leftMetricsKey = H;
rightKerningGroup = LAT_K_UC;
unicode = 004B;
},
{
glyphname = L;
lastChange = "2021-01-26 07:07:40 +0000";
layers = (
{
anchors = (
{
name = bottom;
position = "{598, 0}";
},
{
name = center;
position = "{236, 738}";
},
{
name = dot;
position = "{764, 738}";
},
{
name = top;
position = "{236, 1474}";
},
{
name = topright;
position = "{770, 1474}";
}
);
layerId = "AB099EFE-E788-4EFC-8633-CF147CB782A6";
paths = (
{
closed = 1;
nodes = (
"204 0 LINE",
"962 0 LINE",
"962 60 LINE",
"268 60 LINE",
"268 1474 LINE",
"204 1474 LINE"
);
}
);
width = 1016;
},
{
anchors = (
{
name = bottom;
position = "{572, 0}";
},
{
name = center;
position = "{306, 758}";
},
{
name = dot;
position = "{854, 754}";
},
{
name = top;
position = "{318, 1474}";
},
{
name = topright;
position = "{628, 1474}";
}
);
layerId = "2D8F7115-C311-411E-929D-56333CF7FFB2";
paths = (
{
closed = 1;
nodes = (
"124 0 LINE",
"998 0 LINE",
"998 328 LINE",
"492 328 LINE",
"492 1474 LINE",
"124 1474 LINE"
);
}
);
width = 1006;
},
{
anchors = (
{
name = bottom;
position = "{586, 0}";
},
{
name = center;
position = "{262, 746}";
},
{
name = dot;
position = "{794, 746}";
},
{
name = top;
position = "{262, 1474}";
},
{
name = topright;
position = "{712, 1474}";
}
);
layerId = "FD1CEFBD-BAB1-4C2A-A598-30E93F9A29F6";
paths = (
{
closed = 1;
nodes = (
"172 0 LINE",
"974 0 LINE",
"974 164 LINE",
"352 164 LINE",
"352 1474 LINE",
"172 1474 LINE"
);
}
);
width = 1012;
}
);
leftKerningGroup = LAT_H_UC;
leftMetricsKey = H;
rightKerningGroup = LAT_L_UC;
unicode = 004C;
},
{
glyphname = M;
lastChange = "2021-01-26 07:07:40 +0000";
layers = (
{
anchors = (
{
name = bottom;
position = "{800, 0}";
},
{
name = top;
position = "{800, 1474}";
}
);
layerId = "AB099EFE-E788-4EFC-8633-CF147CB782A6";
paths = (
{
closed = 1;
nodes = (
"204 0 LINE",
"268 0 LINE",
"268 1076 LINE",
"268 1352 LINE",
"276 1352 LINE",
"780 274 LINE",
"820 274 LINE",
"1324 1352 LINE",
"1332 1352 LINE",
"1332 1076 LINE",
"1332 0 LINE",
"1396 0 LINE",
"1396 1474 LINE",
"1314 1474 LINE",
"806 382 LINE",
"794 382 LINE",
"284 1474 LINE",
"204 1474 LINE"
);
}
);
width = 1600;
},
{
anchors = (
{
name = bottom;
position = "{902, 0}";
},
{
name = top;
position = "{902, 1474}";
}
);
layerId = "2D8F7115-C311-411E-929D-56333CF7FFB2";
paths = (
{
closed = 1;
nodes = (
"124 0 LINE",
"492 0 LINE",
"492 402 LINE",
"484 816 LINE",
"492 816 LINE",
"870 308 LINE",
"934 308 LINE",
"1312 816 LINE",
"1320 816 LINE",
"1312 402 LINE",
"1312 0 LINE",
"1680 0 LINE",
"1680 1474 LINE",
"1412 1474 LINE",
"906 820 LINE",
"898 820 LINE",
"392 1474 LINE",
"124 1474 LINE"
);
}
);
width = 1804;
},
{
anchors = (
{
name = bottom;
position = "{838, 0}";
},
{
name = top;
position = "{838, 1474}";
}
);
layerId = "FD1CEFBD-BAB1-4C2A-A598-30E93F9A29F6";
paths = (
{
closed = 1;
nodes = (
"172 0 LINE",
"352 0 LINE",
"352 798 LINE",
"348 1092 LINE",
"356 1092 LINE",
"806 286 LINE",
"870 286 LINE",
"1320 1092 LINE",
"1328 1092 LINE",
"1324 798 LINE",
"1324 0 LINE",
"1504 0 LINE",
"1504 1474 LINE",
"1354 1474 LINE",
"842 564 LINE",
"834 564 LINE",
"322 1474 LINE",
"172 1474 LINE"
);
}
);
width = 1676;
},
{
anchors = (
{
name = bottom;
position = "{876, 0}";
},
{
name = top;
position = "{876, 1474}";
}
);
associatedMasterId = "FD1CEFBD-BAB1-4C2A-A598-30E93F9A29F6";
layerId = "88B5AD2B-F3FD-4012-B339-81D79EB2E57F";
name = "140";
paths = (
{
closed = 1;
nodes = (
"148 0 LINE",
"434 0 LINE",
"434 578 LINE",
"426 938 LINE",
"434 938 LINE",
"844 300 LINE",
"910 300 LINE",
"1318 938 LINE",
"1328 938 LINE",
"1318 578 LINE",
"1318 0 LINE",
"1606 0 LINE",
"1606 1474 LINE",
"1388 1474 LINE",
"880 704 LINE",
"872 704 LINE",
"364 1474 LINE",
"148 1474 LINE"
);
}
);
width = 1754;
}
);
leftKerningGroup = LAT_H_UC;
leftMetricsKey = H;
rightKerningGroup = LAT_H_UC;
rightMetricsKey = H;
unicode = 004D;
},
{
glyphname = N;
lastChange = "2021-01-26 07:29:41 +0000";
layers = (
{
anchors = (
{
name = bottom;
position = "{702, 0}";
},
{
name = leghookright;
position = "{1198, 0}";
},
{
name = top;
position = "{718, 1474}";
}
);
layerId = "AB099EFE-E788-4EFC-8633-CF147CB782A6";
paths = (
{
closed = 1;
nodes = (
"204 0 LINE",
"268 0 LINE",
"268 970 LINE",
"268 1356 LINE",
"276 1356 LINE",
"452 1084 LINE",
"1168 0 LINE",
"1230 0 LINE",
"1230 1474 LINE",
"1166 1474 LINE",
"1166 512 LINE",
"1166 114 LINE",
"1158 114 LINE",
"982 388 LINE",
"266 1474 LINE",
"204 1474 LINE"
);
}
);
width = 1434;
},
{
anchors = (
{
name = bottom;
position = "{776, 0}";
},
{
name = leghookright;
position = "{1260, 0}";
},
{
name = top;
position = "{780, 1474}";
}
);
layerId = "2D8F7115-C311-411E-929D-56333CF7FFB2";
paths = (
{
closed = 1;
nodes = (
"124 0 LINE",
"492 0 LINE",
"492 520 LINE",
"486 848 LINE",
"494 848 LINE",
"592 712 LINE",
"1166 0 LINE",
"1436 0 LINE",
"1436 1474 LINE",
"1068 1474 LINE",
"1068 954 LINE",
"1078 648 LINE",
"1068 648 LINE",
"970 778 LINE",
"392 1474 LINE",
"124 1474 LINE"
);
}
);
width = 1560;
},
{
anchors = (
{
name = bottom;
position = "{742, 0}";
},
{
name = leghookright;
position = "{1224, 0}";
},
{
name = top;
position = "{742, 1474}";
}
);
layerId = "FD1CEFBD-BAB1-4C2A-A598-30E93F9A29F6";
paths = (
{
closed = 1;
nodes = (
"172 0 LINE",
"352 0 LINE",
"352 782 LINE",
"348 1138 LINE",
"356 1138 LINE",
"500 942 LINE",
"1180 0 LINE",
"1310 0 LINE",
"1310 1474 LINE",
"1130 1474 LINE",
"1130 704 LINE",
"1134 336 LINE",
"1126 336 LINE",
"988 536 LINE",
"304 1474 LINE",
"172 1474 LINE"
);
}
);
width = 1482;
}
);
leftKerningGroup = LAT_H_UC;
leftMetricsKey = H;
rightKerningGroup = LAT_H_UC;
rightMetricsKey = H;
unicode = 004E;
},
{
glyphname = O;
lastChange = "2021-01-26 10:02:58 +0000";
layers = (
{
anchors = (
{
name = bottom;
position = "{820, 0}";
},
{
name = center;
position = "{824, 738}";
},
{
name = horn;
position = "{1146, 1410}";
},
{
name = ogonek;
position = "{954, 0}";
},
{
name = top;
position = "{820, 1474}";
},
{
name = topleft;
position = "{78, 1474}";
},
{
name = topright;
position = "{1568, 1474}";
}
);
layerId = "AB099EFE-E788-4EFC-8633-CF147CB782A6";
paths = (
{
closed = 1;
nodes = (
"1220 -16 OFFCURVE",
"1524 308 OFFCURVE",
"1524 738 CURVE SMOOTH",
"1524 1168 OFFCURVE",
"1220 1490 OFFCURVE",
"820 1490 CURVE SMOOTH",
"426 1490 OFFCURVE",
"122 1168 OFFCURVE",
"122 738 CURVE SMOOTH",
"122 308 OFFCURVE",
"426 -16 OFFCURVE",
"820 -16 CURVE SMOOTH"
);
},
{
closed = 1;
nodes = (
"466 44 OFFCURVE",
"186 336 OFFCURVE",
"186 738 CURVE SMOOTH",
"186 1136 OFFCURVE",
"466 1430 OFFCURVE",
"820 1430 CURVE SMOOTH",
"1180 1430 OFFCURVE",
"1460 1136 OFFCURVE",
"1460 738 CURVE SMOOTH",
"1460 336 OFFCURVE",
"1180 44 OFFCURVE",
"820 44 CURVE SMOOTH"
);
}
);
width = 1646;
},
{
anchors = (
{
name = bottom;
position = "{802, 0}";
},
{
name = center;
position = "{802, 738}";
},
{
name = horn;
position = "{1118, 1426}";
},
{
name = ogonek;
position = "{958, 0}";
},
{
name = top;
position = "{802, 1474}";
},
{
name = topleft;
position = "{-12, 1474}";
},
{
name = topright;
position = "{1618, 1474}";
}
);
layerId = "2D8F7115-C311-411E-929D-56333CF7FFB2";
paths = (
{
closed = 1;
nodes = (
"1236 -16 OFFCURVE",
"1576 318 OFFCURVE",
"1572 738 CURVE SMOOTH",
"1576 1158 OFFCURVE",
"1236 1492 OFFCURVE",
"804 1492 CURVE SMOOTH",
"378 1492 OFFCURVE",
"36 1158 OFFCURVE",
"32 738 CURVE SMOOTH",
"36 318 OFFCURVE",
"378 -16 OFFCURVE",
"804 -16 CURVE SMOOTH"
);
},
{
closed = 1;
nodes = (
"578 320 OFFCURVE",
"400 506 OFFCURVE",
"400 738 CURVE SMOOTH",
"400 972 OFFCURVE",
"578 1156 OFFCURVE",
"802 1156 CURVE SMOOTH",
"1026 1156 OFFCURVE",
"1204 972 OFFCURVE",
"1204 738 CURVE SMOOTH",
"1204 506 OFFCURVE",
"1026 320 OFFCURVE",
"802 320 CURVE SMOOTH"
);
}
);
width = 1604;
},
{
anchors = (
{
name = bottom;
position = "{812, 0}";
},
{
name = center;
position = "{816, 738}";
},
{
name = horn;
position = "{1126, 1422}";
},
{
name = ogonek;
position = "{950, 0}";
},
{
name = top;
position = "{812, 1474}";
},
{
name = topleft;
position = "{46, 1470}";
},
{
name = topright;
position = "{1576, 1470}";
}
);
layerId = "FD1CEFBD-BAB1-4C2A-A598-30E93F9A29F6";
paths = (
{
closed = 1;
nodes = (
"1230 -16 OFFCURVE",
"1540 304 OFFCURVE",
"1540 738 CURVE SMOOTH",
"1540 1168 OFFCURVE",
"1230 1492 OFFCURVE",
"812 1490 CURVE SMOOTH",
"398 1492 OFFCURVE",
"90 1168 OFFCURVE",
"90 738 CURVE SMOOTH",
"90 304 OFFCURVE",
"402 -16 OFFCURVE",
"812 -16 CURVE SMOOTH"
);
},
{
closed = 1;
nodes = (
"500 148 OFFCURVE",
"270 398 OFFCURVE",
"270 738 CURVE SMOOTH",
"270 1082 OFFCURVE",
"508 1326 OFFCURVE",
"812 1326 CURVE SMOOTH",
"1122 1326 OFFCURVE",
"1356 1082 OFFCURVE",
"1360 738 CURVE SMOOTH",
"1364 402 OFFCURVE",
"1130 148 OFFCURVE",
"812 148 CURVE SMOOTH"
);
}
);
width = 1630;
}
);
leftKerningGroup = LAT_O_UC;
rightKerningGroup = LAT_O_UC;
unicode = 004F;
},
{
glyphname = OE;
lastChange = "2021-01-26 05:30:40 +0000";
layers = (
{
anchors = (
{
name = bottom;
position = "{1192, 0}";
},
{
name = top;
position = "{1192, 1474}";
}
);
layerId = "AB099EFE-E788-4EFC-8633-CF147CB782A6";
paths = (
{
closed = 1;
nodes = (
"1102 -16 OFFCURVE",
"1348 160 OFFCURVE",
"1434 456 CURVE",
"1406 456 LINE",
"1406 0 LINE",
"2166 0 LINE",
"2166 60 LINE",
"1470 60 LINE",
"1470 726 LINE",
"2068 726 LINE",
"2068 786 LINE",
"1470 786 LINE",
"1470 1414 LINE",
"2166 1414 LINE",
"2166 1474 LINE",
"1406 1474 LINE",
"1406 1018 LINE",
"1434 1018 LINE",
"1348 1316 OFFCURVE",
"1100 1490 OFFCURVE",
"812 1490 CURVE SMOOTH",
"422 1490 OFFCURVE",
"122 1172 OFFCURVE",
"122 738 CURVE SMOOTH",
"122 308 OFFCURVE",
"422 -16 OFFCURVE",
"812 -16 CURVE SMOOTH"
);
},
{
closed = 1;
nodes = (
"458 44 OFFCURVE",
"186 340 OFFCURVE",
"186 740 CURVE SMOOTH",
"186 1134 OFFCURVE",
"452 1430 OFFCURVE",
"816 1430 CURVE SMOOTH",
"1178 1430 OFFCURVE",
"1414 1138 OFFCURVE",
"1414 742 CURVE SMOOTH",
"1414 336 OFFCURVE",
"1168 44 OFFCURVE",
"816 44 CURVE SMOOTH"
);
}
);
width = 2306;
},
{
anchors = (
{
name = bottom;
position = "{1052, 0}";
},
{
name = top;
position = "{1052, 1474}";
}
);
layerId = "2D8F7115-C311-411E-929D-56333CF7FFB2";
paths = (
{
closed = 1;
nodes = (
"1020 -16 OFFCURVE",
"1192 102 OFFCURVE",
"1294 308 CURVE",
"1160 308 LINE",
"1160 0 LINE",
"1990 0 LINE",
"1990 328 LINE",
"1486 328 LINE",
"1486 586 LINE",
"1904 586 LINE",
"1904 898 LINE",
"1486 898 LINE",
"1486 1146 LINE",
"1990 1146 LINE",
"1990 1474 LINE",
"1160 1474 LINE",
"1160 1168 LINE",
"1294 1168 LINE",
"1192 1376 OFFCURVE",
"1054 1500 OFFCURVE",
"770 1500 CURVE SMOOTH",
"382 1500 OFFCURVE",
"38 1176 OFFCURVE",
"32 738 CURVE SMOOTH",
"38 300 OFFCURVE",
"382 -16 OFFCURVE",
"770 -16 CURVE SMOOTH"
);
},
{
closed = 1;
nodes = (
"574 296 OFFCURVE",
"402 484 OFFCURVE",
"402 738 CURVE SMOOTH",
"402 992 OFFCURVE",
"574 1180 OFFCURVE",
"794 1180 CURVE SMOOTH",
"1024 1180 OFFCURVE",
"1192 992 OFFCURVE",
"1192 738 CURVE SMOOTH",
"1192 484 OFFCURVE",
"1024 296 OFFCURVE",
"794 294 CURVE SMOOTH"
);
}
);
width = 2072;
},
{
anchors = (
{
name = bottom;
position = "{1142, 0}";
},
{
name = top;
position = "{1142, 1474}";
}
);
layerId = "FD1CEFBD-BAB1-4C2A-A598-30E93F9A29F6";
paths = (
{
closed = 1;
nodes = (
"1074 -16 OFFCURVE",
"1290 140 OFFCURVE",
"1384 402 CURVE",
"1314 402 LINE",
"1314 0 LINE",
"2102 0 LINE",
"2102 164 LINE",
"1478 164 LINE",
"1478 668 LINE",
"2008 668 LINE",
"2008 832 LINE",
"1478 832 LINE",
"1478 1310 LINE",
"2102 1310 LINE",
"2102 1474 LINE",
"1314 1474 LINE",
"1314 1078 LINE",
"1384 1078 LINE",
"1290 1340 OFFCURVE",
"1086 1496 OFFCURVE",
"798 1496 CURVE SMOOTH",
"410 1496 OFFCURVE",
"94 1176 OFFCURVE",
"90 738 CURVE SMOOTH",
"94 304 OFFCURVE",
"410 -16 OFFCURVE",
"798 -16 CURVE SMOOTH"
);
},
{
closed = 1;
nodes = (
"504 144 OFFCURVE",
"270 394 OFFCURVE",
"270 738 CURVE SMOOTH",
"270 1086 OFFCURVE",
"504 1340 OFFCURVE",
"812 1336 CURVE SMOOTH",
"1122 1340 OFFCURVE",
"1332 1086 OFFCURVE",
"1332 738 CURVE SMOOTH",
"1332 394 OFFCURVE",
"1122 144 OFFCURVE",
"812 144 CURVE SMOOTH"
);
}
);
width = 2220;
}
);
leftKerningGroup = LAT_O_UC;
leftMetricsKey = O;
rightKerningGroup = LAT_E_UC;
rightMetricsKey = E;
unicode = 0152;
},
{
glyphname = P;
lastChange = "2021-01-26 07:07:40 +0000";
layers = (
{
anchors = (
{
name = bottom;
position = "{236, 0}";
},
{
name = top;
position = "{634, 1474}";
}
);
layerId = "AB099EFE-E788-4EFC-8633-CF147CB782A6";
paths = (
{
closed = 1;
nodes = (
"580 666 LINE SMOOTH",
"834 666 OFFCURVE",
"998 854 OFFCURVE",
"998 1078 CURVE SMOOTH",
"998 1320 OFFCURVE",
"814 1474 OFFCURVE",
"568 1474 CURVE SMOOTH",
"236 1474 LINE",
"236 1414 LINE",
"560 1414 LINE SMOOTH",
"782 1414 OFFCURVE",
"934 1286 OFFCURVE",
"934 1078 CURVE SMOOTH",
"934 868 OFFCURVE",
"784 726 OFFCURVE",
"568 726 CURVE SMOOTH",
"236 726 LINE",
"236 666 LINE"
);
},
{
closed = 1;
nodes = (
"268 0 LINE",
"268 1474 LINE",
"204 1474 LINE",
"204 0 LINE"
);
}
);
width = 1108;
},
{
anchors = (
{
name = bottom;
position = "{310, 0}";
},
{
name = top;
position = "{666, 1474}";
}
);
layerId = "2D8F7115-C311-411E-929D-56333CF7FFB2";
paths = (
{
closed = 1;
nodes = (
"656 450 LINE SMOOTH",
"984 450 OFFCURVE",
"1208 660 OFFCURVE",
"1208 974 CURVE SMOOTH",
"1208 1278 OFFCURVE",
"1000 1474 OFFCURVE",
"648 1474 CURVE SMOOTH",
"422 1474 LINE",
"422 1146 LINE",
"626 1146 LINE SMOOTH",
"762 1146 OFFCURVE",
"848 1074 OFFCURVE",
"848 962 CURVE SMOOTH",
"848 856 OFFCURVE",
"766 774 OFFCURVE",
"638 774 CURVE SMOOTH",
"422 774 LINE",
"422 450 LINE"
);
},
{
closed = 1;
nodes = (
"492 0 LINE",
"492 1474 LINE",
"124 1474 LINE",
"124 0 LINE"
);
}
);
width = 1240;
},
{
anchors = (
{
name = bottom;
position = "{262, 0}";
},
{
name = top;
position = "{644, 1474}";
}
);
layerId = "FD1CEFBD-BAB1-4C2A-A598-30E93F9A29F6";
paths = (
{
closed = 1;
nodes = (
"606 586 LINE SMOOTH",
"890 586 OFFCURVE",
"1070 778 OFFCURVE",
"1070 1040 CURVE SMOOTH",
"1070 1304 OFFCURVE",
"882 1474 OFFCURVE",
"594 1474 CURVE SMOOTH",
"304 1474 LINE",
"304 1310 LINE",
"582 1310 LINE SMOOTH",
"770 1310 OFFCURVE",
"892 1208 OFFCURVE",
"890 1036 CURVE SMOOTH",
"892 864 OFFCURVE",
"774 750 OFFCURVE",
"594 750 CURVE SMOOTH",
"304 750 LINE",
"304 586 LINE"
);
},
{
closed = 1;
nodes = (
"352 0 LINE",
"352 1474 LINE",
"172 1474 LINE",
"172 0 LINE"
);
}
);
width = 1160;
}
);
leftKerningGroup = LAT_H_UC;
leftMetricsKey = H;
rightKerningGroup = LAT_P_UC;
unicode = 0050;
},
{
glyphname = Thorn;
lastChange = "2021-01-26 07:07:40 +0000";
layers = (
{
layerId = "AB099EFE-E788-4EFC-8633-CF147CB782A6";
paths = (
{
closed = 1;
nodes = (
"648 328 LINE SMOOTH",
"892 328 OFFCURVE",
"1054 500 OFFCURVE",
"1054 742 CURVE SMOOTH",
"1054 984 OFFCURVE",
"892 1138 OFFCURVE",
"648 1138 CURVE SMOOTH",
"248 1138 LINE",
"248 1078 LINE",
"656 1078 LINE SMOOTH",
"856 1078 OFFCURVE",
"990 950 OFFCURVE",
"990 742 CURVE SMOOTH",
"990 532 OFFCURVE",
"856 388 OFFCURVE",
"656 388 CURVE SMOOTH",
"248 388 LINE",
"248 328 LINE"
);
},
{
closed = 1;
nodes = (
"268 0 LINE",
"268 1474 LINE",
"204 1474 LINE",
"204 0 LINE"
);
}
);
width = 1162;
},
{
layerId = "2D8F7115-C311-411E-929D-56333CF7FFB2";
paths = (
{
closed = 1;
nodes = (
"668 230 LINE SMOOTH",
"988 230 OFFCURVE",
"1200 442 OFFCURVE",
"1200 752 CURVE SMOOTH",
"1200 1060 OFFCURVE",
"990 1250 OFFCURVE",
"660 1250 CURVE SMOOTH",
"414 1250 LINE",
"414 930 LINE",
"638 930 LINE SMOOTH",
"766 930 OFFCURVE",
"848 856 OFFCURVE",
"848 742 CURVE SMOOTH",
"848 632 OFFCURVE",
"770 550 OFFCURVE",
"652 550 CURVE SMOOTH",
"414 550 LINE",
"414 230 LINE"
);
},
{
closed = 1;
nodes = (
"492 0 LINE",
"492 1474 LINE",
"124 1474 LINE",
"124 0 LINE"
);
}
);
width = 1248;
},
{
layerId = "FD1CEFBD-BAB1-4C2A-A598-30E93F9A29F6";
paths = (
{
closed = 1;
nodes = (
"656 290 LINE SMOOTH",
"934 290 OFFCURVE",
"1118 480 OFFCURVE",
"1118 746 CURVE SMOOTH",
"1118 1016 OFFCURVE",
"930 1180 OFFCURVE",
"652 1180 CURVE SMOOTH",
"304 1180 LINE",
"304 1016 LINE",
"652 1016 LINE SMOOTH",
"832 1016 OFFCURVE",
"938 918 OFFCURVE",
"938 742 CURVE SMOOTH",
"938 570 OFFCURVE",
"832 454 OFFCURVE",
"656 454 CURVE SMOOTH",
"304 454 LINE",
"304 290 LINE"
);
},
{
closed = 1;
nodes = (
"352 0 LINE",
"352 1474 LINE",
"172 1474 LINE",
"172 0 LINE"
);
}
);
width = 1208;
}
);
leftKerningGroup = LAT_H_UC;
leftMetricsKey = H;
rightKerningGroup = LAT_P_SC;
unicode = 00DE;
},
{
glyphname = Q;
lastChange = "2021-01-26 04:59:39 +0000";
layers = (
{
anchors = (
{
name = bottom;
position = "{824, 0}";
},
{
name = top;
position = "{816, 1474}";
}
);
components = (
{
name = O;
}
);
layerId = "AB099EFE-E788-4EFC-8633-CF147CB782A6";
paths = (
{
closed = 1;
nodes = (
"1382 0 LINE",
"1260 170 LINE",
"1248 186 LINE",
"992 548 LINE",
"920 548 LINE",
"1202 150 LINE",
"1212 136 LINE",
"1310 0 LINE"
);
}
);
width = 1656;
},
{
anchors = (
{
name = bottom;
position = "{798, 0}";
},
{
name = top;
position = "{798, 1474}";
}
);
components = (
{
name = O;
}
);
layerId = "2D8F7115-C311-411E-929D-56333CF7FFB2";
paths = (
{
closed = 1;
nodes = (
"1642 0 LINE",
"1392 300 LINE",
"1192 450 LINE",
"1032 630 LINE",
"634 630 LINE",
"938 320 LINE",
"1110 200 LINE",
"1274 0 LINE"
);
}
);
width = 1692;
},
{
anchors = (
{
name = bottom;
position = "{816, 0}";
},
{
name = top;
position = "{816, 1474}";
}
);
components = (
{
alignment = -1;
name = O;
}
);
layerId = "FD1CEFBD-BAB1-4C2A-A598-30E93F9A29F6";
paths = (
{
closed = 1;
nodes = (
"1486 0 LINE",
"1318 226 LINE",
"1254 294 LINE",
"1032 598 LINE",
"840 598 LINE",
"1122 218 LINE",
"1180 160 LINE",
"1294 0 LINE"
);
}
);
width = 1654;
}
);
leftKerningGroup = LAT_O_UC;
leftMetricsKey = O;
rightKerningGroup = LAT_Q_UC;
unicode = 0051;
},
{
glyphname = R;
lastChange = "2021-01-26 07:07:40 +0000";
layers = (
{
anchors = (
{
name = bottom;
position = "{644, 0}";
},
{
name = top;
position = "{572, 1474}";
}
);
guideLines = (
{
angle = 120;
position = "{512, 0}";
},
{
angle = 67.5;
position = "{100, 2}";
}
);
layerId = "AB099EFE-E788-4EFC-8633-CF147CB782A6";
paths = (
{
closed = 1;
nodes = (
"236 1414 LINE",
"560 1414 LINE SMOOTH",
"782 1414 OFFCURVE",
"934 1286 OFFCURVE",
"934 1078 CURVE SMOOTH",
"934 868 OFFCURVE",
"784 726 OFFCURVE",
"568 726 CURVE SMOOTH",
"236 726 LINE",
"236 666 LINE",
"582 666 LINE SMOOTH",
"834 666 OFFCURVE",
"998 854 OFFCURVE",
"998 1078 CURVE SMOOTH",
"998 1320 OFFCURVE",
"814 1474 OFFCURVE",
"568 1474 CURVE SMOOTH",
"236 1474 LINE"
);
},
{
closed = 1;
nodes = (
"268 1474 LINE",
"204 1474 LINE",
"204 0 LINE",
"268 0 LINE"
);
},
{
closed = 1;
nodes = (
"574 672 LINE",
"1024 0 LINE",
"1096 0 LINE",
"616 716 LINE"
);
}
);
width = 1196;
},
{
anchors = (
{
name = bottom;
position = "{694, 0}";
},
{
name = top;
position = "{632, 1474}";
}
);
guideLines = (
{
angle = 120;
position = "{648, 0}";
}
);
layerId = "2D8F7115-C311-411E-929D-56333CF7FFB2";
paths = (
{
closed = 1;
nodes = (
"388 1146 LINE",
"624 1146 LINE SMOOTH",
"756 1146 OFFCURVE",
"846 1074 OFFCURVE",
"846 962 CURVE SMOOTH",
"846 856 OFFCURVE",
"760 782 OFFCURVE",
"636 782 CURVE SMOOTH",
"388 782 LINE",
"388 484 LINE",
"584 484 LINE SMOOTH",
"974 484 OFFCURVE",
"1206 714 OFFCURVE",
"1206 1012 CURVE SMOOTH",
"1206 1312 OFFCURVE",
"978 1474 OFFCURVE",
"682 1474 CURVE SMOOTH",
"388 1474 LINE"
);
},
{
closed = 1;
nodes = (
"492 1474 LINE",
"124 1474 LINE",
"124 0 LINE",
"492 0 LINE"
);
},
{
closed = 1;
nodes = (
"632 536 LINE",
"928 0 LINE",
"1342 0 LINE",
"904 754 LINE"
);
}
);
width = 1378;
},
{
anchors = (
{
name = bottom;
position = "{660, 0}";
},
{
name = top;
position = "{602, 1474}";
}
);
hints = (
{
horizontal = 1;
origin = "{0, 10}";
type = Delta;
settings = {
deltaV = {
"{100, 88, 0, 0, 0, 0}" = {
"12" = 3;
};
};
};
},
{
horizontal = 1;
origin = "{0, 9}";
type = Delta;
settings = {
deltaV = {
"{100, 88, 0, 0, 0, 0}" = {
"12" = 3;
};
};
};
},
{
horizontal = 1;
origin = "{0, 8}";
type = Delta;
settings = {
deltaV = {
"{100, 88, 0, 0, 0, 0}" = {
"12" = 3;
};
};
};
},
{
horizontal = 1;
origin = "{0, 7}";
type = Delta;
settings = {
deltaV = {
"{100, 88, 0, 0, 0, 0}" = {
"12" = 3;
};
};
};
},
{
horizontal = 1;
origin = "{0, 8, 1, 0}";
type = Delta;
settings = {
deltaV = {
"{100, 88, 0, 0, 0, 0}" = {
"12" = 3;
};
};
};
},
{
horizontal = 1;
origin = "{0, 10, 1, 0}";
type = Delta;
settings = {
deltaV = {
"{100, 88, 0, 0, 0, 0}" = {
"12" = 3;
};
};
};
},
{
horizontal = 1;
origin = "{0, 13, 2, 1}";
type = Delta;
settings = {
deltaV = {
"{100, 88, 0, 0, 0, 0}" = {
"12" = 3;
};
};
};
},
{
horizontal = 1;
origin = "{0, 13, 2, 3}";
type = Delta;
settings = {
deltaV = {
"{100, 88, 0, 0, 0, 0}" = {
"12" = 3;
};
};
};
}
);
layerId = "FD1CEFBD-BAB1-4C2A-A598-30E93F9A29F6";
paths = (
{
closed = 1;
nodes = (
"290 1310 LINE",
"582 1310 LINE SMOOTH",
"770 1310 OFFCURVE",
"894 1208 OFFCURVE",
"894 1036 CURVE SMOOTH",
"894 864 OFFCURVE",
"774 754 OFFCURVE",
"594 754 CURVE SMOOTH",
"290 754 LINE",
"290 598 LINE",
"582 598 LINE SMOOTH",
"886 598 OFFCURVE",
"1074 800 OFFCURVE",
"1074 1052 CURVE SMOOTH",
"1074 1316 OFFCURVE",
"874 1474 OFFCURVE",
"610 1474 CURVE SMOOTH",
"290 1474 LINE"
);
},
{
closed = 1;
nodes = (
"352 1474 LINE",
"172 1474 LINE",
"172 0 LINE",
"352 0 LINE"
);
},
{
closed = 1;
nodes = (
"586 626 LINE",
"980 0 LINE",
"1188 0 LINE",
"726 734 LINE"
);
}
);
width = 1264;
}
);
leftKerningGroup = LAT_H_UC;
leftMetricsKey = H;
rightKerningGroup = LAT_R_UC;
unicode = 0052;
},
{
glyphname = S;
lastChange = "2021-01-27 10:21:48 +0000";
layers = (
{
anchors = (
{
name = bottom;
position = "{578, 0}";
},
{
name = cedilla;
position = "{558, 0}";
},
{
name = top;
position = "{548, 1474}";
}
);
layerId = "AB099EFE-E788-4EFC-8633-CF147CB782A6";
paths = (
{
closed = 1;
nodes = (
"776 -16 OFFCURVE",
"976 128 OFFCURVE",
"976 366 CURVE SMOOTH",
"976 660 OFFCURVE",
"670 746 OFFCURVE",
"538 798 CURVE SMOOTH",
"406 850 OFFCURVE",
"228 942 OFFCURVE",
"228 1144 CURVE SMOOTH",
"228 1308 OFFCURVE",
"346 1430 OFFCURVE",
"536 1430 CURVE SMOOTH",
"716 1430 OFFCURVE",
"816 1322 OFFCURVE",
"860 1234 CURVE",
"916 1258 LINE",
"866 1364 OFFCURVE",
"744 1490 OFFCURVE",
"536 1490 CURVE SMOOTH",
"314 1490 OFFCURVE",
"164 1348 OFFCURVE",
"164 1140 CURVE SMOOTH",
"164 918 OFFCURVE",
"332 818 OFFCURVE",
"554 730 CURVE SMOOTH",
"692 676 OFFCURVE",
"912 596 OFFCURVE",
"912 366 CURVE SMOOTH",
"912 168 OFFCURVE",
"748 44 OFFCURVE",
"562 44 CURVE SMOOTH",
"398 44 OFFCURVE",
"244 138 OFFCURVE",
"186 288 CURVE",
"122 262 LINE",
"184 128 OFFCURVE",
"324 -16 OFFCURVE",
"552 -16 CURVE SMOOTH"
);
}
);
userData = {
RMXScaler = {
height = 139;
width = 140;
};
};
width = 1116;
},
{
anchors = (
{
name = bottom;
position = "{634, 0}";
},
{
name = cedilla;
position = "{660, 0}";
},
{
name = top;
position = "{602, 1474}";
}
);
guideLines = (
{
angle = 22.5;
position = "{292, 288}";
},
{
angle = 90;
position = "{60, -108}";
},
{
angle = 90;
position = "{512, -108}";
}
);
layerId = "2D8F7115-C311-411E-929D-56333CF7FFB2";
paths = (
{
closed = 1;
nodes = (
"922 -16 OFFCURVE",
"1140 198 OFFCURVE",
"1138 454 CURVE SMOOTH",
"1136 730 OFFCURVE",
"886 828 OFFCURVE",
"772 860 CURVE SMOOTH",
"696 882 OFFCURVE",
"470 934 OFFCURVE",
"470 1054 CURVE SMOOTH",
"470 1116 OFFCURVE",
"530 1164 OFFCURVE",
"600 1164 CURVE SMOOTH",
"684 1164 OFFCURVE",
"746 1094 OFFCURVE",
"766 1036 CURVE",
"1106 1176 LINE",
"1034 1356 OFFCURVE",
"860 1490 OFFCURVE",
"598 1490 CURVE SMOOTH",
"294 1490 OFFCURVE",
"102 1312 OFFCURVE",
"102 1062 CURVE SMOOTH",
"102 812 OFFCURVE",
"292 688 OFFCURVE",
"488 626 CURVE SMOOTH",
"592 592 OFFCURVE",
"770 558 OFFCURVE",
"770 444 CURVE SMOOTH",
"770 376 OFFCURVE",
"704 320 OFFCURVE",
"622 320 CURVE SMOOTH",
"512 320 OFFCURVE",
"434 414 OFFCURVE",
"402 504 CURVE",
"50 356 LINE",
"116 148 OFFCURVE",
"360 -16 OFFCURVE",
"618 -16 CURVE SMOOTH"
);
}
);
userData = {
RMXScaler = {
height = 137;
weight = 160;
width = 140;
};
};
width = 1204;
},
{
anchors = (
{
name = bottom;
position = "{610, 0}";
},
{
name = cedilla;
position = "{626, 0}";
},
{
name = top;
position = "{594, 1474}";
}
);
associatedMasterId = "AB099EFE-E788-4EFC-8633-CF147CB782A6";
layerId = "189FC121-1A31-44F2-BAF9-F118C42A5042";
name = "{140}";
paths = (
{
closed = 1;
nodes = (
"890 -16 OFFCURVE",
"1098 176 OFFCURVE",
"1098 426 CURVE SMOOTH",
"1098 716 OFFCURVE",
"816 820 OFFCURVE",
"704 856 CURVE SMOOTH",
"610 886 OFFCURVE",
"418 938 OFFCURVE",
"418 1084 CURVE SMOOTH",
"418 1184 OFFCURVE",
"508 1232 OFFCURVE",
"590 1232 CURVE SMOOTH",
"706 1232 OFFCURVE",
"776 1138 OFFCURVE",
"798 1090 CURVE",
"1060 1196 LINE",
"994 1352 OFFCURVE",
"838 1490 OFFCURVE",
"590 1490 CURVE SMOOTH",
"328 1492 OFFCURVE",
"136 1336 OFFCURVE",
"136 1082 CURVE SMOOTH",
"136 838 OFFCURVE",
"310 726 OFFCURVE",
"512 656 CURVE SMOOTH",
"628 616 OFFCURVE",
"816 566 OFFCURVE",
"816 422 CURVE SMOOTH",
"816 320 OFFCURVE",
"718 246 OFFCURVE",
"608 246 CURVE SMOOTH",
"476 246 OFFCURVE",
"386 354 OFFCURVE",
"352 450 CURVE",
"82 336 LINE",
"144 146 OFFCURVE",
"360 -16 OFFCURVE",
"614 -16 CURVE SMOOTH"
);
}
);
userData = {
RMXScaler = {
height = 139;
width = 140;
};
};
width = 1192;
},
{
anchors = (
{
name = bottom;
position = "{630, 0}";
},
{
name = cedilla;
position = "{652, 0}";
},
{
name = top;
position = "{606, 1474}";
}
);
associatedMasterId = "AB099EFE-E788-4EFC-8633-CF147CB782A6";
guideLines = (
{
angle = 22.5;
position = "{534, 580}";
}
);
layerId = "969825C1-611F-47A8-BA5F-C0E6DA0B2EE3";
name = "{160}";
paths = (
{
closed = 1;
nodes = (
"922 -16 OFFCURVE",
"1126 194 OFFCURVE",
"1126 438 CURVE SMOOTH",
"1126 724 OFFCURVE",
"852 826 OFFCURVE",
"746 860 CURVE SMOOTH",
"644 892 OFFCURVE",
"454 936 OFFCURVE",
"454 1070 CURVE SMOOTH",
"454 1156 OFFCURVE",
"534 1200 OFFCURVE",
"604 1200 CURVE SMOOTH",
"704 1200 OFFCURVE",
"770 1110 OFFCURVE",
"786 1060 CURVE",
"1094 1188 LINE",
"1020 1360 OFFCURVE",
"850 1490 OFFCURVE",
"600 1490 CURVE SMOOTH",
"304 1490 OFFCURVE",
"126 1310 OFFCURVE",
"126 1078 CURVE SMOOTH",
"126 846 OFFCURVE",
"304 706 OFFCURVE",
"510 638 CURVE SMOOTH",
"598 610 OFFCURVE",
"798 562 OFFCURVE",
"798 434 CURVE SMOOTH",
"800 352 OFFCURVE",
"722 284 OFFCURVE",
"624 282 CURVE SMOOTH",
"506 282 OFFCURVE",
"420 382 OFFCURVE",
"386 480 CURVE",
"74 348 LINE",
"134 158 OFFCURVE",
"358 -16 OFFCURVE",
"626 -16 CURVE SMOOTH"
);
}
);
userData = {
RMXScaler = {
height = 139;
width = 140;
};
};
width = 1216;
},
{
anchors = (
{
name = bottom;
position = "{578, 0}";
},
{
name = cedilla;
position = "{582, 0}";
},
{
name = top;
position = "{570, 1474}";
}
);
layerId = "FD1CEFBD-BAB1-4C2A-A598-30E93F9A29F6";
paths = (
{
closed = 1;
nodes = (
"816 -16 OFFCURVE",
"1028 150 OFFCURVE",
"1028 402 CURVE SMOOTH",
"1028 700 OFFCURVE",
"730 792 OFFCURVE",
"606 836 CURVE SMOOTH",
"494 876 OFFCURVE",
"324 946 OFFCURVE",
"324 1116 CURVE SMOOTH",
"324 1254 OFFCURVE",
"434 1326 OFFCURVE",
"558 1326 CURVE SMOOTH",
"696 1326 OFFCURVE",
"786 1234 OFFCURVE",
"824 1164 CURVE",
"984 1228 LINE",
"922 1364 OFFCURVE",
"782 1490 OFFCURVE",
"556 1490 CURVE SMOOTH",
"312 1490 OFFCURVE",
"148 1344 OFFCURVE",
"148 1120 CURVE SMOOTH",
"148 884 OFFCURVE",
"330 760 OFFCURVE",
"524 692 CURVE SMOOTH",
"614 660 OFFCURVE",
"852 592 OFFCURVE",
"852 394 CURVE SMOOTH",
"852 250 OFFCURVE",
"724 148 OFFCURVE",
"580 148 CURVE SMOOTH",
"426 148 OFFCURVE",
"312 262 OFFCURVE",
"270 390 CURVE",
"102 320 LINE",
"160 148 OFFCURVE",
"348 -16 OFFCURVE",
"582 -16 CURVE SMOOTH"
);
}
);
userData = {
RMXScaler = {
height = 139;
width = 140;
};
};
width = 1138;
}
);
leftKerningGroup = LAT_S_UC;
rightKerningGroup = LAT_S_UC;
unicode = 0053;
userData = {
RMXScaler = {
source = s;
};
};
},
{
glyphname = Germandbls;
lastChange = "2021-01-26 07:16:18 +0000";
layers = (
{
layerId = "AB099EFE-E788-4EFC-8633-CF147CB782A6";
paths = (
{
closed = 1;
nodes = (
"974 -16 OFFCURVE",
"1182 190 OFFCURVE",
"1182 458 CURVE SMOOTH",
"1182 712 OFFCURVE",
"994 906 OFFCURVE",
"672 892 CURVE",
"704 860 LINE",
"946 1414 LINE",
"946 1430 LINE",
"830 1476 OFFCURVE",
"696 1490 OFFCURVE",
"598 1490 CURVE SMOOTH",
"184 1490 OFFCURVE",
"188 1242 OFFCURVE",
"188 1126 CURVE SMOOTH",
"188 0 LINE",
"252 0 LINE",
"252 1132 LINE SMOOTH",
"252 1230 OFFCURVE",
"250 1430 OFFCURVE",
"580 1430 CURVE SMOOTH",
"686 1430 OFFCURVE",
"822 1412 OFFCURVE",
"888 1386 CURVE",
"884 1420 LINE",
"642 864 LINE",
"642 836 LINE",
"682 836 LINE SMOOTH",
"956 836 OFFCURVE",
"1118 688 OFFCURVE",
"1118 460 CURVE SMOOTH",
"1118 208 OFFCURVE",
"920 44 OFFCURVE",
"702 44 CURVE SMOOTH",
"636 44 OFFCURVE",
"556 60 OFFCURVE",
"502 80 CURVE",
"502 16 LINE",
"548 -4 OFFCURVE",
"628 -16 OFFCURVE",
"694 -16 CURVE SMOOTH"
);
}
);
width = 1316;
},
{
layerId = "2D8F7115-C311-411E-929D-56333CF7FFB2";
paths = (
{
closed = 1;
nodes = (
"1188 -16 OFFCURVE",
"1410 180 OFFCURVE",
"1410 480 CURVE SMOOTH",
"1410 714 OFFCURVE",
"1278 902 OFFCURVE",
"1032 934 CURVE",
"1044 766 LINE",
"1290 1340 LINE",
"1290 1376 LINE",
"1180 1438 OFFCURVE",
"942 1490 OFFCURVE",
"734 1490 CURVE SMOOTH",
"366 1490 OFFCURVE",
"114 1324 OFFCURVE",
"114 1020 CURVE SMOOTH",
"114 0 LINE",
"482 0 LINE",
"482 974 LINE SMOOTH",
"482 1036 OFFCURVE",
"508 1170 OFFCURVE",
"750 1170 CURVE SMOOTH",
"840 1170 OFFCURVE",
"902 1152 OFFCURVE",
"918 1126 CURVE",
"898 1216 LINE",
"720 738 LINE",
"720 676 LINE",
"828 676 LINE SMOOTH",
"984 676 OFFCURVE",
"1052 586 OFFCURVE",
"1050 484 CURVE SMOOTH",
"1048 370 OFFCURVE",
"968 312 OFFCURVE",
"818 312 CURVE SMOOTH",
"790 312 OFFCURVE",
"768 314 OFFCURVE",
"700 324 CURVE",
"700 -12 LINE",
"746 -12 OFFCURVE",
"780 -16 OFFCURVE",
"832 -16 CURVE SMOOTH"
);
}
);
width = 1454;
},
{
layerId = "FD1CEFBD-BAB1-4C2A-A598-30E93F9A29F6";
paths = (
{
closed = 1;
nodes = (
"1050 -16 OFFCURVE",
"1270 176 OFFCURVE",
"1270 466 CURVE SMOOTH",
"1270 714 OFFCURVE",
"1106 902 OFFCURVE",
"812 910 CURVE",
"844 828 LINE",
"1086 1384 LINE",
"1086 1410 LINE",
"964 1462 OFFCURVE",
"792 1492 OFFCURVE",
"648 1490 CURVE SMOOTH",
"336 1492 OFFCURVE",
"164 1352 OFFCURVE",
"164 1086 CURVE SMOOTH",
"164 0 LINE",
"344 0 LINE",
"344 1074 LINE SMOOTH",
"344 1238 OFFCURVE",
"446 1326 OFFCURVE",
"656 1326 CURVE SMOOTH",
"758 1326 OFFCURVE",
"864 1304 OFFCURVE",
"902 1282 CURVE",
"890 1344 LINE",
"674 820 LINE",
"674 774 LINE",
"742 774 LINE SMOOTH",
"964 774 OFFCURVE",
"1090 656 OFFCURVE",
"1090 472 CURVE SMOOTH",
"1090 284 OFFCURVE",
"954 148 OFFCURVE",
"750 148 CURVE SMOOTH",
"714 148 OFFCURVE",
"668 152 OFFCURVE",
"582 176 CURVE",
"582 8 LINE",
"624 -8 OFFCURVE",
"692 -16 OFFCURVE",
"754 -16 CURVE SMOOTH"
);
}
);
width = 1378;
}
);
leftKerningGroup = LAT_GERMANDBLS_UC;
rightKerningGroup = LAT_GERMANDBLS_UC;
rightMetricsKey = B;
unicode = 1E9E;
},
{
glyphname = Schwa;
lastChange = "2021-01-26 06:06:25 +0000";
layers = (
{
anchors = (
{
name = bottom;
position = "{758, 0}";
},
{
name = top;
position = "{758, 1474}";
}
);
layerId = "AB099EFE-E788-4EFC-8633-CF147CB782A6";
paths = (
{
closed = 1;
nodes = (
"1124 -16 OFFCURVE",
"1424 308 OFFCURVE",
"1424 738 CURVE SMOOTH",
"1424 1172 OFFCURVE",
"1136 1490 OFFCURVE",
"724 1490 CURVE SMOOTH",
"524 1490 OFFCURVE",
"360 1418 OFFCURVE",
"262 1336 CURVE",
"288 1272 LINE",
"386 1370 OFFCURVE",
"546 1430 OFFCURVE",
"720 1430 CURVE SMOOTH",
"1092 1430 OFFCURVE",
"1362 1130 OFFCURVE",
"1362 736 CURVE SMOOTH",
"1362 330 OFFCURVE",
"1078 44 OFFCURVE",
"728 44 CURVE SMOOTH",
"370 44 OFFCURVE",
"186 340 OFFCURVE",
"186 698 CURVE",
"1400 698 LINE",
"1400 758 LINE",
"122 758 LINE",
"122 704 LINE SMOOTH",
"122 270 OFFCURVE",
"356 -16 OFFCURVE",
"728 -16 CURVE SMOOTH"
);
}
);
width = 1546;
},
{
anchors = (
{
name = bottom;
position = "{746, 0}";
},
{
name = top;
position = "{754, 1474}";
}
);
layerId = "2D8F7115-C311-411E-929D-56333CF7FFB2";
paths = (
{
closed = 1;
nodes = (
"1200 -16 OFFCURVE",
"1524 304 OFFCURVE",
"1524 730 CURVE SMOOTH",
"1524 1188 OFFCURVE",
"1156 1492 OFFCURVE",
"724 1490 CURVE SMOOTH",
"574 1492 OFFCURVE",
"414 1454 OFFCURVE",
"274 1372 CURVE",
"414 1044 LINE",
"480 1106 OFFCURVE",
"590 1156 OFFCURVE",
"720 1156 CURVE SMOOTH",
"968 1156 OFFCURVE",
"1148 996 OFFCURVE",
"1146 738 CURVE SMOOTH",
"1148 496 OFFCURVE",
"988 312 OFFCURVE",
"738 312 CURVE SMOOTH",
"558 312 OFFCURVE",
"410 414 OFFCURVE",
"414 562 CURVE",
"1176 562 LINE",
"1176 866 LINE",
"66 866 LINE",
"66 638 LINE SMOOTH",
"66 246 OFFCURVE",
"336 -16 OFFCURVE",
"746 -16 CURVE SMOOTH"
);
}
);
width = 1556;
},
{
anchors = (
{
name = bottom;
position = "{734, 0}";
},
{
name = top;
position = "{750, 1474}";
}
);
layerId = "FD1CEFBD-BAB1-4C2A-A598-30E93F9A29F6";
paths = (
{
closed = 1;
nodes = (
"1126 -16 OFFCURVE",
"1442 288 OFFCURVE",
"1442 736 CURVE SMOOTH",
"1442 1136 OFFCURVE",
"1182 1490 OFFCURVE",
"706 1490 CURVE SMOOTH",
"518 1490 OFFCURVE",
"366 1434 OFFCURVE",
"246 1352 CURVE",
"316 1184 LINE",
"402 1270 OFFCURVE",
"550 1326 OFFCURVE",
"712 1326 CURVE SMOOTH",
"1036 1326 OFFCURVE",
"1262 1082 OFFCURVE",
"1262 742 CURVE SMOOTH",
"1262 390 OFFCURVE",
"1028 148 OFFCURVE",
"726 148 CURVE SMOOTH",
"434 148 OFFCURVE",
"270 374 OFFCURVE",
"270 638 CURVE",
"1324 638 LINE",
"1324 802 LINE",
"90 802 LINE",
"90 672 LINE SMOOTH",
"90 280 OFFCURVE",
"330 -16 OFFCURVE",
"726 -16 CURVE SMOOTH"
);
}
);
width = 1532;
}
);
leftKerningGroup = LAT_SCHWA_UC;
rightKerningGroup = LAT_O_UC;
rightMetricsKey = O;
unicode = 018F;
},
{
glyphname = T;
lastChange = "2021-01-27 10:43:48 +0000";
layers = (
{
anchors = (
{
name = bottom;
position = "{526, 0}";
},
{
name = cedilla;
position = "{526, 0}";
},
{
name = center;
position = "{526, 738}";
},
{
name = top;
position = "{526, 1474}";
}
);
layerId = "AB099EFE-E788-4EFC-8633-CF147CB782A6";
paths = (
{
closed = 1;
nodes = (
"558 0 LINE",
"558 1432 LINE",
"494 1432 LINE",
"494 0 LINE"
);
},
{
closed = 1;
nodes = (
"976 1414 LINE",
"976 1474 LINE",
"74 1474 LINE",
"74 1414 LINE"
);
}
);
width = 1050;
},
{
anchors = (
{
name = bottom;
position = "{564, 0}";
},
{
name = cedilla;
position = "{564, 0}";
},
{
name = center;
position = "{564, 672}";
},
{
name = top;
position = "{564, 1474}";
}
);
layerId = "2D8F7115-C311-411E-929D-56333CF7FFB2";
paths = (
{
closed = 1;
nodes = (
"748 0 LINE",
"748 1196 LINE",
"380 1196 LINE",
"380 0 LINE"
);
},
{
closed = 1;
nodes = (
"1096 1146 LINE",
"1096 1474 LINE",
"32 1474 LINE",
"32 1146 LINE"
);
}
);
width = 1128;
},
{
anchors = (
{
name = bottom;
position = "{544, 0}";
},
{
name = cedilla;
position = "{536, 0}";
},
{
name = center;
position = "{544, 712}";
},
{
name = top;
position = "{544, 1474}";
}
);
layerId = "FD1CEFBD-BAB1-4C2A-A598-30E93F9A29F6";
paths = (
{
closed = 1;
nodes = (
"634 0 LINE",
"634 1344 LINE",
"454 1344 LINE",
"454 0 LINE"
);
},
{
closed = 1;
nodes = (
"1028 1310 LINE",
"1028 1474 LINE",
"62 1474 LINE",
"62 1310 LINE"
);
}
);
width = 1090;
}
);
leftKerningGroup = LAT_T_UC;
rightKerningGroup = LAT_T_UC;
unicode = 0054;
},
{
glyphname = U;
lastChange = "2021-01-27 10:43:21 +0000";
layers = (
{
anchors = (
{
name = bottom;
position = "{688, 0}";
},
{
name = horn;
position = "{1136, 1474}";
},
{
name = ogonek;
position = "{820, 0}";
},
{
name = top;
position = "{688, 1474}";
}
);
layerId = "AB099EFE-E788-4EFC-8633-CF147CB782A6";
paths = (
{
closed = 1;
nodes = (
"204 176 OFFCURVE",
"398 -16 OFFCURVE",
"688 -16 CURVE SMOOTH",
"982 -16 OFFCURVE",
"1170 176 OFFCURVE",
"1170 476 CURVE SMOOTH",
"1170 1474 LINE",
"1106 1474 LINE",
"1106 492 LINE SMOOTH",
"1106 218 OFFCURVE",
"942 44 OFFCURVE",
"688 44 CURVE SMOOTH",
"436 44 OFFCURVE",
"268 218 OFFCURVE",
"268 492 CURVE SMOOTH",
"268 1474 LINE",
"204 1474 LINE",
"204 476 LINE SMOOTH"
);
}
);
width = 1374;
},
{
anchors = (
{
name = bottom;
position = "{722, 0}";
},
{
name = horn;
position = "{1230, 1474}";
},
{
name = ogonek;
position = "{862, 0}";
},
{
name = top;
position = "{722, 1474}";
}
);
layerId = "2D8F7115-C311-411E-929D-56333CF7FFB2";
paths = (
{
closed = 1;
nodes = (
"124 222 OFFCURVE",
"358 -16 OFFCURVE",
"722 -16 CURVE SMOOTH",
"1088 -16 OFFCURVE",
"1320 222 OFFCURVE",
"1320 586 CURVE SMOOTH",
"1320 1474 LINE",
"952 1474 LINE",
"952 552 LINE SMOOTH",
"952 406 OFFCURVE",
"862 312 OFFCURVE",
"722 312 CURVE SMOOTH",
"588 312 OFFCURVE",
"492 402 OFFCURVE",
"492 552 CURVE SMOOTH",
"492 1474 LINE",
"124 1474 LINE",
"124 586 LINE SMOOTH"
);
}
);
width = 1444;
},
{
anchors = (
{
name = bottom;
position = "{700, 0}";
},
{
name = horn;
position = "{1172, 1474}";
},
{
name = ogonek;
position = "{836, 0}";
},
{
name = top;
position = "{700, 1474}";
}
);
layerId = "FD1CEFBD-BAB1-4C2A-A598-30E93F9A29F6";
paths = (
{
closed = 1;
nodes = (
"172 194 OFFCURVE",
"382 -16 OFFCURVE",
"700 -16 CURVE SMOOTH",
"1024 -16 OFFCURVE",
"1230 194 OFFCURVE",
"1228 516 CURVE SMOOTH",
"1228 1474 LINE",
"1048 1474 LINE",
"1048 516 LINE SMOOTH",
"1050 296 OFFCURVE",
"914 148 OFFCURVE",
"700 148 CURVE SMOOTH",
"492 148 OFFCURVE",
"352 296 OFFCURVE",
"352 516 CURVE SMOOTH",
"352 1474 LINE",
"172 1474 LINE",
"172 516 LINE SMOOTH"
);
}
);
width = 1400;
}
);
leftKerningGroup = LAT_U_UC;
leftMetricsKey = H;
rightKerningGroup = LAT_U_UC;
rightMetricsKey = H;
unicode = 0055;
},
{
glyphname = V;
lastChange = "2021-01-26 04:56:20 +0000";
layers = (
{
anchors = (
{
name = bottom;
position = "{704, 0}";
},
{
name = top;
position = "{696, 1474}";
}
);
layerId = "AB099EFE-E788-4EFC-8633-CF147CB782A6";
paths = (
{
closed = 1;
nodes = (
"728 0 LINE",
"1334 1474 LINE",
"1262 1474 LINE",
"910 600 LINE",
"704 78 LINE",
"696 78 LINE",
"490 600 LINE",
"138 1474 LINE",
"66 1474 LINE",
"672 0 LINE"
);
}
);
width = 1398;
},
{
anchors = (
{
name = bottom;
position = "{746, 0}";
},
{
name = top;
position = "{742, 1474}";
}
);
layerId = "2D8F7115-C311-411E-929D-56333CF7FFB2";
paths = (
{
closed = 1;
nodes = (
"902 0 LINE",
"1500 1474 LINE",
"1094 1474 LINE",
"880 898 LINE",
"746 496 LINE",
"738 496 LINE",
"598 898 LINE",
"386 1474 LINE",
"-16 1474 LINE",
"590 0 LINE"
);
}
);
width = 1482;
},
{
anchors = (
{
name = bottom;
position = "{716, 0}";
},
{
name = top;
position = "{708, 1474}";
}
);
associatedMasterId = "AB099EFE-E788-4EFC-8633-CF147CB782A6";
layerId = "0D7ABE1B-ED2C-477C-ADA0-3A50A773B746";
name = "{106}";
paths = (
{
closed = 1;
nodes = (
"798 0 LINE",
"1404 1474 LINE",
"1168 1474 LINE",
"892 750 LINE",
"716 312 LINE",
"708 312 LINE",
"528 750 LINE",
"254 1474 LINE",
"16 1474 LINE",
"626 0 LINE"
);
}
);
width = 1422;
},
{
anchors = (
{
name = bottom;
position = "{708, 0}";
},
{
name = top;
position = "{708, 1474}";
}
);
layerId = "FD1CEFBD-BAB1-4C2A-A598-30E93F9A29F6";
paths = (
{
closed = 1;
nodes = (
"782 0 LINE",
"1392 1474 LINE",
"1196 1474 LINE",
"898 712 LINE",
"712 258 LINE",
"704 258 LINE",
"520 712 LINE",
"222 1474 LINE",
"24 1474 LINE",
"634 0 LINE"
);
}
);
width = 1418;
}
);
leftKerningGroup = LAT_V_UC;
rightKerningGroup = LAT_V_UC;
unicode = 0056;
},
{
glyphname = W;
lastChange = "2021-01-26 05:02:06 +0000";
layers = (
{
anchors = (
{
name = bottom;
position = "{920, 0}";
},
{
name = top;
position = "{920, 1474}";
}
);
layerId = "AB099EFE-E788-4EFC-8633-CF147CB782A6";
paths = (
{
closed = 1;
nodes = (
"466 0 LINE",
"546 0 LINE",
"916 1248 LINE",
"924 1248 LINE",
"1294 0 LINE",
"1374 0 LINE",
"1774 1474 LINE",
"1706 1474 LINE",
"1382 268 LINE",
"1338 70 LINE",
"1330 70 LINE",
"942 1376 LINE",
"898 1376 LINE",
"510 70 LINE",
"502 70 LINE",
"458 268 LINE",
"134 1474 LINE",
"66 1474 LINE"
);
}
);
width = 1840;
},
{
anchors = (
{
name = bottom;
position = "{1020, 0}";
},
{
name = top;
position = "{1020, 1474}";
}
);
layerId = "2D8F7115-C311-411E-929D-56333CF7FFB2";
paths = (
{
closed = 1;
nodes = (
"426 0 LINE",
"720 0 LINE",
"1016 638 LINE",
"1024 638 LINE",
"1318 0 LINE",
"1618 0 LINE",
"2048 1474 LINE",
"1668 1474 LINE",
"1504 880 LINE",
"1418 512 LINE",
"1410 512 LINE",
"1094 1306 LINE",
"946 1306 LINE",
"630 512 LINE",
"622 512 LINE",
"536 880 LINE",
"376 1474 LINE",
"-8 1474 LINE"
);
}
);
width = 2040;
},
{
anchors = (
{
name = bottom;
position = "{950, 0}";
},
{
name = top;
position = "{950, 1474}";
}
);
layerId = "FD1CEFBD-BAB1-4C2A-A598-30E93F9A29F6";
paths = (
{
closed = 1;
nodes = (
"462 0 LINE",
"626 0 LINE",
"946 918 LINE",
"954 918 LINE",
"1274 0 LINE",
"1438 0 LINE",
"1868 1474 LINE",
"1684 1474 LINE",
"1446 614 LINE",
"1352 250 LINE",
"1344 250 LINE",
"988 1324 LINE",
"914 1324 LINE",
"558 250 LINE",
"548 250 LINE",
"454 614 LINE",
"218 1474 LINE",
"32 1474 LINE"
);
}
);
width = 1900;
}
);
leftKerningGroup = LAT_W_UC;
rightKerningGroup = LAT_W_UC;
unicode = 0057;
},
{
color = 9;
glyphname = W.ss03;
lastChange = "2021-01-26 04:56:20 +0000";
layers = (
{
anchors = (
{
name = bottom;
position = "{938, -50}";
},
{
name = top;
position = "{930, 1544}";
}
);
layerId = "AB099EFE-E788-4EFC-8633-CF147CB782A6";
paths = (
{
closed = 1;
nodes = (
"466 0 LINE",
"550 0 LINE",
"714 600 LINE",
"922 1352 LINE",
"930 1352 LINE",
"1134 600 LINE",
"1302 0 LINE",
"1382 0 LINE",
"1784 1474 LINE",
"1716 1474 LINE",
"1482 592 LINE",
"1348 78 LINE",
"1340 78 LINE",
"1198 592 LINE",
"952 1474 LINE",
"898 1474 LINE",
"652 592 LINE",
"512 78 LINE",
"504 78 LINE",
"366 592 LINE",
"134 1474 LINE",
"66 1474 LINE"
);
}
);
width = 1850;
},
{
anchors = (
{
name = bottom;
position = "{1008, -50}";
},
{
name = top;
position = "{1000, 1524}";
}
);
layerId = "2D8F7115-C311-411E-929D-56333CF7FFB2";
paths = (
{
closed = 1;
nodes = (
"360 0 LINE",
"716 0 LINE",
"884 484 LINE",
"1000 812 LINE",
"1008 812 LINE",
"1118 484 LINE",
"1290 0 LINE",
"1642 0 LINE",
"1986 1474 LINE",
"1610 1474 LINE",
"1500 884 LINE",
"1438 492 LINE",
"1426 492 LINE",
"1328 812 LINE",
"1106 1474 LINE",
"898 1474 LINE",
"680 816 LINE",
"578 492 LINE",
"570 492 LINE",
"504 884 LINE",
"398 1474 LINE",
"16 1474 LINE"
);
}
);
width = 2002;
},
{
anchors = (
{
name = bottom;
position = "{954, -12}";
},
{
name = top;
position = "{950, 1490}";
}
);
layerId = "FD1CEFBD-BAB1-4C2A-A598-30E93F9A29F6";
paths = (
{
closed = 1;
nodes = (
"450 0 LINE",
"622 0 LINE",
"766 480 LINE",
"946 1094 LINE",
"954 1094 LINE",
"1134 480 LINE",
"1278 0 LINE",
"1450 0 LINE",
"1860 1474 LINE",
"1680 1474 LINE",
"1466 688 LINE",
"1368 274 LINE",
"1360 274 LINE",
"1232 708 LINE",
"1004 1474 LINE",
"898 1474 LINE",
"668 708 LINE",
"540 274 LINE",
"532 274 LINE",
"434 688 LINE",
"226 1474 LINE",
"40 1474 LINE"
);
}
);
width = 1900;
}
);
leftKerningGroup = LAT_W_UC;
rightKerningGroup = LAT_W_UC;
},
{
glyphname = X;
lastChange = "2021-01-26 06:05:29 +0000";
layers = (
{
anchors = (
{
name = bottom;
position = "{638, 0}";
},
{
name = top;
position = "{638, 1474}";
}
);
layerId = "AB099EFE-E788-4EFC-8633-CF147CB782A6";
paths = (
{
closed = 1;
nodes = (
"174 0 LINE",
"634 690 LINE",
"646 690 LINE",
"678 730 LINE",
"678 738 LINE",
"1178 1474 LINE",
"1106 1474 LINE",
"642 784 LINE",
"630 784 LINE",
"598 742 LINE",
"598 734 LINE",
"98 0 LINE"
);
},
{
closed = 1;
nodes = (
"1178 0 LINE",
"678 734 LINE",
"678 742 LINE",
"646 784 LINE",
"634 784 LINE",
"170 1474 LINE",
"98 1474 LINE",
"598 738 LINE",
"598 730 LINE",
"630 690 LINE",
"642 690 LINE",
"1102 0 LINE"
);
}
);
width = 1276;
},
{
anchors = (
{
name = bottom;
position = "{746, 0}";
},
{
name = top;
position = "{746, 1474}";
}
);
layerId = "2D8F7115-C311-411E-929D-56333CF7FFB2";
paths = (
{
closed = 1;
nodes = (
"450 0 LINE",
"742 462 LINE",
"750 462 LINE",
"1000 738 LINE",
"1000 742 LINE",
"1466 1474 LINE",
"1036 1474 LINE",
"746 974 LINE",
"738 974 LINE",
"492 738 LINE",
"492 734 LINE",
"16 0 LINE"
);
},
{
closed = 1;
nodes = (
"1474 0 LINE",
"1000 734 LINE",
"1000 738 LINE",
"750 974 LINE",
"742 974 LINE",
"450 1474 LINE",
"24 1474 LINE",
"492 742 LINE",
"492 738 LINE",
"738 462 LINE",
"746 462 LINE",
"1036 0 LINE"
);
}
);
width = 1490;
},
{
anchors = (
{
name = bottom;
position = "{680, 0}";
},
{
name = top;
position = "{680, 1474}";
}
);
layerId = "FD1CEFBD-BAB1-4C2A-A598-30E93F9A29F6";
paths = (
{
closed = 1;
nodes = (
"282 0 LINE",
"676 602 LINE",
"688 602 LINE",
"798 734 LINE",
"798 742 LINE",
"1286 1474 LINE",
"1082 1474 LINE",
"684 860 LINE",
"672 860 LINE",
"562 742 LINE",
"562 734 LINE",
"66 0 LINE"
);
},
{
closed = 1;
nodes = (
"1294 0 LINE",
"798 734 LINE",
"798 742 LINE",
"688 860 LINE",
"676 860 LINE",
"278 1474 LINE",
"74 1474 LINE",
"562 742 LINE",
"562 734 LINE",
"672 602 LINE",
"684 602 LINE",
"1078 0 LINE"
);
}
);
width = 1360;
}
);
leftKerningGroup = LAT_X_UC;
rightKerningGroup = LAT_X_UC;
unicode = 0058;
},
{
glyphname = Y;
lastChange = "2021-01-27 10:41:38 +0000";
layers = (
{
anchors = (
{
name = bottom;
position = "{610, 0}";
},
{
name = top;
position = "{610, 1474}";
}
);
layerId = "AB099EFE-E788-4EFC-8633-CF147CB782A6";
paths = (
{
closed = 1;
nodes = (
"578 0 LINE",
"642 0 LINE",
"642 680 LINE",
"1154 1474 LINE",
"1082 1474 LINE",
"808 1042 LINE",
"614 748 LINE",
"606 748 LINE",
"412 1042 LINE",
"138 1474 LINE",
"66 1474 LINE",
"578 680 LINE"
);
}
);
width = 1220;
},
{
anchors = (
{
name = bottom;
position = "{676, 0}";
},
{
name = top;
position = "{676, 1474}";
}
);
layerId = "2D8F7115-C311-411E-929D-56333CF7FFB2";
paths = (
{
closed = 1;
nodes = (
"492 0 LINE",
"860 0 LINE",
"860 552 LINE",
"1368 1474 LINE",
"946 1474 LINE",
"816 1208 LINE",
"680 906 LINE",
"672 906 LINE",
"536 1208 LINE",
"406 1474 LINE",
"-16 1474 LINE",
"492 552 LINE"
);
}
);
width = 1352;
},
{
anchors = (
{
name = bottom;
position = "{638, 0}";
},
{
name = top;
position = "{638, 1474}";
}
);
layerId = "FD1CEFBD-BAB1-4C2A-A598-30E93F9A29F6";
paths = (
{
closed = 1;
nodes = (
"548 0 LINE",
"728 0 LINE",
"728 634 LINE",
"1242 1474 LINE",
"1036 1474 LINE",
"816 1106 LINE",
"644 812 LINE",
"634 812 LINE",
"462 1106 LINE",
"242 1474 LINE",
"36 1474 LINE",
"548 634 LINE"
);
}
);
width = 1278;
}
);
leftKerningGroup = LAT_Y_UC;
rightKerningGroup = LAT_Y_UC;
unicode = 0059;
},
{
glyphname = Z;
lastChange = "2021-01-26 11:00:16 +0000";
layers = (
{
anchors = (
{
name = bottom;
position = "{652, 0}";
},
{
name = top;
position = "{644, 1474}";
}
);
guideLines = (
{
angle = 58;
position = "{162, 112}";
}
);
layerId = "AB099EFE-E788-4EFC-8633-CF147CB782A6";
paths = (
{
closed = 1;
nodes = (
"140 0 LINE",
"1100 0 LINE",
"1100 60 LINE",
"228 60 LINE",
"228 64 LINE",
"1080 1438 LINE",
"1080 1474 LINE",
"192 1474 LINE",
"192 1414 LINE",
"992 1414 LINE",
"992 1410 LINE",
"140 36 LINE"
);
}
);
width = 1240;
},
{
anchors = (
{
name = bottom;
position = "{618, 0}";
},
{
name = top;
position = "{618, 1474}";
}
);
guideLines = (
{
angle = 63;
position = "{174, 112}";
}
);
layerId = "2D8F7115-C311-411E-929D-56333CF7FFB2";
paths = (
{
closed = 1;
nodes = (
"50 0 LINE",
"1188 0 LINE",
"1188 324 LINE",
"590 324 LINE",
"590 328 LINE",
"1172 1422 LINE",
"1172 1474 LINE",
"78 1474 LINE",
"78 1150 LINE",
"634 1150 LINE",
"634 1146 LINE",
"50 50 LINE"
);
}
);
width = 1236;
},
{
anchors = (
{
name = bottom;
position = "{638, 0}";
},
{
name = top;
position = "{634, 1474}";
}
);
layerId = "FD1CEFBD-BAB1-4C2A-A598-30E93F9A29F6";
paths = (
{
closed = 1;
nodes = (
"106 0 LINE",
"1134 0 LINE",
"1134 164 LINE",
"380 164 LINE",
"380 168 LINE",
"1122 1434 LINE",
"1122 1474 LINE",
"152 1474 LINE",
"152 1310 LINE",
"848 1310 LINE",
"848 1306 LINE",
"106 40 LINE"
);
}
);
width = 1242;
}
);
leftKerningGroup = LAT_Z_UC;
rightKerningGroup = LAT_Z_UC;
unicode = 005A;
},
{
glyphname = a;
lastChange = "2021-01-26 09:48:53 +0000";
layers = (
{
anchors = (
{
name = bottom;
position = "{508, 0}";
},
{
name = ogonek;
position = "{930, -16}";
},
{
name = top;
position = "{524, 1048}";
}
);
layerId = "AB099EFE-E788-4EFC-8633-CF147CB782A6";
paths = (
{
closed = 1;
nodes = (
"604 -16 OFFCURVE",
"734 78 OFFCURVE",
"798 188 CURVE",
"782 180 LINE",
"806 180 LINE",
"798 188 LINE",
"812 94 OFFCURVE",
"839 30 OFFCURVE",
"906 -4 CURVE SMOOTH",
"930 -16 LINE",
"952 38 LINE",
"944 42 LINE SMOOTH",
"896 66 OFFCURVE",
"858 130 OFFCURVE",
"858 232 CURVE SMOOTH",
"858 684 LINE SMOOTH",
"858 896 OFFCURVE",
"796 1064 OFFCURVE",
"524 1064 CURVE SMOOTH",
"422 1064 OFFCURVE",
"264 1014 OFFCURVE",
"184 950 CURVE",
"212 900 LINE",
"290 960 OFFCURVE",
"432 1008 OFFCURVE",
"520 1008 CURVE SMOOTH",
"746 1008 OFFCURVE",
"798 880 OFFCURVE",
"798 692 CURVE SMOOTH",
"798 562 LINE",
"798 552 LINE",
"798 360 LINE SMOOTH",
"798 194 OFFCURVE",
"618 40 OFFCURVE",
"442 40 CURVE SMOOTH",
"294 40 OFFCURVE",
"174 148 OFFCURVE",
"174 282 CURVE SMOOTH",
"174 438 OFFCURVE",
"328 550 OFFCURVE",
"622 550 CURVE SMOOTH",
"820 550 LINE",
"820 606 LINE",
"622 606 LINE SMOOTH",
"294 606 OFFCURVE",
"114 476 OFFCURVE",
"114 282 CURVE SMOOTH",
"114 112 OFFCURVE",
"258 -16 OFFCURVE",
"442 -16 CURVE SMOOTH"
);
}
);
width = 1058;
},
{
anchors = (
{
name = bottom;
position = "{544, 0}";
},
{
name = ogonek;
position = "{984, -16}";
},
{
name = top;
position = "{570, 1080}";
}
);
layerId = "2D8F7115-C311-411E-929D-56333CF7FFB2";
paths = (
{
closed = 1;
nodes = (
"578 -16 OFFCURVE",
"718 58 OFFCURVE",
"758 140 CURVE",
"652 118 LINE",
"812 118 LINE",
"724 180 LINE",
"738 112 OFFCURVE",
"812 36 OFFCURVE",
"942 -4 CURVE SMOOTH",
"984 -16 LINE",
"1106 278 LINE",
"1082 286 LINE SMOOTH",
"1040 302 OFFCURVE",
"1020 332 OFFCURVE",
"1020 398 CURVE SMOOTH",
"1020 712 LINE SMOOTH",
"1020 878 OFFCURVE",
"968 1098 OFFCURVE",
"552 1098 CURVE SMOOTH",
"344 1098 OFFCURVE",
"184 1040 OFFCURVE",
"106 996 CURVE",
"226 734 LINE",
"304 782 OFFCURVE",
"430 816 OFFCURVE",
"520 816 CURVE SMOOTH",
"606 816 OFFCURVE",
"684 782 OFFCURVE",
"684 708 CURVE SMOOTH",
"684 552 LINE",
"696 512 LINE",
"696 372 LINE SMOOTH",
"696 274 OFFCURVE",
"574 246 OFFCURVE",
"508 246 CURVE SMOOTH",
"438 246 OFFCURVE",
"386 284 OFFCURVE",
"386 340 CURVE SMOOTH",
"386 406 OFFCURVE",
"434 438 OFFCURVE",
"536 438 CURVE SMOOTH",
"738 438 LINE",
"738 652 LINE",
"462 652 LINE SMOOTH",
"206 652 OFFCURVE",
"42 508 OFFCURVE",
"40 312 CURVE SMOOTH",
"42 132 OFFCURVE",
"188 -16 OFFCURVE",
"410 -16 CURVE SMOOTH"
);
}
);
width = 1146;
},
{
anchors = (
{
name = bottom;
position = "{544, 0}";
},
{
name = ogonek;
position = "{962, -16}";
},
{
name = top;
position = "{558, 1074}";
}
);
associatedMasterId = "AB099EFE-E788-4EFC-8633-CF147CB782A6";
guideLines = (
{
angle = 67.5;
position = "{470, -8}";
}
);
layerId = "5A1ABFEF-EF5F-438D-8AA9-81A56DE78ADA";
name = "{140}";
paths = (
{
closed = 1;
nodes = (
"594 -16 OFFCURVE",
"737 66 OFFCURVE",
"782 156 CURVE",
"724 126 LINE",
"806 126 LINE",
"758 160 LINE",
"766 102 OFFCURVE",
"811 41 OFFCURVE",
"930 -4 CURVE SMOOTH",
"962 -16 LINE",
"1060 218 LINE",
"1036 226 LINE SMOOTH",
"987 242 OFFCURVE",
"975 279 OFFCURVE",
"974 360 CURVE SMOOTH",
"974 692 LINE SMOOTH",
"975 831 OFFCURVE",
"958 1090 OFFCURVE",
"562 1090 CURVE SMOOTH",
"381 1090 OFFCURVE",
"213 1036 OFFCURVE",
"132 988 CURVE",
"222 774 LINE",
"291 819 OFFCURVE",
"418 860 OFFCURVE",
"520 860 CURVE SMOOTH",
"659 860 OFFCURVE",
"713 786 OFFCURVE",
"712 688 CURVE SMOOTH",
"712 552 LINE",
"730 496 LINE",
"730 390 LINE SMOOTH",
"729 250 OFFCURVE",
"573 197 OFFCURVE",
"488 196 CURVE SMOOTH",
"393 197 OFFCURVE",
"324 242 OFFCURVE",
"324 324 CURVE SMOOTH",
"324 410 OFFCURVE",
"397 455 OFFCURVE",
"524 454 CURVE SMOOTH",
"766 454 LINE",
"766 638 LINE",
"532 638 LINE SMOOTH",
"221 639 OFFCURVE",
"61 504 OFFCURVE",
"62 312 CURVE SMOOTH",
"61 127 OFFCURVE",
"209 -16 OFFCURVE",
"426 -16 CURVE SMOOTH"
);
}
);
width = 1116;
},
{
anchors = (
{
name = bottom;
position = "{534, 0}";
},
{
name = ogonek;
position = "{940, -16}";
},
{
name = top;
position = "{542, 1060}";
}
);
layerId = "FD1CEFBD-BAB1-4C2A-A598-30E93F9A29F6";
paths = (
{
closed = 1;
nodes = (
"604 -16 OFFCURVE",
"736 70 OFFCURVE",
"788 176 CURVE",
"744 148 LINE",
"810 148 LINE",
"776 160 LINE",
"776 98 OFFCURVE",
"837 28 OFFCURVE",
"912 -4 CURVE SMOOTH",
"940 -16 LINE",
"1006 140 LINE",
"986 148 LINE SMOOTH",
"936 168 OFFCURVE",
"920 218 OFFCURVE",
"920 308 CURVE SMOOTH",
"920 680 LINE SMOOTH",
"920 890 OFFCURVE",
"838 1078 OFFCURVE",
"550 1078 CURVE SMOOTH",
"416 1078 OFFCURVE",
"264 1036 OFFCURVE",
"158 974 CURVE",
"224 820 LINE",
"306 878 OFFCURVE",
"436 918 OFFCURVE",
"534 918 CURVE SMOOTH",
"756 918 OFFCURVE",
"756 746 OFFCURVE",
"756 676 CURVE SMOOTH",
"756 558 LINE",
"760 496 LINE",
"760 386 LINE SMOOTH",
"760 222 OFFCURVE",
"588 132 OFFCURVE",
"456 132 CURVE SMOOTH",
"346 132 OFFCURVE",
"256 194 OFFCURVE",
"256 300 CURVE SMOOTH",
"256 456 OFFCURVE",
"428 492 OFFCURVE",
"584 492 CURVE SMOOTH",
"792 492 LINE",
"792 630 LINE",
"572 630 LINE SMOOTH",
"240 630 OFFCURVE",
"88 492 OFFCURVE",
"88 300 CURVE SMOOTH",
"88 102 OFFCURVE",
"240 -16 OFFCURVE",
"436 -16 CURVE SMOOTH"
);
}
);
width = 1082;
}
);
leftKerningGroup = LAT_ASS02_LC;
rightKerningGroup = LAT_A_LC;
rightMetricsKey = u;
unicode = 0061;
},
{
color = 4;
glyphname = a.ss01;
lastChange = "2021-01-26 10:58:19 +0000";
layers = (
{
anchors = (
{
name = bottom;
position = "{612, 0}";
},
{
name = center;
position = "{636, 524}";
},
{
name = ogonek;
position = "{1104, 0}";
},
{
name = top;
position = "{636, 1048}";
},
{
name = topright;
position = "{1252, 1048}";
}
);
components = (
{
alignment = -1;
name = _part.bowl.ss01;
transform = "{-1, 0, 0, 1, 1280, 0}";
}
);
layerId = "AB099EFE-E788-4EFC-8633-CF147CB782A6";
paths = (
{
closed = 1;
nodes = (
"1104 0 LINE",
"1104 1048 LINE",
"1044 1048 LINE",
"1044 810 LINE",
"1024 810 LINE",
"1048 760 LINE",
"1048 288 LINE",
"1020 240 LINE",
"1044 240 LINE",
"1044 0 LINE"
);
}
);
width = 1264;
},
{
anchors = (
{
name = bottom;
position = "{664, 0}";
},
{
name = center;
position = "{660, 540}";
},
{
name = ogonek;
position = "{1188, 0}";
},
{
name = top;
position = "{676, 1080}";
},
{
name = topright;
position = "{1278, 1080}";
}
);
components = (
{
alignment = -1;
name = _part.bowl.ss01;
transform = "{-1, 0, 0, 1, 1310, 0}";
}
);
layerId = "2D8F7115-C311-411E-929D-56333CF7FFB2";
paths = (
{
closed = 1;
nodes = (
"1188 0 LINE",
"1188 1082 LINE",
"852 1082 LINE",
"852 966 LINE",
"812 966 LINE",
"856 860 LINE",
"856 180 LINE",
"820 122 LINE",
"852 122 LINE",
"852 0 LINE"
);
}
);
width = 1282;
},
{
anchors = (
{
name = bottom;
position = "{628, 0}";
},
{
name = center;
position = "{642, 536}";
},
{
name = ogonek;
position = "{1132, 0}";
},
{
name = top;
position = "{650, 1060}";
},
{
name = topright;
position = "{1244, 1060}";
}
);
components = (
{
alignment = -1;
name = _part.bowl.ss01;
transform = "{-1, 0, 0, 1, 1284, 0}";
}
);
layerId = "FD1CEFBD-BAB1-4C2A-A598-30E93F9A29F6";
paths = (
{
closed = 1;
nodes = (
"1132 0 LINE",
"1132 1060 LINE",
"960 1060 LINE",
"960 910 LINE",
"932 910 LINE",
"976 852 LINE",
"976 208 LINE",
"932 152 LINE",
"960 152 LINE",
"960 0 LINE"
);
}
);
width = 1270;
}
);
leftKerningGroup = LAT_O_LC;
leftMetricsKey = o;
rightKerningGroup = LAT_ASS01_LC;
},
{
color = 6;
glyphname = a.ss02;
lastChange = "2021-01-26 09:48:34 +0000";
layers = (
{
anchors = (
{
name = bottom;
position = "{592, 0}";
},
{
name = ogonek;
position = "{1104, -16}";
},
{
name = top;
position = "{592, 1048}";
},
{
name = topright;
position = "{1162, 1048}";
}
);
components = (
{
name = _part.bowl;
transform = "{-1, 0, 0, 1, 1206, 0}";
}
);
layerId = "AB099EFE-E788-4EFC-8633-CF147CB782A6";
paths = (
{
closed = 1;
nodes = (
"1128 38 LINE",
"1060 72 OFFCURVE",
"1034 116 OFFCURVE",
"1034 220 CURVE SMOOTH",
"1034 1048 LINE",
"974 1048 LINE",
"974 834 LINE",
"950 834 LINE",
"978 748 LINE",
"978 294 LINE",
"954 222 LINE",
"980 222 LINE",
"974 234 LINE",
"976 90 OFFCURVE",
"1010 40 OFFCURVE",
"1104 -16 CURVE"
);
}
);
width = 1234;
},
{
anchors = (
{
name = bottom;
position = "{616, 0}";
},
{
name = ogonek;
position = "{1116, -16}";
},
{
name = top;
position = "{616, 1080}";
},
{
name = topright;
position = "{1226, 1080}";
}
);
components = (
{
name = _part.bowl;
transform = "{-1, 0, 0, 1, 1272, 0}";
}
);
layerId = "2D8F7115-C311-411E-929D-56333CF7FFB2";
paths = (
{
closed = 1;
nodes = (
"1240 278 LINE",
"1170 304 OFFCURVE",
"1154 318 OFFCURVE",
"1154 418 CURVE SMOOTH",
"1154 1080 LINE",
"818 1080 LINE",
"818 982 LINE",
"768 982 LINE",
"818 886 LINE",
"818 274 LINE",
"776 144 LINE",
"866 144 LINE",
"846 160 LINE",
"878 74 OFFCURVE",
"982 18 OFFCURVE",
"1116 -16 CURVE"
);
}
);
width = 1280;
},
{
anchors = (
{
name = bottom;
position = "{608, 0}";
},
{
name = ogonek;
position = "{1088, -16}";
},
{
name = top;
position = "{620, 1060}";
},
{
name = topright;
position = "{1186, 1060}";
}
);
components = (
{
alignment = -1;
name = _part.bowl;
transform = "{-1, 0, 0, 1, 1218, 0}";
}
);
layerId = "FD1CEFBD-BAB1-4C2A-A598-30E93F9A29F6";
paths = (
{
closed = 1;
nodes = (
"1154 140 LINE",
"1084 168 OFFCURVE",
"1068 206 OFFCURVE",
"1068 300 CURVE SMOOTH",
"1068 1060 LINE",
"896 1060 LINE",
"896 928 LINE",
"838 928 LINE",
"924 824 LINE",
"924 290 LINE",
"870 164 LINE",
"968 164 LINE",
"916 196 LINE",
"924 86 OFFCURVE",
"986 34 OFFCURVE",
"1088 -16 CURVE"
);
}
);
width = 1230;
}
);
leftKerningGroup = LAT_O_LC;
leftMetricsKey = o;
rightKerningGroup = LAT_A_LC;
rightMetricsKey = u;
},
{
glyphname = ae;
lastChange = "2021-01-26 10:30:37 +0000";
layers = (
{
anchors = (
{
name = bottom;
position = "{840, 0}";
},
{
name = top;
position = "{822, 1048}";
}
);
layerId = "AB099EFE-E788-4EFC-8633-CF147CB782A6";
paths = (
{
closed = 1;
nodes = (
"644 -16 OFFCURVE",
"786 122 OFFCURVE",
"830 294 CURVE",
"820 294 LINE",
"884 102 OFFCURVE",
"1026 -16 OFFCURVE",
"1228 -16 CURVE SMOOTH",
"1370 -16 OFFCURVE",
"1496 46 OFFCURVE",
"1576 118 CURVE",
"1552 174 LINE",
"1472 104 OFFCURVE",
"1360 40 OFFCURVE",
"1230 40 CURVE SMOOTH",
"1006 40 OFFCURVE",
"842 232 OFFCURVE",
"842 538 CURVE SMOOTH",
"842 836 OFFCURVE",
"998 1008 OFFCURVE",
"1214 1008 CURVE SMOOTH",
"1440 1008 OFFCURVE",
"1574 824 OFFCURVE",
"1568 570 CURVE",
"830 570 LINE",
"830 514 LINE",
"1630 514 LINE",
"1632 530 OFFCURVE",
"1634 555 OFFCURVE",
"1634 572 CURVE SMOOTH",
"1634 872 OFFCURVE",
"1462 1064 OFFCURVE",
"1210 1064 CURVE SMOOTH",
"1034 1064 OFFCURVE",
"892 968 OFFCURVE",
"824 780 CURVE",
"838 780 LINE",
"818 952 OFFCURVE",
"730 1064 OFFCURVE",
"528 1064 CURVE SMOOTH",
"396 1064 OFFCURVE",
"256 1016 OFFCURVE",
"172 950 CURVE",
"200 900 LINE",
"282 964 OFFCURVE",
"410 1008 OFFCURVE",
"524 1008 CURVE SMOOTH",
"782 1008 OFFCURVE",
"782 786 OFFCURVE",
"782 694 CURVE SMOOTH",
"782 398 LINE SMOOTH",
"782 158 OFFCURVE",
"594 40 OFFCURVE",
"432 40 CURVE SMOOTH",
"284 40 OFFCURVE",
"174 138 OFFCURVE",
"174 274 CURVE SMOOTH",
"174 426 OFFCURVE",
"312 514 OFFCURVE",
"598 514 CURVE SMOOTH",
"798 514 LINE",
"798 570 LINE",
"606 570 LINE SMOOTH",
"290 570 OFFCURVE",
"114 472 OFFCURVE",
"114 274 CURVE SMOOTH",
"114 98 OFFCURVE",
"250 -16 OFFCURVE",
"438 -16 CURVE SMOOTH"
);
}
);
width = 1744;
},
{
anchors = (
{
name = bottom;
position = "{856, 0}";
},
{
name = top;
position = "{864, 1080}";
}
);
background = {
components = (
{
name = a;
transform = "{0.99782, 0, 0, 1, 0, 0}";
},
{
name = e;
transform = "{0.94969, 0, 0, 1, 678, 0}";
}
);
};
layerId = "2D8F7115-C311-411E-929D-56333CF7FFB2";
paths = (
{
closed = 1;
nodes = (
"696 -16 OFFCURVE",
"856 136 OFFCURVE",
"872 226 CURVE",
"786 226 LINE",
"868 82 OFFCURVE",
"1016 -16 OFFCURVE",
"1220 -16 CURVE SMOOTH",
"1356 -16 OFFCURVE",
"1500 20 OFFCURVE",
"1568 70 CURVE",
"1462 328 LINE",
"1394 280 OFFCURVE",
"1320 254 OFFCURVE",
"1236 254 CURVE SMOOTH",
"1152 254 OFFCURVE",
"954 284 OFFCURVE",
"954 552 CURVE SMOOTH",
"954 774 OFFCURVE",
"1090 836 OFFCURVE",
"1184 836 CURVE SMOOTH",
"1294 836 OFFCURVE",
"1372 750 OFFCURVE",
"1372 644 CURVE",
"918 644 LINE",
"934 442 LINE",
"1658 442 LINE",
"1668 484 OFFCURVE",
"1672 524 OFFCURVE",
"1672 574 CURVE SMOOTH",
"1672 964 OFFCURVE",
"1414 1096 OFFCURVE",
"1204 1096 CURVE SMOOTH",
"1054 1096 OFFCURVE",
"856 1024 OFFCURVE",
"820 902 CURVE",
"926 902 LINE",
"882 1008 OFFCURVE",
"774 1096 OFFCURVE",
"528 1096 CURVE SMOOTH",
"332 1096 OFFCURVE",
"180 1040 OFFCURVE",
"106 996 CURVE",
"218 734 LINE",
"280 778 OFFCURVE",
"398 824 OFFCURVE",
"520 824 CURVE SMOOTH",
"722 824 OFFCURVE",
"696 706 OFFCURVE",
"696 622 CURVE SMOOTH",
"696 418 LINE SMOOTH",
"696 308 OFFCURVE",
"624 238 OFFCURVE",
"512 238 CURVE SMOOTH",
"434 238 OFFCURVE",
"382 270 OFFCURVE",
"380 336 CURVE SMOOTH",
"382 438 OFFCURVE",
"500 442 OFFCURVE",
"532 442 CURVE SMOOTH",
"734 442 LINE",
"734 644 LINE",
"458 644 LINE SMOOTH",
"206 644 OFFCURVE",
"42 516 OFFCURVE",
"40 324 CURVE SMOOTH",
"42 148 OFFCURVE",
"184 -16 OFFCURVE",
"438 -16 CURVE SMOOTH"
);
}
);
width = 1712;
},
{
anchors = (
{
name = bottom;
position = "{862, 0}";
},
{
name = top;
position = "{858, 1060}";
}
);
layerId = "FD1CEFBD-BAB1-4C2A-A598-30E93F9A29F6";
paths = (
{
closed = 1;
nodes = (
"686 -16 OFFCURVE",
"826 120 OFFCURVE",
"874 246 CURVE",
"830 246 LINE",
"912 86 OFFCURVE",
"1038 -16 OFFCURVE",
"1244 -16 CURVE SMOOTH",
"1378 -16 OFFCURVE",
"1510 34 OFFCURVE",
"1588 102 CURVE",
"1526 250 LINE",
"1452 180 OFFCURVE",
"1350 140 OFFCURVE",
"1240 140 CURVE SMOOTH",
"1052 140 OFFCURVE",
"916 276 OFFCURVE",
"916 536 CURVE SMOOTH",
"916 792 OFFCURVE",
"1048 920 OFFCURVE",
"1214 920 CURVE SMOOTH",
"1396 920 OFFCURVE",
"1498 786 OFFCURVE",
"1494 610 CURVE",
"890 610 LINE",
"890 470 LINE",
"1648 470 LINE",
"1654 495 OFFCURVE",
"1656 525 OFFCURVE",
"1656 568 CURVE SMOOTH",
"1656 892 OFFCURVE",
"1474 1076 OFFCURVE",
"1222 1076 CURVE SMOOTH",
"1068 1076 OFFCURVE",
"924 1002 OFFCURVE",
"842 864 CURVE",
"886 864 LINE",
"850 990 OFFCURVE",
"752 1076 OFFCURVE",
"538 1076 CURVE SMOOTH",
"392 1076 OFFCURVE",
"232 1032 OFFCURVE",
"154 974 CURVE",
"216 828 LINE",
"278 882 OFFCURVE",
"420 920 OFFCURVE",
"534 920 CURVE SMOOTH",
"760 920 OFFCURVE",
"764 774 OFFCURVE",
"764 614 CURVE SMOOTH",
"764 390 LINE SMOOTH",
"764 238 OFFCURVE",
"616 140 OFFCURVE",
"470 140 CURVE SMOOTH",
"350 140 OFFCURVE",
"260 198 OFFCURVE",
"260 304 CURVE SMOOTH",
"260 410 OFFCURVE",
"350 470 OFFCURVE",
"548 470 CURVE SMOOTH",
"792 470 LINE",
"792 610 LINE",
"548 610 LINE SMOOTH",
"264 610 OFFCURVE",
"88 500 OFFCURVE",
"88 300 CURVE SMOOTH",
"88 106 OFFCURVE",
"248 -16 OFFCURVE",
"460 -16 CURVE SMOOTH"
);
}
);
width = 1744;
}
);
leftKerningGroup = LAT_ASS02_LC;
leftMetricsKey = a;
rightKerningGroup = LAT_E_LC;
rightMetricsKey = e;
unicode = 00E6;
},
{
glyphname = b;
lastChange = "2021-01-26 09:48:34 +0000";
layers = (
{
anchors = (
{
name = bottom;
position = "{606, 0}";
},
{
name = center;
position = "{198, 1262}";
},
{
name = top;
position = "{654, 1156}";
}
);
components = (
{
name = _part.bowl;
}
);
layerId = "AB099EFE-E788-4EFC-8633-CF147CB782A6";
paths = (
{
closed = 1;
nodes = (
"172 0 LINE",
"232 0 LINE",
"232 224 LINE",
"264 224 LINE",
"220 312 LINE",
"220 728 LINE",
"252 834 LINE",
"232 834 LINE",
"232 1540 LINE",
"172 1540 LINE"
);
}
);
width = 1206;
},
{
anchors = (
{
name = bottom;
position = "{630, 0}";
},
{
name = center;
position = "{266, 1298}";
},
{
name = top;
position = "{782, 1164}";
}
);
components = (
{
name = _part.bowl;
transform = "{1, 0, 0, 1, -24, 0}";
}
);
layerId = "2D8F7115-C311-411E-929D-56333CF7FFB2";
paths = (
{
closed = 1;
nodes = (
"90 0 LINE",
"426 0 LINE",
"426 114 LINE",
"472 114 LINE",
"426 226 LINE",
"426 816 LINE",
"472 1000 LINE",
"446 1000 LINE",
"446 1540 LINE",
"90 1540 LINE"
);
}
);
width = 1248;
},
{
anchors = (
{
name = bottom;
position = "{612, 0}";
},
{
name = center;
position = "{224, 1278}";
},
{
name = top;
position = "{698, 1160}";
}
);
components = (
{
alignment = -1;
name = _part.bowl;
transform = "{1, 0, 0, 1, -10, 0}";
}
);
layerId = "FD1CEFBD-BAB1-4C2A-A598-30E93F9A29F6";
paths = (
{
closed = 1;
nodes = (
"138 0 LINE",
"310 0 LINE",
"310 144 LINE",
"342 144 LINE",
"284 246 LINE",
"284 816 LINE",
"326 926 LINE",
"310 926 LINE",
"310 1540 LINE",
"138 1540 LINE"
);
}
);
width = 1208;
}
);
leftKerningGroup = LAT_H_UC;
leftMetricsKey = h;
rightKerningGroup = LAT_O_LC;
rightMetricsKey = o;
unicode = 0062;
},
{
color = 4;
glyphname = b.ss01;
lastChange = "2021-01-26 09:48:34 +0000";
layers = (
{
anchors = (
{
name = bottom;
position = "{610, 0}";
},
{
name = center;
position = "{202, 1262}";
},
{
name = top;
position = "{658, 1156}";
}
);
components = (
{
name = _part.bowl.ss01;
transform = "{1, 0, 0, 1, -4, 0}";
}
);
layerId = "AB099EFE-E788-4EFC-8633-CF147CB782A6";
paths = (
{
closed = 1;
nodes = (
"172 0 LINE",
"232 0 LINE",
"232 240 LINE",
"252 240 LINE",
"228 272 LINE",
"228 744 LINE",
"244 804 LINE",
"232 804 LINE",
"232 1540 LINE",
"172 1540 LINE"
);
}
);
width = 1276;
},
{
anchors = (
{
name = bottom;
position = "{630, 0}";
},
{
name = center;
position = "{266, 1298}";
},
{
name = top;
position = "{782, 1164}";
}
);
components = (
{
name = _part.bowl.ss01;
transform = "{1, 0, 0, 1, -36, 0}";
}
);
layerId = "2D8F7115-C311-411E-929D-56333CF7FFB2";
paths = (
{
closed = 1;
nodes = (
"90 0 LINE",
"426 0 LINE",
"426 122 LINE",
"472 122 LINE",
"418 226 LINE",
"418 816 LINE",
"472 992 LINE",
"446 992 LINE",
"446 1540 LINE",
"90 1540 LINE"
);
}
);
width = 1274;
},
{
anchors = (
{
name = bottom;
position = "{616, 0}";
},
{
name = center;
position = "{224, 1278}";
},
{
name = top;
position = "{698, 1160}";
}
);
components = (
{
alignment = -1;
name = _part.bowl.ss01;
transform = "{1, 0, 0, 1, -10, 0}";
}
);
layerId = "FD1CEFBD-BAB1-4C2A-A598-30E93F9A29F6";
paths = (
{
closed = 1;
nodes = (
"138 0 LINE",
"310 0 LINE",
"310 156 LINE",
"334 156 LINE",
"306 212 LINE",
"306 806 LINE",
"330 910 LINE",
"310 910 LINE",
"310 1540 LINE",
"138 1540 LINE"
);
}
);
width = 1274;
}
);
leftKerningGroup = LAT_L_LC;
leftMetricsKey = h;
rightKerningGroup = LAT_O_LC;
rightMetricsKey = o;
},
{
glyphname = c;
lastChange = "2021-01-26 10:55:52 +0000";
layers = (
{
anchors = (
{
name = base;
position = "{830, 0}";
},
{
name = bottom;
position = "{592, 0}";
},
{
name = cedilla;
position = "{608, 0}";
},
{
name = top;
position = "{592, 1048}";
}
);
layerId = "AB099EFE-E788-4EFC-8633-CF147CB782A6";
paths = (
{
closed = 1;
nodes = (
"734 -12 OFFCURVE",
"854 30 OFFCURVE",
"944 106 CURVE",
"916 166 LINE",
"858 100 OFFCURVE",
"742 44 OFFCURVE",
"616 44 CURVE SMOOTH",
"378 44 OFFCURVE",
"176 254 OFFCURVE",
"176 528 CURVE SMOOTH",
"176 808 OFFCURVE",
"390 1008 OFFCURVE",
"620 1008 CURVE SMOOTH",
"706 1008 OFFCURVE",
"842 974 OFFCURVE",
"912 900 CURVE",
"940 958 LINE",
"854 1024 OFFCURVE",
"728 1064 OFFCURVE",
"620 1064 CURVE SMOOTH",
"358 1064 OFFCURVE",
"116 842 OFFCURVE",
"116 528 CURVE SMOOTH",
"116 218 OFFCURVE",
"346 -12 OFFCURVE",
"612 -12 CURVE SMOOTH"
);
}
);
userData = {
RMXScaler = {
height = 71.5;
weight = 20;
width = 77;
};
};
width = 1034;
},
{
anchors = (
{
name = base;
position = "{852, 0}";
},
{
name = bottom;
position = "{618, 0}";
},
{
name = cedilla;
position = "{630, 0}";
},
{
name = top;
position = "{630, 1080}";
}
);
layerId = "2D8F7115-C311-411E-929D-56333CF7FFB2";
paths = (
{
closed = 1;
nodes = (
"762 -12 OFFCURVE",
"878 26 OFFCURVE",
"954 70 CURVE",
"828 360 LINE",
"794 328 OFFCURVE",
"708 292 OFFCURVE",
"626 292 CURVE SMOOTH",
"482 292 OFFCURVE",
"376 406 OFFCURVE",
"376 546 CURVE SMOOTH",
"376 672 OFFCURVE",
"464 792 OFFCURVE",
"630 792 CURVE SMOOTH",
"710 792 OFFCURVE",
"770 764 OFFCURVE",
"824 714 CURVE",
"954 998 LINE",
"860 1060 OFFCURVE",
"742 1096 OFFCURVE",
"620 1096 CURVE SMOOTH",
"300 1096 OFFCURVE",
"40 850 OFFCURVE",
"40 544 CURVE SMOOTH",
"42 230 OFFCURVE",
"308 -12 OFFCURVE",
"634 -12 CURVE SMOOTH"
);
}
);
userData = {
RMXScaler = {
height = 73.5;
weight = -50;
width = 73;
};
};
width = 970;
},
{
anchors = (
{
name = base;
position = "{830, 0}";
},
{
name = bottom;
position = "{592, 0}";
},
{
name = cedilla;
position = "{608, 0}";
},
{
name = top;
position = "{596, 1060}";
}
);
layerId = "FD1CEFBD-BAB1-4C2A-A598-30E93F9A29F6";
paths = (
{
closed = 1;
nodes = (
"744 -12 OFFCURVE",
"862 34 OFFCURVE",
"940 94 CURVE",
"874 242 LINE",
"818 188 OFFCURVE",
"720 148 OFFCURVE",
"612 148 CURVE SMOOTH",
"404 148 OFFCURVE",
"256 312 OFFCURVE",
"256 532 CURVE SMOOTH",
"256 766 OFFCURVE",
"416 918 OFFCURVE",
"608 918 CURVE SMOOTH",
"698 918 OFFCURVE",
"810 882 OFFCURVE",
"870 828 CURVE",
"936 974 LINE",
"850 1036 OFFCURVE",
"728 1078 OFFCURVE",
"604 1078 CURVE SMOOTH",
"322 1078 OFFCURVE",
"80 856 OFFCURVE",
"80 536 CURVE SMOOTH",
"80 226 OFFCURVE",
"310 -12 OFFCURVE",
"608 -12 CURVE SMOOTH"
);
}
);
userData = {
RMXScaler = {
height = 71.5;
weight = 20;
width = 77;
};
};
width = 996;
}
);
leftKerningGroup = LAT_O_LC;
leftMetricsKey = o;
rightKerningGroup = LAT_C_LC;
unicode = 0063;
userData = {
RMXScaler = {
source = C;
};
};
},
{
glyphname = d;
lastChange = "2021-01-27 06:05:27 +0000";
layers = (
{
anchors = (
{
name = bottom;
position = "{616, 0}";
},
{
name = center;
position = "{1002, 1262}";
},
{
name = leghookretroflex;
position = "{1002, 0}";
},
{
name = top;
position = "{998, 1540}";
},
{
name = topright;
position = "{1028, 1540}";
}
);
components = (
{
name = _part.bowl;
transform = "{-1, 0, 0, 1, 1206, 0}";
}
);
layerId = "AB099EFE-E788-4EFC-8633-CF147CB782A6";
paths = (
{
closed = 1;
nodes = (
"1124 38 LINE",
"1050 76 OFFCURVE",
"1030 116 OFFCURVE",
"1030 232 CURVE SMOOTH",
"1030 1540 LINE",
"970 1540 LINE",
"970 834 LINE",
"946 834 LINE",
"982 756 LINE",
"982 294 LINE",
"950 222 LINE",
"978 222 LINE",
"970 234 LINE",
"976 78 OFFCURVE",
"1012 34 OFFCURVE",
"1096 -16 CURVE"
);
}
);
width = 1228;
},
{
anchors = (
{
name = bottom;
position = "{616, 0}";
},
{
name = center;
position = "{972, 1298}";
},
{
name = leghookretroflex;
position = "{976, 0}";
},
{
name = top;
position = "{976, 1540}";
},
{
name = topright;
position = "{1154, 1540}";
}
);
components = (
{
name = _part.bowl;
transform = "{-1, 0, 0, 1, 1272, 0}";
}
);
layerId = "2D8F7115-C311-411E-929D-56333CF7FFB2";
paths = (
{
closed = 1;
nodes = (
"1240 278 LINE",
"1180 298 OFFCURVE",
"1154 318 OFFCURVE",
"1154 394 CURVE SMOOTH",
"1154 1540 LINE",
"798 1540 LINE",
"798 1004 LINE",
"768 1004 LINE",
"818 892 LINE",
"818 274 LINE",
"776 144 LINE",
"866 144 LINE",
"846 160 LINE",
"872 86 OFFCURVE",
"962 26 OFFCURVE",
"1116 -16 CURVE"
);
}
);
width = 1284;
},
{
anchors = (
{
name = bottom;
position = "{596, 0}";
},
{
name = center;
position = "{982, 1274}";
},
{
name = leghookretroflex;
position = "{982, 0}";
},
{
name = top;
position = "{982, 1540}";
},
{
name = topright;
position = "{1190, 1540}";
}
);
components = (
{
alignment = -1;
name = _part.bowl;
transform = "{-1, 0, 0, 1, 1218, 0}";
}
);
layerId = "FD1CEFBD-BAB1-4C2A-A598-30E93F9A29F6";
paths = (
{
closed = 1;
nodes = (
"1154 140 LINE",
"1084 172 OFFCURVE",
"1068 206 OFFCURVE",
"1068 294 CURVE SMOOTH",
"1068 1540 LINE",
"896 1540 LINE",
"896 930 LINE",
"874 930 LINE",
"924 824 LINE",
"924 290 LINE",
"870 172 LINE",
"968 172 LINE",
"920 196 LINE",
"920 102 OFFCURVE",
"966 42 OFFCURVE",
"1088 -16 CURVE"
);
}
);
width = 1238;
}
);
leftKerningGroup = LAT_O_LC;
leftMetricsKey = o;
rightKerningGroup = LAT_D_LC;
unicode = 0064;
},
{
glyphname = eth;
lastChange = "2021-01-26 09:48:34 +0000";
layers = (
{
layerId = "AB099EFE-E788-4EFC-8633-CF147CB782A6";
paths = (
{
closed = 1;
nodes = (
"908 -16 OFFCURVE",
"1100 218 OFFCURVE",
"1100 596 CURVE SMOOTH",
"1100 1126 OFFCURVE",
"720 1450 OFFCURVE",
"352 1558 CURVE",
"332 1508 LINE",
"586 1430 OFFCURVE",
"910 1224 OFFCURVE",
"1024 818 CURVE",
"1036 834 LINE",
"1006 834 LINE",
"1042 796 LINE",
"964 946 OFFCURVE",
"792 1024 OFFCURVE",
"622 1024 CURVE SMOOTH",
"334 1024 OFFCURVE",
"122 796 OFFCURVE",
"122 504 CURVE SMOOTH",
"122 210 OFFCURVE",
"336 -16 OFFCURVE",
"618 -16 CURVE SMOOTH"
);
},
{
closed = 1;
nodes = (
"392 40 OFFCURVE",
"182 224 OFFCURVE",
"182 506 CURVE SMOOTH",
"182 772 OFFCURVE",
"370 968 OFFCURVE",
"630 968 CURVE SMOOTH",
"830 968 OFFCURVE",
"1042 850 OFFCURVE",
"1042 546 CURVE SMOOTH",
"1042 274 OFFCURVE",
"872 40 OFFCURVE",
"618 40 CURVE SMOOTH"
);
},
{
closed = 1;
nodes = (
"948 1512 LINE",
"930 1554 LINE",
"320 1220 LINE",
"344 1172 LINE"
);
}
);
width = 1222;
},
{
layerId = "2D8F7115-C311-411E-929D-56333CF7FFB2";
paths = (
{
closed = 1;
nodes = (
"934 -16 OFFCURVE",
"1172 254 OFFCURVE",
"1172 652 CURVE SMOOTH",
"1172 1090 OFFCURVE",
"882 1454 OFFCURVE",
"340 1700 CURVE",
"204 1426 LINE",
"512 1316 OFFCURVE",
"738 1126 OFFCURVE",
"832 898 CURVE",
"876 946 LINE",
"786 946 LINE",
"848 876 LINE",
"816 992 OFFCURVE",
"660 1028 OFFCURVE",
"546 1028 CURVE SMOOTH",
"256 1028 OFFCURVE",
"32 796 OFFCURVE",
"32 514 CURVE SMOOTH",
"32 210 OFFCURVE",
"284 -16 OFFCURVE",
"594 -16 CURVE SMOOTH"
);
},
{
closed = 1;
nodes = (
"468 296 OFFCURVE",
"374 398 OFFCURVE",
"372 532 CURVE SMOOTH",
"374 664 OFFCURVE",
"468 754 OFFCURVE",
"602 754 CURVE SMOOTH",
"738 754 OFFCURVE",
"832 664 OFFCURVE",
"832 532 CURVE SMOOTH",
"832 398 OFFCURVE",
"738 296 OFFCURVE",
"602 294 CURVE SMOOTH"
);
},
{
closed = 1;
nodes = (
"1040 1512 LINE",
"918 1692 LINE",
"208 1212 LINE",
"300 1082 LINE"
);
}
);
width = 1204;
},
{
layerId = "FD1CEFBD-BAB1-4C2A-A598-30E93F9A29F6";
paths = (
{
closed = 1;
nodes = (
"916 -16 OFFCURVE",
"1128 222 OFFCURVE",
"1128 622 CURVE SMOOTH",
"1128 1136 OFFCURVE",
"772 1446 OFFCURVE",
"354 1614 CURVE",
"288 1474 LINE",
"552 1376 OFFCURVE",
"846 1184 OFFCURVE",
"948 872 CURVE",
"972 902 LINE",
"924 902 LINE",
"956 864 LINE",
"912 954 OFFCURVE",
"768 1032 OFFCURVE",
"600 1032 CURVE SMOOTH",
"318 1032 OFFCURVE",
"96 820 OFFCURVE",
"96 512 CURVE SMOOTH",
"96 202 OFFCURVE",
"326 -16 OFFCURVE",
"616 -16 CURVE SMOOTH"
);
},
{
closed = 1;
nodes = (
"428 140 OFFCURVE",
"268 296 OFFCURVE",
"268 516 CURVE SMOOTH",
"268 730 OFFCURVE",
"416 872 OFFCURVE",
"616 872 CURVE SMOOTH",
"806 872 OFFCURVE",
"962 746 OFFCURVE",
"960 528 CURVE SMOOTH",
"962 308 OFFCURVE",
"810 148 OFFCURVE",
"620 144 CURVE SMOOTH"
);
},
{
closed = 1;
nodes = (
"998 1520 LINE",
"936 1618 LINE",
"284 1236 LINE",
"346 1138 LINE"
);
}
);
width = 1220;
}
);
leftKerningGroup = LAT_ETH_LC;
rightKerningGroup = LAT_ETH_LC;
unicode = 00F0;
},
{
glyphname = e;
lastChange = "2021-01-27 05:14:09 +0000";
layers = (
{
anchors = (
{
name = bottom;
position = "{584, 0}";
},
{
name = cedilla;
position = "{584, 0}";
},
{
name = ogonek;
position = "{896, 78}";
},
{
name = top;
position = "{588, 1048}";
}
);
layerId = "AB099EFE-E788-4EFC-8633-CF147CB782A6";
paths = (
{
closed = 1;
nodes = (
"744 -16 OFFCURVE",
"868 46 OFFCURVE",
"948 118 CURVE",
"924 174 LINE",
"834 96 OFFCURVE",
"726 40 OFFCURVE",
"592 40 CURVE SMOOTH",
"340 40 OFFCURVE",
"176 234 OFFCURVE",
"176 520 CURVE SMOOTH",
"176 826 OFFCURVE",
"362 1008 OFFCURVE",
"588 1008 CURVE SMOOTH",
"820 1008 OFFCURVE",
"974 814 OFFCURVE",
"964 562 CURVE",
"164 562 LINE",
"164 506 LINE",
"1024 506 LINE",
"1026 534 OFFCURVE",
"1026 558 OFFCURVE",
"1026 582 CURVE SMOOTH",
"1026 860 OFFCURVE",
"848 1064 OFFCURVE",
"586 1064 CURVE SMOOTH",
"306 1064 OFFCURVE",
"116 832 OFFCURVE",
"116 524 CURVE SMOOTH",
"116 206 OFFCURVE",
"314 -16 OFFCURVE",
"596 -16 CURVE SMOOTH"
);
}
);
width = 1136;
},
{
anchors = (
{
name = bottom;
position = "{572, 0}";
},
{
name = cedilla;
position = "{580, 0}";
},
{
name = ogonek;
position = "{944, 102}";
},
{
name = top;
position = "{572, 1056}";
}
);
associatedMasterId = "AB099EFE-E788-4EFC-8633-CF147CB782A6";
layerId = "DEC75A3F-7345-4B73-A3DB-385CA58BC787";
name = "{68}";
paths = (
{
closed = 1;
nodes = (
"734 -16 OFFCURVE",
"860 36 OFFCURVE",
"944 102 CURVE",
"890 226 LINE",
"834 172 OFFCURVE",
"726 108 OFFCURVE",
"588 108 CURVE SMOOTH",
"370 108 OFFCURVE",
"220 272 OFFCURVE",
"220 530 CURVE SMOOTH",
"220 788 OFFCURVE",
"370 948 OFFCURVE",
"572 948 CURVE SMOOTH",
"772 948 OFFCURVE",
"900 790 OFFCURVE",
"900 592 CURVE",
"194 592 LINE",
"194 480 LINE",
"1022 480 LINE",
"1026 500 OFFCURVE",
"1030 550 OFFCURVE",
"1030 590 CURVE SMOOTH",
"1030 852 OFFCURVE",
"852 1072 OFFCURVE",
"570 1072 CURVE SMOOTH",
"294 1072 OFFCURVE",
"92 860 OFFCURVE",
"92 528 CURVE SMOOTH",
"92 198 OFFCURVE",
"294 -16 OFFCURVE",
"588 -16 CURVE SMOOTH"
);
}
);
width = 1120;
},
{
anchors = (
{
name = bottom;
position = "{583, 0}";
},
{
name = cedilla;
position = "{603, 0}";
},
{
name = ogonek;
position = "{966, 82}";
},
{
name = top;
position = "{574, 1072}";
}
);
associatedMasterId = "AB099EFE-E788-4EFC-8633-CF147CB782A6";
guideLines = (
{
angle = 112.5;
position = "{450, 92}";
}
);
layerId = "AA661440-5A2D-4B91-AB53-22C2BE9F23B9";
name = "{140}";
paths = (
{
closed = 1;
nodes = (
"754 -16 OFFCURVE",
"880 22 OFFCURVE",
"966 82 CURVE",
"876 300 LINE",
"810 248 OFFCURVE",
"708 208 OFFCURVE",
"604 208 CURVE SMOOTH",
"414 208 OFFCURVE",
"300 344 OFFCURVE",
"300 542 CURVE SMOOTH",
"300 734 OFFCURVE",
"406 858 OFFCURVE",
"572 858 CURVE SMOOTH",
"712 858 OFFCURVE",
"806 766 OFFCURVE",
"806 630 CURVE",
"262 630 LINE",
"262 446 LINE",
"1044 446 LINE",
"1056 510 OFFCURVE",
"1060 544 OFFCURVE",
"1060 588 CURVE SMOOTH",
"1060 894 OFFCURVE",
"834 1086 OFFCURVE",
"572 1086 CURVE SMOOTH",
"294 1086 OFFCURVE",
"58 870 OFFCURVE",
"58 534 CURVE SMOOTH",
"58 214 OFFCURVE",
"274 -16 OFFCURVE",
"614 -16 CURVE SMOOTH"
);
}
);
width = 1122;
},
{
anchors = (
{
name = bottom;
position = "{592, 0}";
},
{
name = cedilla;
position = "{620, 0}";
},
{
name = ogonek;
position = "{976, 70}";
},
{
name = top;
position = "{584, 1080}";
}
);
layerId = "2D8F7115-C311-411E-929D-56333CF7FFB2";
paths = (
{
closed = 1;
nodes = (
"768 -16 OFFCURVE",
"900 20 OFFCURVE",
"976 70 CURVE",
"870 324 LINE",
"834 296 OFFCURVE",
"716 262 OFFCURVE",
"624 262 CURVE SMOOTH",
"466 262 OFFCURVE",
"342 374 OFFCURVE",
"342 548 CURVE SMOOTH",
"342 694 OFFCURVE",
"426 826 OFFCURVE",
"580 826 CURVE SMOOTH",
"686 826 OFFCURVE",
"764 762 OFFCURVE",
"764 638 CURVE",
"318 638 LINE",
"318 426 LINE",
"1076 426 LINE",
"1084 456 OFFCURVE",
"1092 524 OFFCURVE",
"1092 586 CURVE SMOOTH",
"1092 882 OFFCURVE",
"880 1096 OFFCURVE",
"588 1096 CURVE SMOOTH",
"292 1096 OFFCURVE",
"40 878 OFFCURVE",
"40 536 CURVE SMOOTH",
"40 212 OFFCURVE",
"264 -16 OFFCURVE",
"624 -16 CURVE SMOOTH"
);
}
);
width = 1132;
},
{
anchors = (
{
name = bottom;
position = "{572, 0}";
},
{
name = cedilla;
position = "{580, 0}";
},
{
name = ogonek;
position = "{944, 94}";
},
{
name = top;
position = "{568, 1060}";
}
);
layerId = "FD1CEFBD-BAB1-4C2A-A598-30E93F9A29F6";
paths = (
{
closed = 1;
nodes = (
"736 -16 OFFCURVE",
"862 34 OFFCURVE",
"944 94 CURVE",
"878 250 LINE",
"822 202 OFFCURVE",
"728 144 OFFCURVE",
"600 144 CURVE SMOOTH",
"384 144 OFFCURVE",
"248 300 OFFCURVE",
"248 532 CURVE SMOOTH",
"248 762 OFFCURVE",
"380 916 OFFCURVE",
"568 916 CURVE SMOOTH",
"752 916 OFFCURVE",
"866 774 OFFCURVE",
"866 602 CURVE",
"210 602 LINE",
"210 462 LINE",
"1022 462 LINE",
"1026 484 OFFCURVE",
"1034 532 OFFCURVE",
"1034 590 CURVE SMOOTH",
"1034 872 OFFCURVE",
"842 1076 OFFCURVE",
"568 1076 CURVE SMOOTH",
"290 1076 OFFCURVE",
"80 864 OFFCURVE",
"80 532 CURVE SMOOTH",
"80 198 OFFCURVE",
"294 -16 OFFCURVE",
"592 -16 CURVE SMOOTH"
);
}
);
width = 1122;
}
);
leftKerningGroup = LAT_O_LC;
leftMetricsKey = o;
rightKerningGroup = LAT_E_LC;
unicode = 0065;
},
{
glyphname = f;
lastChange = "2021-01-26 09:48:34 +0000";
layers = (
{
anchors = (
{
name = bottom;
position = "{310, 0}";
},
{
name = top;
position = "{498, 1540}";
}
);
components = (
{
name = "_part.f-stem";
}
);
layerId = "AB099EFE-E788-4EFC-8633-CF147CB782A6";
paths = (
{
closed = 1;
nodes = (
"608 992 LINE",
"608 1048 LINE",
"98 1048 LINE",
"98 992 LINE"
);
}
);
width = 704;
},
{
anchors = (
{
name = bottom;
position = "{402, 0}";
},
{
name = top;
position = "{548, 1540}";
}
);
components = (
{
name = "_part.f-stem";
transform = "{1, 0, 0, 1, -24, 0}";
}
);
layerId = "2D8F7115-C311-411E-929D-56333CF7FFB2";
paths = (
{
closed = 1;
nodes = (
"824 780 LINE",
"824 1080 LINE",
"8 1080 LINE",
"8 780 LINE"
);
}
);
width = 872;
},
{
anchors = (
{
name = bottom;
position = "{372, 0}";
},
{
name = top;
position = "{540, 1540}";
}
);
associatedMasterId = "AB099EFE-E788-4EFC-8633-CF147CB782A6";
components = (
{
name = "_part.f-stem";
transform = "{1, 0, 0, 1, -24, 0}";
}
);
layerId = "516F4623-5CD8-441C-8966-F6D84AE729AE";
name = "{140}";
paths = (
{
closed = 1;
nodes = (
"754 850 LINE",
"754 1072 LINE",
"32 1072 LINE",
"32 850 LINE"
);
}
);
width = 820;
},
{
anchors = (
{
name = bottom;
position = "{346, 0}";
},
{
name = top;
position = "{530, 1540}";
}
);
components = (
{
name = "_part.f-stem";
transform = "{1, 0, 0, 1, -2, 0}";
}
);
layerId = "FD1CEFBD-BAB1-4C2A-A598-30E93F9A29F6";
paths = (
{
closed = 1;
nodes = (
"686 904 LINE",
"686 1060 LINE",
"66 1060 LINE",
"66 904 LINE"
);
}
);
width = 762;
}
);
leftKerningGroup = LAT_F_LC;
rightKerningGroup = LAT_F_LC;
unicode = 0066;
},
{
glyphname = g;
lastChange = "2021-01-26 11:40:42 +0000";
layers = (
{
anchors = (
{
name = bottom;
position = "{598, -420}";
},
{
name = top;
position = "{594, 1048}";
}
);
layerId = "AB099EFE-E788-4EFC-8633-CF147CB782A6";
paths = (
{
closed = 1;
nodes = (
"772 -436 OFFCURVE",
"1030 -318 OFFCURVE",
"1030 8 CURVE SMOOTH",
"1030 1048 LINE",
"970 1048 LINE",
"970 834 LINE",
"964 834 LINE",
"974 772 LINE",
"974 282 LINE",
"962 224 LINE",
"972 224 LINE",
"972 4 LINE SMOOTH",
"972 -244 OFFCURVE",
"800 -380 OFFCURVE",
"578 -380 CURVE SMOOTH",
"456 -380 OFFCURVE",
"336 -336 OFFCURVE",
"254 -266 CURVE",
"230 -326 LINE",
"308 -388 OFFCURVE",
"458 -436 OFFCURVE",
"582 -436 CURVE SMOOTH"
);
},
{
closed = 1;
nodes = (
"822 -16 OFFCURVE",
"1032 158 OFFCURVE",
"1032 528 CURVE SMOOTH",
"1032 896 OFFCURVE",
"828 1064 OFFCURVE",
"578 1064 CURVE SMOOTH",
"296 1064 OFFCURVE",
"118 860 OFFCURVE",
"118 528 CURVE SMOOTH",
"118 188 OFFCURVE",
"304 -16 OFFCURVE",
"578 -16 CURVE SMOOTH"
);
},
{
closed = 1;
nodes = (
"348 40 OFFCURVE",
"178 228 OFFCURVE",
"178 528 CURVE SMOOTH",
"178 816 OFFCURVE",
"330 1008 OFFCURVE",
"574 1008 CURVE SMOOTH",
"812 1008 OFFCURVE",
"974 826 OFFCURVE",
"974 538 CURVE SMOOTH",
"974 248 OFFCURVE",
"812 40 OFFCURVE",
"574 40 CURVE SMOOTH"
);
}
);
width = 1204;
},
{
anchors = (
{
name = bottom;
position = "{610, -420}";
},
{
name = top;
position = "{590, 1080}";
}
);
layerId = "2D8F7115-C311-411E-929D-56333CF7FFB2";
paths = (
{
closed = 1;
nodes = (
"914 -436 OFFCURVE",
"1146 -256 OFFCURVE",
"1146 70 CURVE SMOOTH",
"1146 1082 LINE",
"828 1082 LINE",
"828 982 LINE",
"746 982 LINE",
"832 860 LINE",
"832 250 LINE",
"782 148 LINE",
"814 148 LINE",
"814 50 LINE SMOOTH",
"814 -84 OFFCURVE",
"644 -142 OFFCURVE",
"516 -142 CURVE SMOOTH",
"418 -142 OFFCURVE",
"324 -110 OFFCURVE",
"242 -64 CURVE",
"126 -338 LINE",
"214 -384 OFFCURVE",
"374 -436 OFFCURVE",
"558 -436 CURVE SMOOTH"
);
},
{
closed = 1;
nodes = (
"782 30 OFFCURVE",
"988 284 OFFCURVE",
"988 578 CURVE SMOOTH",
"988 860 OFFCURVE",
"800 1098 OFFCURVE",
"520 1098 CURVE SMOOTH",
"284 1098 OFFCURVE",
"42 926 OFFCURVE",
"40 558 CURVE SMOOTH",
"42 184 OFFCURVE",
"288 30 OFFCURVE",
"508 28 CURVE SMOOTH"
);
},
{
closed = 1;
nodes = (
"476 316 OFFCURVE",
"386 414 OFFCURVE",
"386 570 CURVE SMOOTH",
"386 726 OFFCURVE",
"480 816 OFFCURVE",
"610 816 CURVE SMOOTH",
"738 816 OFFCURVE",
"828 726 OFFCURVE",
"828 570 CURVE SMOOTH",
"828 414 OFFCURVE",
"734 316 OFFCURVE",
"602 312 CURVE SMOOTH"
);
}
);
width = 1236;
},
{
anchors = (
{
name = bottom;
position = "{602, -420}";
},
{
name = top;
position = "{590, 1064}";
}
);
associatedMasterId = "AB099EFE-E788-4EFC-8633-CF147CB782A6";
guideLines = (
{
angle = 67.5;
position = "{156, 4}";
}
);
layerId = "D548E82C-F1D5-44DE-B786-3582CB4D3885";
name = "{106}";
paths = (
{
closed = 1;
nodes = (
"840 -438 OFFCURVE",
"1090 -291 OFFCURVE",
"1090 40 CURVE SMOOTH",
"1090 1064 LINE",
"880 1064 LINE",
"880 950 LINE",
"836 950 LINE",
"892 844 LINE",
"892 250 LINE",
"852 152 LINE",
"888 152 LINE",
"888 28 LINE SMOOTH",
"889 -180 OFFCURVE",
"692 -254 OFFCURVE",
"548 -254 CURVE SMOOTH",
"434 -254 OFFCURVE",
"303 -201 OFFCURVE",
"250 -156 CURVE",
"176 -336 LINE",
"262 -385 OFFCURVE",
"410 -438 OFFCURVE",
"570 -438 CURVE SMOOTH"
);
},
{
closed = 1;
nodes = (
"831 0 OFFCURVE",
"1020 246 OFFCURVE",
"1020 544 CURVE SMOOTH",
"1020 848 OFFCURVE",
"840 1081 OFFCURVE",
"570 1082 CURVE SMOOTH",
"315 1081 OFFCURVE",
"74 877 OFFCURVE",
"74 540 CURVE SMOOTH",
"74 213 OFFCURVE",
"307 0 OFFCURVE",
"562 0 CURVE SMOOTH"
);
},
{
closed = 1;
nodes = (
"414 188 OFFCURVE",
"287 344 OFFCURVE",
"286 544 CURVE SMOOTH",
"287 745 OFFCURVE",
"414 897 OFFCURVE",
"594 892 CURVE SMOOTH",
"766 897 OFFCURVE",
"893 754 OFFCURVE",
"892 544 CURVE SMOOTH",
"893 336 OFFCURVE",
"766 188 OFFCURVE",
"594 184 CURVE SMOOTH"
);
}
);
width = 1216;
},
{
anchors = (
{
name = bottom;
position = "{596, -420}";
},
{
name = top;
position = "{588, 1060}";
}
);
layerId = "FD1CEFBD-BAB1-4C2A-A598-30E93F9A29F6";
paths = (
{
closed = 1;
nodes = (
"818 -436 OFFCURVE",
"1072 -298 OFFCURVE",
"1072 32 CURVE SMOOTH",
"1072 1060 LINE",
"900 1060 LINE",
"900 926 LINE",
"862 926 LINE",
"912 828 LINE",
"912 258 LINE",
"874 164 LINE",
"904 164 LINE",
"904 24 LINE SMOOTH",
"904 -196 OFFCURVE",
"720 -282 OFFCURVE",
"564 -280 CURVE SMOOTH",
"440 -282 OFFCURVE",
"314 -232 OFFCURVE",
"248 -182 CURVE",
"182 -334 LINE",
"264 -388 OFFCURVE",
"416 -436 OFFCURVE",
"568 -436 CURVE SMOOTH"
);
},
{
closed = 1;
nodes = (
"822 -4 OFFCURVE",
"1022 226 OFFCURVE",
"1022 544 CURVE SMOOTH",
"1022 860 OFFCURVE",
"830 1078 OFFCURVE",
"564 1078 CURVE SMOOTH",
"306 1078 OFFCURVE",
"80 878 OFFCURVE",
"80 540 CURVE SMOOTH",
"80 206 OFFCURVE",
"302 -4 OFFCURVE",
"556 -4 CURVE SMOOTH"
);
},
{
closed = 1;
nodes = (
"392 156 OFFCURVE",
"256 316 OFFCURVE",
"256 540 CURVE SMOOTH",
"256 762 OFFCURVE",
"388 922 OFFCURVE",
"584 918 CURVE SMOOTH",
"772 922 OFFCURVE",
"908 770 OFFCURVE",
"908 544 CURVE SMOOTH",
"908 316 OFFCURVE",
"772 156 OFFCURVE",
"584 156 CURVE SMOOTH"
);
}
);
width = 1208;
}
);
leftKerningGroup = LAT_G_LC;
rightKerningGroup = LAT_G_LC;
unicode = 0067;
},
{
color = 4;
glyphname = g.ss01;
lastChange = "2021-01-26 11:41:20 +0000";
layers = (
{
anchors = (
{
name = bottom;
position = "{644, -420}";
},
{
name = top;
position = "{638, 1048}";
}
);
components = (
{
name = _part.bowl.ss01;
transform = "{-1, 0, 0, 1, 1282, 0}";
}
);
layerId = "AB099EFE-E788-4EFC-8633-CF147CB782A6";
paths = (
{
closed = 1;
nodes = (
"832 -436 OFFCURVE",
"1106 -318 OFFCURVE",
"1106 8 CURVE SMOOTH",
"1106 1048 LINE",
"1046 1048 LINE",
"1046 810 LINE",
"1030 810 LINE",
"1050 740 LINE",
"1050 318 LINE",
"1034 248 LINE",
"1046 248 LINE",
"1046 4 LINE SMOOTH",
"1046 -274 OFFCURVE",
"812 -382 OFFCURVE",
"628 -380 CURVE SMOOTH",
"500 -378 OFFCURVE",
"348 -334 OFFCURVE",
"272 -266 CURVE",
"248 -326 LINE",
"326 -388 OFFCURVE",
"498 -436 OFFCURVE",
"628 -436 CURVE SMOOTH"
);
}
);
width = 1278;
},
{
anchors = (
{
name = bottom;
position = "{648, -420}";
},
{
name = top;
position = "{626, 1080}";
}
);
components = (
{
name = _part.bowl.ss01;
transform = "{-1, 0, 0, 0.95973, 1310, 46}";
}
);
layerId = "2D8F7115-C311-411E-929D-56333CF7FFB2";
paths = (
{
closed = 1;
nodes = (
"942 -436 OFFCURVE",
"1184 -256 OFFCURVE",
"1184 70 CURVE SMOOTH",
"1184 1080 LINE",
"848 1080 LINE",
"848 976 LINE",
"802 976 LINE",
"848 854 LINE",
"848 212 LINE",
"790 160 LINE",
"848 160 LINE",
"848 50 LINE SMOOTH",
"848 -92 OFFCURVE",
"668 -142 OFFCURVE",
"544 -142 CURVE SMOOTH",
"442 -142 OFFCURVE",
"332 -110 OFFCURVE",
"250 -64 CURVE",
"136 -338 LINE",
"222 -384 OFFCURVE",
"374 -436 OFFCURVE",
"574 -436 CURVE SMOOTH"
);
}
);
width = 1274;
},
{
anchors = (
{
name = bottom;
position = "{650, -420}";
},
{
name = top;
position = "{636, 1060}";
}
);
components = (
{
alignment = -1;
name = _part.bowl.ss01;
transform = "{-1, 0, 0, 0.98476, 1284, 20}";
}
);
layerId = "FD1CEFBD-BAB1-4C2A-A598-30E93F9A29F6";
paths = (
{
closed = 1;
nodes = (
"884 -434 OFFCURVE",
"1132 -284 OFFCURVE",
"1132 32 CURVE SMOOTH",
"1132 1060 LINE",
"960 1060 LINE",
"960 914 LINE",
"936 914 LINE",
"972 828 LINE",
"972 262 LINE",
"940 168 LINE",
"960 168 LINE",
"960 24 LINE SMOOTH",
"960 -202 OFFCURVE",
"756 -280 OFFCURVE",
"596 -278 CURVE SMOOTH",
"466 -280 OFFCURVE",
"342 -234 OFFCURVE",
"256 -168 CURVE",
"190 -320 LINE",
"282 -386 OFFCURVE",
"444 -434 OFFCURVE",
"600 -434 CURVE SMOOTH"
);
}
);
width = 1268;
}
);
leftKerningGroup = LAT_G_LC;
leftMetricsKey = g;
rightKerningGroup = LAT_G_LC;
rightMetricsKey = g;
},
{
color = 7;
glyphname = g.ss03;
lastChange = "2021-01-26 09:48:34 +0000";
layers = (
{
anchors = (
{
name = bottom;
position = "{570, -438}";
},
{
name = top;
position = "{544, 1048}";
}
);
layerId = "AB099EFE-E788-4EFC-8633-CF147CB782A6";
paths = (
{
closed = 1;
nodes = (
"832 -438 OFFCURVE",
"1048 -298 OFFCURVE",
"1048 -106 CURVE SMOOTH",
"1048 34 OFFCURVE",
"930 126 OFFCURVE",
"734 126 CURVE SMOOTH",
"452 126 LINE SMOOTH",
"316 126 OFFCURVE",
"216 200 OFFCURVE",
"216 312 CURVE SMOOTH",
"216 374 OFFCURVE",
"248 414 OFFCURVE",
"276 438 CURVE",
"236 484 LINE",
"202 452 OFFCURVE",
"160 392 OFFCURVE",
"160 316 CURVE SMOOTH",
"160 198 OFFCURVE",
"254 70 OFFCURVE",
"452 70 CURVE SMOOTH",
"750 70 LINE SMOOTH",
"902 70 OFFCURVE",
"988 0 OFFCURVE",
"988 -106 CURVE SMOOTH",
"988 -258 OFFCURVE",
"816 -382 OFFCURVE",
"558 -382 CURVE SMOOTH",
"326 -382 OFFCURVE",
"174 -284 OFFCURVE",
"174 -140 CURVE SMOOTH",
"174 -34 OFFCURVE",
"260 74 OFFCURVE",
"342 106 CURVE",
"290 144 LINE",
"194 90 OFFCURVE",
"114 -20 OFFCURVE",
"114 -140 CURVE SMOOTH",
"114 -316 OFFCURVE",
"292 -438 OFFCURVE",
"552 -438 CURVE SMOOTH"
);
},
{
closed = 1;
nodes = (
"780 332 OFFCURVE",
"952 480 OFFCURVE",
"952 702 CURVE SMOOTH",
"952 918 OFFCURVE",
"788 1064 OFFCURVE",
"546 1064 CURVE SMOOTH",
"308 1064 OFFCURVE",
"140 922 OFFCURVE",
"140 704 CURVE SMOOTH",
"140 484 OFFCURVE",
"312 332 OFFCURVE",
"548 332 CURVE SMOOTH"
);
},
{
closed = 1;
nodes = (
"348 388 OFFCURVE",
"200 520 OFFCURVE",
"200 700 CURVE SMOOTH",
"200 876 OFFCURVE",
"338 1008 OFFCURVE",
"544 1008 CURVE SMOOTH",
"744 1008 OFFCURVE",
"892 886 OFFCURVE",
"892 700 CURVE SMOOTH",
"892 504 OFFCURVE",
"728 388 OFFCURVE",
"544 388 CURVE SMOOTH"
);
},
{
closed = 1;
nodes = (
"916 964 OFFCURVE",
"978 996 OFFCURVE",
"1068 1036 CURVE",
"1036 1094 LINE",
"954 1056 OFFCURVE",
"894 1016 OFFCURVE",
"828 966 CURVE",
"854 914 LINE"
);
}
);
width = 1148;
},
{
anchors = (
{
name = bottom;
position = "{566, -438}";
},
{
name = top;
position = "{552, 1080}";
}
);
background = {
paths = (
{
closed = 1;
nodes = (
"995 -455 OFFCURVE",
"1200 -303 OFFCURVE",
"1200 -82 CURVE SMOOTH",
"1200 98 OFFCURVE",
"1061 209 OFFCURVE",
"836 208 CURVE SMOOTH",
"586 208 LINE SMOOTH",
"471 209 OFFCURVE",
"381 246 OFFCURVE",
"380 316 CURVE SMOOTH",
"381 356 OFFCURVE",
"406 385 OFFCURVE",
"434 398 CURVE",
"316 504 LINE",
"193 446 OFFCURVE",
"147 315 OFFCURVE",
"148 242 CURVE SMOOTH",
"147 82 OFFCURVE",
"336 -4 OFFCURVE",
"610 -4 CURVE SMOOTH",
"734 -4 LINE SMOOTH",
"819 -4 OFFCURVE",
"872 -37 OFFCURVE",
"872 -82 CURVE SMOOTH",
"872 -147 OFFCURVE",
"766 -180 OFFCURVE",
"626 -180 CURVE SMOOTH",
"479 -180 OFFCURVE",
"324 -143 OFFCURVE",
"324 -58 CURVE SMOOTH",
"324 -8 OFFCURVE",
"369 41 OFFCURVE",
"426 58 CURVE",
"230 126 LINE",
"131 102 OFFCURVE",
"41 -20 OFFCURVE",
"40 -140 CURVE SMOOTH",
"41 -319 OFFCURVE",
"246 -455 OFFCURVE",
"610 -454 CURVE SMOOTH"
);
}
);
};
layerId = "2D8F7115-C311-411E-929D-56333CF7FFB2";
paths = (
{
closed = 1;
nodes = (
"1008 -438 OFFCURVE",
"1168 -284 OFFCURVE",
"1168 -82 CURVE SMOOTH",
"1168 120 OFFCURVE",
"1012 234 OFFCURVE",
"786 234 CURVE SMOOTH",
"536 234 LINE SMOOTH",
"426 234 OFFCURVE",
"336 234 OFFCURVE",
"336 300 CURVE SMOOTH",
"336 344 OFFCURVE",
"374 374 OFFCURVE",
"402 386 CURVE",
"200 472 LINE",
"160 456 OFFCURVE",
"74 394 OFFCURVE",
"74 282 CURVE SMOOTH",
"74 124 OFFCURVE",
"222 -4 OFFCURVE",
"496 -4 CURVE SMOOTH",
"720 -4 LINE SMOOTH",
"762 -4 OFFCURVE",
"840 -4 OFFCURVE",
"840 -70 CURVE SMOOTH",
"840 -152 OFFCURVE",
"728 -164 OFFCURVE",
"592 -164 CURVE SMOOTH",
"452 -164 OFFCURVE",
"290 -150 OFFCURVE",
"290 -54 CURVE SMOOTH",
"290 0 OFFCURVE",
"340 52 OFFCURVE",
"394 66 CURVE",
"196 126 LINE",
"98 102 OFFCURVE",
"8 -20 OFFCURVE",
"8 -148 CURVE SMOOTH",
"8 -328 OFFCURVE",
"194 -438 OFFCURVE",
"566 -438 CURVE SMOOTH"
);
},
{
closed = 1;
nodes = (
"828 308 OFFCURVE",
"1024 476 OFFCURVE",
"1024 704 CURVE SMOOTH",
"1024 938 OFFCURVE",
"820 1098 OFFCURVE",
"550 1098 CURVE SMOOTH",
"284 1098 OFFCURVE",
"86 942 OFFCURVE",
"86 716 CURVE SMOOTH",
"86 484 OFFCURVE",
"292 308 OFFCURVE",
"562 308 CURVE SMOOTH"
);
},
{
closed = 1;
nodes = (
"462 544 OFFCURVE",
"390 614 OFFCURVE",
"390 698 CURVE SMOOTH",
"390 782 OFFCURVE",
"462 852 OFFCURVE",
"556 852 CURVE SMOOTH",
"646 852 OFFCURVE",
"720 790 OFFCURVE",
"720 696 CURVE SMOOTH",
"720 602 OFFCURVE",
"648 544 OFFCURVE",
"560 544 CURVE SMOOTH"
);
},
{
closed = 1;
nodes = (
"1016 926 OFFCURVE",
"1050 938 OFFCURVE",
"1180 938 CURVE",
"1114 1192 LINE",
"1012 1164 OFFCURVE",
"926 1130 OFFCURVE",
"766 1008 CURVE",
"914 888 LINE"
);
}
);
width = 1172;
},
{
anchors = (
{
name = bottom;
position = "{592, -438}";
},
{
name = top;
position = "{558, 1072}";
}
);
associatedMasterId = "AB099EFE-E788-4EFC-8633-CF147CB782A6";
layerId = "78C318E5-0AD8-4118-B0BD-56513271A36A";
name = "{140}";
paths = (
{
closed = 1;
nodes = (
"946 -438 OFFCURVE",
"1143 -299 OFFCURVE",
"1142 -78 CURVE SMOOTH",
"1143 127 OFFCURVE",
"971 218 OFFCURVE",
"716 218 CURVE SMOOTH",
"578 218 LINE SMOOTH",
"492 218 OFFCURVE",
"406 213 OFFCURVE",
"406 294 CURVE SMOOTH",
"406 340 OFFCURVE",
"434 373 OFFCURVE",
"472 394 CURVE",
"270 496 LINE",
"217 467 OFFCURVE",
"152 393 OFFCURVE",
"152 286 CURVE SMOOTH",
"152 139 OFFCURVE",
"266 0 OFFCURVE",
"536 0 CURVE SMOOTH",
"648 0 LINE SMOOTH",
"766 0 OFFCURVE",
"877 -4 OFFCURVE",
"876 -82 CURVE SMOOTH",
"877 -156 OFFCURVE",
"770 -209 OFFCURVE",
"594 -208 CURVE SMOOTH",
"397 -209 OFFCURVE",
"303 -139 OFFCURVE",
"304 -66 CURVE SMOOTH",
"303 -12 OFFCURVE",
"365 45 OFFCURVE",
"406 46 CURVE",
"226 176 LINE",
"123 119 OFFCURVE",
"41 8 OFFCURVE",
"40 -110 CURVE SMOOTH",
"41 -303 OFFCURVE",
"238 -438 OFFCURVE",
"606 -438 CURVE SMOOTH"
);
},
{
closed = 1;
nodes = (
"858 324 OFFCURVE",
"1049 471 OFFCURVE",
"1048 696 CURVE SMOOTH",
"1049 922 OFFCURVE",
"852 1088 OFFCURVE",
"576 1088 CURVE SMOOTH",
"303 1088 OFFCURVE",
"115 926 OFFCURVE",
"114 700 CURVE SMOOTH",
"115 471 OFFCURVE",
"309 324 OFFCURVE",
"586 324 CURVE SMOOTH"
);
},
{
closed = 1;
nodes = (
"467 532 OFFCURVE",
"387 598 OFFCURVE",
"386 696 CURVE SMOOTH",
"387 803 OFFCURVE",
"465 862 OFFCURVE",
"580 862 CURVE SMOOTH",
"698 862 OFFCURVE",
"780 803 OFFCURVE",
"782 700 CURVE SMOOTH",
"780 602 OFFCURVE",
"700 532 OFFCURVE",
"582 532 CURVE SMOOTH"
);
},
{
closed = 1;
nodes = (
"995 930 OFFCURVE",
"1032 950 OFFCURVE",
"1160 958 CURVE",
"1090 1176 LINE",
"946 1126 OFFCURVE",
"852 1090 OFFCURVE",
"758 1004 CURVE",
"902 892 LINE"
);
}
);
width = 1180;
},
{
anchors = (
{
name = bottom;
position = "{564, -438}";
},
{
name = top;
position = "{550, 1060}";
}
);
layerId = "FD1CEFBD-BAB1-4C2A-A598-30E93F9A29F6";
paths = (
{
closed = 1;
nodes = (
"892 -438 OFFCURVE",
"1084 -274 OFFCURVE",
"1088 -94 CURVE SMOOTH",
"1092 58 OFFCURVE",
"966 168 OFFCURVE",
"764 168 CURVE SMOOTH",
"514 168 LINE SMOOTH",
"428 168 OFFCURVE",
"314 194 OFFCURVE",
"314 300 CURVE SMOOTH",
"314 344 OFFCURVE",
"334 366 OFFCURVE",
"374 394 CURVE",
"260 488 LINE",
"204 438 OFFCURVE",
"162 374 OFFCURVE",
"162 294 CURVE SMOOTH",
"162 172 OFFCURVE",
"272 20 OFFCURVE",
"534 20 CURVE SMOOTH",
"710 20 LINE SMOOTH",
"826 20 OFFCURVE",
"916 -8 OFFCURVE",
"916 -96 CURVE SMOOTH",
"916 -206 OFFCURVE",
"778 -282 OFFCURVE",
"564 -282 CURVE SMOOTH",
"392 -284 OFFCURVE",
"244 -230 OFFCURVE",
"244 -106 CURVE SMOOTH",
"244 -16 OFFCURVE",
"322 46 OFFCURVE",
"388 66 CURVE",
"252 140 LINE",
"150 86 OFFCURVE",
"80 -12 OFFCURVE",
"80 -122 CURVE SMOOTH",
"80 -312 OFFCURVE",
"278 -438 OFFCURVE",
"564 -438 CURVE SMOOTH"
);
},
{
closed = 1;
nodes = (
"802 328 OFFCURVE",
"974 488 OFFCURVE",
"972 704 CURVE SMOOTH",
"974 926 OFFCURVE",
"798 1076 OFFCURVE",
"556 1076 CURVE SMOOTH",
"314 1076 OFFCURVE",
"134 926 OFFCURVE",
"134 704 CURVE SMOOTH",
"134 480 OFFCURVE",
"314 328 OFFCURVE",
"556 328 CURVE SMOOTH"
);
},
{
closed = 1;
nodes = (
"416 476 OFFCURVE",
"306 570 OFFCURVE",
"306 700 CURVE SMOOTH",
"306 832 OFFCURVE",
"412 928 OFFCURVE",
"558 928 CURVE SMOOTH",
"686 928 OFFCURVE",
"800 854 OFFCURVE",
"800 704 CURVE SMOOTH",
"802 570 OFFCURVE",
"704 476 OFFCURVE",
"560 476 CURVE SMOOTH"
);
},
{
closed = 1;
nodes = (
"948 938 OFFCURVE",
"1006 972 OFFCURVE",
"1104 992 CURVE",
"1030 1142 LINE",
"944 1106 OFFCURVE",
"862 1062 OFFCURVE",
"768 996 CURVE",
"870 898 LINE"
);
}
);
width = 1152;
}
);
leftKerningGroup = LAT_GSS03_LC;
rightKerningGroup = LAT_GSS03_LC;
},
{
glyphname = h;
lastChange = "2021-01-26 09:48:34 +0000";
layers = (
{
anchors = (
{
name = bottom;
position = "{562, 0}";
},
{
name = center;
position = "{202, 1262}";
},
{
name = top;
position = "{202, 1474}";
}
);
layerId = "AB099EFE-E788-4EFC-8633-CF147CB782A6";
paths = (
{
closed = 1;
nodes = (
"232 0 LINE",
"232 668 LINE SMOOTH",
"232 844 OFFCURVE",
"392 1008 OFFCURVE",
"594 1008 CURVE SMOOTH",
"766 1008 OFFCURVE",
"892 890 OFFCURVE",
"892 660 CURVE SMOOTH",
"892 0 LINE",
"952 0 LINE",
"952 676 LINE SMOOTH",
"952 934 OFFCURVE",
"798 1064 OFFCURVE",
"596 1064 CURVE SMOOTH",
"418 1064 OFFCURVE",
"268 958 OFFCURVE",
"220 824 CURVE",
"260 858 LINE",
"232 858 LINE",
"232 1540 LINE",
"172 1540 LINE",
"172 0 LINE"
);
}
);
width = 1116;
},
{
anchors = (
{
name = bottom;
position = "{600, 0}";
},
{
name = center;
position = "{266, 1298}";
},
{
name = top;
position = "{266, 1540}";
}
);
layerId = "2D8F7115-C311-411E-929D-56333CF7FFB2";
paths = (
{
closed = 1;
nodes = (
"446 0 LINE",
"446 630 LINE SMOOTH",
"446 746 OFFCURVE",
"516 806 OFFCURVE",
"606 806 CURVE SMOOTH",
"696 806 OFFCURVE",
"754 750 OFFCURVE",
"754 634 CURVE SMOOTH",
"754 0 LINE",
"1110 0 LINE",
"1110 712 LINE SMOOTH",
"1110 950 OFFCURVE",
"976 1096 OFFCURVE",
"750 1096 CURVE SMOOTH",
"590 1096 OFFCURVE",
"426 1024 OFFCURVE",
"394 868 CURVE",
"508 988 LINE",
"446 988 LINE",
"446 1540 LINE",
"90 1540 LINE",
"90 0 LINE"
);
}
);
width = 1192;
},
{
anchors = (
{
name = bottom;
position = "{574, 0}";
},
{
name = center;
position = "{228, 1274}";
},
{
name = top;
position = "{224, 1516}";
}
);
layerId = "FD1CEFBD-BAB1-4C2A-A598-30E93F9A29F6";
paths = (
{
closed = 1;
nodes = (
"310 0 LINE",
"310 644 LINE SMOOTH",
"310 824 OFFCURVE",
"432 918 OFFCURVE",
"584 918 CURVE SMOOTH",
"736 918 OFFCURVE",
"838 824 OFFCURVE",
"838 644 CURVE SMOOTH",
"838 0 LINE",
"1010 0 LINE",
"1010 680 LINE SMOOTH",
"1010 868 OFFCURVE",
"908 1076 OFFCURVE",
"632 1076 CURVE SMOOTH",
"462 1076 OFFCURVE",
"322 996 OFFCURVE",
"272 860 CURVE",
"350 938 LINE",
"310 938 LINE",
"310 1540 LINE",
"138 1540 LINE",
"138 0 LINE"
);
}
);
width = 1142;
}
);
leftKerningGroup = LAT_H_UC;
rightKerningGroup = LAT_N_LC;
rightMetricsKey = n;
unicode = 0068;
},
{
glyphname = idotless;
lastChange = "2021-01-26 09:48:34 +0000";
layers = (
{
anchors = (
{
name = bottom;
position = "{210, 0}";
},
{
name = ogonek;
position = "{240, 0}";
},
{
name = top;
position = "{210, 1048}";
}
);
layerId = "AB099EFE-E788-4EFC-8633-CF147CB782A6";
paths = (
{
closed = 1;
nodes = (
"240 0 LINE",
"240 1048 LINE",
"180 1048 LINE",
"180 0 LINE"
);
}
);
width = 416;
},
{
anchors = (
{
name = bottom;
position = "{274, 0}";
},
{
name = ogonek;
position = "{358, 0}";
},
{
name = top;
position = "{272, 1080}";
}
);
guideLines = (
{
angle = 60;
position = "{156, 0}";
}
);
layerId = "2D8F7115-C311-411E-929D-56333CF7FFB2";
paths = (
{
closed = 1;
nodes = (
"450 0 LINE",
"450 1080 LINE",
"94 1080 LINE",
"94 0 LINE"
);
}
);
width = 544;
},
{
anchors = (
{
name = bottom;
position = "{232, 0}";
},
{
name = ogonek;
position = "{288, 0}";
},
{
name = top;
position = "{232, 1060}";
}
);
layerId = "FD1CEFBD-BAB1-4C2A-A598-30E93F9A29F6";
paths = (
{
closed = 1;
nodes = (
"318 0 LINE",
"318 1060 LINE",
"146 1060 LINE",
"146 0 LINE"
);
}
);
width = 462;
}
);
unicode = 0131;
},
{
color = 8;
glyphname = idotless.ss02;
lastChange = "2021-01-26 04:56:20 +0000";
layers = (
{
anchors = (
{
name = bottom;
position = "{300, 0}";
},
{
name = center;
position = "{216, 570}";
},
{
name = ogonek;
position = "{338, -16}";
},
{
name = top;
position = "{216, 1048}";
}
);
background = {
anchors = (
{
name = bottom;
position = "{300, 0}";
},
{
name = center;
position = "{218, 570}";
},
{
name = ogonek;
position = "{438, 12}";
},
{
name = top;
position = "{218, 1048}";
}
);
paths = (
{
closed = 1;
nodes = (
"375 -8 OFFCURVE",
"418 0 OFFCURVE",
"438 12 CURVE",
"438 74 LINE",
"410 59 OFFCURVE",
"371 49 OFFCURVE",
"336 50 CURVE SMOOTH",
"248 49 OFFCURVE",
"246 119 OFFCURVE",
"246 208 CURVE SMOOTH",
"246 1048 LINE",
"184 1048 LINE",
"184 222 LINE SMOOTH",
"184 111 OFFCURVE",
"184 -8 OFFCURVE",
"340 -8 CURVE SMOOTH"
);
}
);
};
guideLines = (
{
angle = 80;
position = "{146, -8}";
}
);
layerId = "AB099EFE-E788-4EFC-8633-CF147CB782A6";
paths = (
{
closed = 1;
nodes = (
"362 38 LINE",
"294 68 OFFCURVE",
"244 112 OFFCURVE",
"244 198 CURVE SMOOTH",
"244 1048 LINE",
"184 1048 LINE",
"184 236 LINE SMOOTH",
"184 116 OFFCURVE",
"218 38 OFFCURVE",
"338 -16 CURVE"
);
}
);
width = 494;
},
{
anchors = (
{
name = bottom;
position = "{328, 0}";
},
{
name = center;
position = "{304, 570}";
},
{
name = ogonek;
position = "{492, -16}";
},
{
name = top;
position = "{304, 1080}";
}
);
background = {
anchors = (
{
name = bottom;
position = "{336, 0}";
},
{
name = center;
position = "{312, 570}";
},
{
name = ogonek;
position = "{598, 8}";
},
{
name = top;
position = "{312, 1080}";
}
);
paths = (
{
closed = 1;
nodes = (
"483 -16 OFFCURVE",
"551 -10 OFFCURVE",
"598 8 CURVE",
"598 286 LINE",
"571 281 OFFCURVE",
"559 279 OFFCURVE",
"544 278 CURVE SMOOTH",
"487 279 OFFCURVE",
"483 319 OFFCURVE",
"484 376 CURVE SMOOTH",
"484 1082 LINE",
"126 1082 LINE",
"126 278 LINE SMOOTH",
"127 111 OFFCURVE",
"238 -16 OFFCURVE",
"430 -16 CURVE SMOOTH"
);
}
);
};
guideLines = (
{
angle = 80;
position = "{268, -8}";
}
);
layerId = "2D8F7115-C311-411E-929D-56333CF7FFB2";
paths = (
{
closed = 1;
nodes = (
"614 278 LINE",
"530 298 OFFCURVE",
"476 348 OFFCURVE",
"476 462 CURVE SMOOTH",
"476 1082 LINE",
"118 1082 LINE",
"118 446 LINE SMOOTH",
"120 172 OFFCURVE",
"228 -4 OFFCURVE",
"492 -16 CURVE"
);
}
);
width = 660;
},
{
anchors = (
{
name = bottom;
position = "{328, 0}";
},
{
name = center;
position = "{254, 570}";
},
{
name = ogonek;
position = "{414, -16}";
},
{
name = top;
position = "{254, 1060}";
}
);
layerId = "FD1CEFBD-BAB1-4C2A-A598-30E93F9A29F6";
paths = (
{
closed = 1;
nodes = (
"442 144 LINE",
"390 156 OFFCURVE",
"332 194 OFFCURVE",
"332 278 CURVE SMOOTH",
"332 1060 LINE",
"156 1060 LINE",
"156 312 LINE SMOOTH",
"156 132 OFFCURVE",
"226 8 OFFCURVE",
"414 -16 CURVE"
);
}
);
width = 566;
}
);
rightKerningGroup = LAT_A_LC;
},
{
glyphname = jdotless;
lastChange = "2021-01-26 11:40:24 +0000";
layers = (
{
anchors = (
{
name = center;
position = "{256, 570}";
},
{
name = top;
position = "{256, 1048}";
}
);
layerId = "AB099EFE-E788-4EFC-8633-CF147CB782A6";
paths = (
{
closed = 1;
nodes = (
"208 -436 OFFCURVE",
"286 -306 OFFCURVE",
"286 -138 CURVE SMOOTH",
"286 1048 LINE",
"226 1048 LINE",
"226 -154 LINE SMOOTH",
"226 -272 OFFCURVE",
"168 -380 OFFCURVE",
"28 -380 CURVE SMOOTH",
"6 -380 OFFCURVE",
"-20 -378 OFFCURVE",
"-46 -368 CURVE",
"-46 -428 LINE",
"-18 -434 OFFCURVE",
"8 -436 OFFCURVE",
"32 -436 CURVE SMOOTH"
);
}
);
width = 460;
},
{
anchors = (
{
name = center;
position = "{312, 570}";
},
{
name = top;
position = "{308, 1080}";
}
);
layerId = "2D8F7115-C311-411E-929D-56333CF7FFB2";
paths = (
{
closed = 1;
nodes = (
"356 -444 OFFCURVE",
"488 -260 OFFCURVE",
"488 -10 CURVE SMOOTH",
"488 1080 LINE",
"132 1080 LINE",
"132 -34 LINE SMOOTH",
"132 -88 OFFCURVE",
"102 -130 OFFCURVE",
"20 -130 CURVE SMOOTH",
"-8 -130 OFFCURVE",
"-48 -126 OFFCURVE",
"-78 -112 CURVE",
"-78 -428 LINE",
"-30 -438 OFFCURVE",
"30 -444 OFFCURVE",
"78 -444 CURVE SMOOTH"
);
}
);
width = 582;
},
{
anchors = (
{
name = center;
position = "{280, 570}";
},
{
name = top;
position = "{280, 1060}";
}
);
layerId = "FD1CEFBD-BAB1-4C2A-A598-30E93F9A29F6";
paths = (
{
closed = 1;
nodes = (
"272 -436 OFFCURVE",
"366 -302 OFFCURVE",
"366 -124 CURVE SMOOTH",
"366 1060 LINE",
"194 1060 LINE",
"194 -108 LINE SMOOTH",
"194 -216 OFFCURVE",
"142 -272 OFFCURVE",
"44 -272 CURVE SMOOTH",
"18 -272 OFFCURVE",
"-18 -268 OFFCURVE",
"-48 -260 CURVE",
"-48 -424 LINE",
"-14 -432 OFFCURVE",
"18 -436 OFFCURVE",
"56 -436 CURVE SMOOTH"
);
}
);
width = 516;
}
);
leftKerningGroup = LAT_J_LC;
rightKerningGroup = LAT_J_LC;
unicode = 0237;
},
{
glyphname = k;
lastChange = "2021-01-26 09:48:34 +0000";
layers = (
{
anchors = (
{
name = bottom;
position = "{522, 0}";
},
{
name = top;
position = "{198, 1540}";
}
);
layerId = "AB099EFE-E788-4EFC-8633-CF147CB782A6";
paths = (
{
closed = 1;
nodes = (
"232 0 LINE",
"232 504 LINE",
"318 504 LINE",
"268 528 LINE",
"824 0 LINE",
"912 0 LINE",
"328 552 LINE",
"328 516 LINE",
"872 1048 LINE",
"786 1048 LINE",
"268 540 LINE",
"318 566 LINE",
"232 566 LINE",
"232 1540 LINE",
"172 1540 LINE",
"172 0 LINE"
);
}
);
width = 976;
},
{
anchors = (
{
name = bottom;
position = "{614, 0}";
},
{
name = top;
position = "{270, 1540}";
}
);
layerId = "2D8F7115-C311-411E-929D-56333CF7FFB2";
paths = (
{
closed = 1;
nodes = (
"446 0 LINE",
"446 454 LINE",
"532 454 LINE",
"422 508 LINE",
"806 0 LINE",
"1220 0 LINE",
"684 668 LINE",
"684 462 LINE",
"1200 1082 LINE",
"786 1082 LINE",
"426 606 LINE",
"532 660 LINE",
"446 660 LINE",
"446 1540 LINE",
"90 1540 LINE",
"90 0 LINE"
);
}
);
width = 1204;
},
{
anchors = (
{
name = bottom;
position = "{550, 0}";
},
{
name = top;
position = "{224, 1516}";
}
);
layerId = "FD1CEFBD-BAB1-4C2A-A598-30E93F9A29F6";
paths = (
{
closed = 1;
nodes = (
"310 0 LINE",
"310 480 LINE",
"396 480 LINE",
"318 528 LINE",
"810 0 LINE",
"1034 0 LINE",
"474 602 LINE",
"474 508 LINE",
"1002 1060 LINE",
"776 1060 LINE",
"318 582 LINE",
"396 626 LINE",
"310 626 LINE",
"310 1540 LINE",
"138 1540 LINE",
"138 0 LINE"
);
}
);
width = 1066;
}
);
leftKerningGroup = LAT_H_UC;
leftMetricsKey = h;
rightKerningGroup = LAT_K_LC;
unicode = 006B;
},
{
glyphname = kgreenlandic;
lastChange = "2021-01-26 09:48:34 +0000";
layers = (
{
anchors = (
{
name = bottom;
position = "{494, 0}";
},
{
name = top;
position = "{494, 1048}";
}
);
layerId = "AB099EFE-E788-4EFC-8633-CF147CB782A6";
paths = (
{
closed = 1;
nodes = (
"232 0 LINE",
"232 504 LINE",
"314 504 LINE",
"264 528 LINE",
"820 0 LINE",
"908 0 LINE",
"324 552 LINE",
"324 516 LINE",
"868 1048 LINE",
"782 1048 LINE",
"264 540 LINE",
"314 566 LINE",
"232 566 LINE",
"232 1048 LINE",
"172 1048 LINE",
"172 0 LINE"
);
}
);
width = 972;
},
{
anchors = (
{
name = bottom;
position = "{594, 0}";
},
{
name = top;
position = "{594, 1080}";
}
);
layerId = "2D8F7115-C311-411E-929D-56333CF7FFB2";
paths = (
{
closed = 1;
nodes = (
"446 0 LINE",
"446 454 LINE",
"520 454 LINE",
"410 508 LINE",
"794 0 LINE",
"1208 0 LINE",
"672 668 LINE",
"672 462 LINE",
"1188 1082 LINE",
"766 1082 LINE",
"410 606 LINE",
"520 660 LINE",
"446 660 LINE",
"446 1082 LINE",
"90 1082 LINE",
"90 0 LINE"
);
}
);
width = 1192;
},
{
anchors = (
{
name = bottom;
position = "{526, 0}";
},
{
name = top;
position = "{526, 1060}";
}
);
layerId = "FD1CEFBD-BAB1-4C2A-A598-30E93F9A29F6";
paths = (
{
closed = 1;
nodes = (
"310 0 LINE",
"310 458 LINE",
"396 458 LINE",
"318 508 LINE",
"810 0 LINE",
"1034 0 LINE",
"474 582 LINE",
"474 488 LINE",
"1002 1060 LINE",
"776 1060 LINE",
"318 562 LINE",
"396 606 LINE",
"310 606 LINE",
"310 1060 LINE",
"138 1060 LINE",
"138 0 LINE"
);
}
);
width = 1066;
}
);
leftKerningGroup = LAT_N_LC;
leftMetricsKey = n;
rightKerningGroup = LAT_K_LC;
rightMetricsKey = k;
unicode = 0138;
},
{
glyphname = l;
lastChange = "2021-01-26 09:48:34 +0000";
layers = (
{
anchors = (
{
name = bottom;
position = "{278, 0}";
},
{
name = center;
position = "{206, 738}";
},
{
name = dot;
position = "{478, 738}";
},
{
name = top;
position = "{206, 1540}";
},
{
name = topright;
position = "{240, 1540}";
}
);
layerId = "AB099EFE-E788-4EFC-8633-CF147CB782A6";
paths = (
{
closed = 1;
nodes = (
"334 -8 OFFCURVE",
"364 -4 OFFCURVE",
"384 4 CURVE",
"384 64 LINE",
"372 56 OFFCURVE",
"342 48 OFFCURVE",
"314 48 CURVE SMOOTH",
"236 48 OFFCURVE",
"236 112 OFFCURVE",
"236 174 CURVE SMOOTH",
"236 1540 LINE",
"176 1540 LINE",
"176 174 LINE SMOOTH",
"176 50 OFFCURVE",
"210 -8 OFFCURVE",
"310 -8 CURVE SMOOTH"
);
}
);
width = 448;
},
{
anchors = (
{
name = bottom;
position = "{328, 0}";
},
{
name = center;
position = "{270, 786}";
},
{
name = dot;
position = "{790, 754}";
},
{
name = top;
position = "{270, 1540}";
},
{
name = topright;
position = "{450, 1540}";
}
);
guideLines = (
{
angle = 100;
position = "{260, -12}";
}
);
layerId = "2D8F7115-C311-411E-929D-56333CF7FFB2";
paths = (
{
closed = 1;
nodes = (
"456 -16 OFFCURVE",
"516 -4 OFFCURVE",
"562 12 CURVE",
"562 286 LINE",
"554 284 OFFCURVE",
"538 280 OFFCURVE",
"520 278 CURVE SMOOTH",
"472 280 OFFCURVE",
"452 320 OFFCURVE",
"450 356 CURVE SMOOTH",
"450 1540 LINE",
"94 1540 LINE",
"94 294 LINE SMOOTH",
"94 132 OFFCURVE",
"198 -16 OFFCURVE",
"398 -16 CURVE SMOOTH"
);
}
);
width = 594;
},
{
anchors = (
{
name = bottom;
position = "{294, 0}";
},
{
name = center;
position = "{236, 774}";
},
{
name = dot;
position = "{596, 746}";
},
{
name = top;
position = "{232, 1540}";
},
{
name = topright;
position = "{318, 1540}";
}
);
layerId = "FD1CEFBD-BAB1-4C2A-A598-30E93F9A29F6";
paths = (
{
closed = 1;
nodes = (
"388 -16 OFFCURVE",
"420 -12 OFFCURVE",
"440 -4 CURVE",
"440 152 LINE",
"424 148 OFFCURVE",
"408 144 OFFCURVE",
"392 144 CURVE SMOOTH",
"314 144 OFFCURVE",
"314 210 OFFCURVE",
"314 250 CURVE SMOOTH",
"314 1540 LINE",
"142 1540 LINE",
"142 254 LINE SMOOTH",
"142 82 OFFCURVE",
"208 -16 OFFCURVE",
"358 -16 CURVE SMOOTH"
);
}
);
width = 504;
}
);
leftKerningGroup = LAT_L_LC;
leftMetricsKey = "=h+4";
rightKerningGroup = LAT_L_LC;
unicode = 006C;
},
{
color = 4;
glyphname = l.ss01;
lastChange = "2021-01-26 09:48:34 +0000";
layers = (
{
anchors = (
{
name = bottom;
position = "{224, 0}";
},
{
name = center;
position = "{220, 738}";
},
{
name = dot;
position = "{474, 738}";
},
{
name = top;
position = "{220, 1540}";
},
{
name = topright;
position = "{252, 1540}";
}
);
layerId = "AB099EFE-E788-4EFC-8633-CF147CB782A6";
paths = (
{
closed = 1;
nodes = (
"252 0 LINE",
"252 1540 LINE",
"192 1540 LINE",
"192 0 LINE"
);
}
);
width = 444;
},
{
anchors = (
{
name = bottom;
position = "{290, 0}";
},
{
name = center;
position = "{290, 786}";
},
{
name = dot;
position = "{786, 754}";
},
{
name = top;
position = "{290, 1540}";
},
{
name = topright;
position = "{466, 1540}";
}
);
layerId = "2D8F7115-C311-411E-929D-56333CF7FFB2";
paths = (
{
closed = 1;
nodes = (
"466 0 LINE",
"466 1540 LINE",
"110 1540 LINE",
"110 0 LINE"
);
}
);
width = 578;
},
{
anchors = (
{
name = bottom;
position = "{240, 0}";
},
{
name = center;
position = "{240, 758}";
},
{
name = dot;
position = "{584, 746}";
},
{
name = top;
position = "{240, 1540}";
},
{
name = topright;
position = "{326, 1540}";
}
);
layerId = "FD1CEFBD-BAB1-4C2A-A598-30E93F9A29F6";
paths = (
{
closed = 1;
nodes = (
"326 0 LINE",
"326 1540 LINE",
"154 1540 LINE",
"154 0 LINE"
);
}
);
width = 480;
}
);
leftKerningGroup = LAT_H_UC;
rightKerningGroup = LAT_H_UC;
},
{
glyphname = m;
lastChange = "2021-01-26 09:48:34 +0000";
layers = (
{
anchors = (
{
name = bottom;
position = "{834, 0}";
},
{
name = leghookleft;
position = "{1470, 0}";
},
{
name = top;
position = "{838, 1048}";
}
);
background = {
paths = (
{
closed = 1;
nodes = (
"234 0 LINE",
"234 652 LINE SMOOTH",
"233 815 OFFCURVE",
"360 1008 OFFCURVE",
"558 1008 CURVE SMOOTH",
"680 1008 OFFCURVE",
"811 930 OFFCURVE",
"812 680 CURVE SMOOTH",
"812 0 LINE",
"872 0 LINE",
"872 676 LINE SMOOTH",
"872 819 OFFCURVE",
"995 1008 OFFCURVE",
"1192 1008 CURVE SMOOTH",
"1323 1008 OFFCURVE",
"1442 930 OFFCURVE",
"1442 668 CURVE SMOOTH",
"1442 0 LINE",
"1504 0 LINE",
"1504 688 LINE SMOOTH",
"1503 954 OFFCURVE",
"1360 1065 OFFCURVE",
"1188 1064 CURVE SMOOTH",
"999 1065 OFFCURVE",
"889 934 OFFCURVE",
"852 828 CURVE",
"876 840 LINE",
"832 840 LINE",
"860 820 LINE",
"823 971 OFFCURVE",
"700 1065 OFFCURVE",
"552 1064 CURVE SMOOTH",
"393 1065 OFFCURVE",
"283 958 OFFCURVE",
"222 824 CURVE",
"246 856 LINE",
"234 856 LINE",
"234 1048 LINE",
"172 1048 LINE",
"172 0 LINE"
);
}
);
};
guideLines = (
{
angle = 60;
position = "{110, 358}";
}
);
layerId = "AB099EFE-E788-4EFC-8633-CF147CB782A6";
paths = (
{
closed = 1;
nodes = (
"232 0 LINE",
"232 684 LINE SMOOTH",
"232 882 OFFCURVE",
"360 1008 OFFCURVE",
"526 1008 CURVE SMOOTH",
"680 1008 OFFCURVE",
"806 902 OFFCURVE",
"806 720 CURVE SMOOTH",
"806 0 LINE",
"866 0 LINE",
"866 720 LINE SMOOTH",
"866 902 OFFCURVE",
"1006 1008 OFFCURVE",
"1164 1008 CURVE SMOOTH",
"1320 1008 OFFCURVE",
"1442 902 OFFCURVE",
"1442 720 CURVE SMOOTH",
"1442 0 LINE",
"1502 0 LINE",
"1502 720 LINE SMOOTH",
"1502 926 OFFCURVE",
"1362 1064 OFFCURVE",
"1164 1064 CURVE SMOOTH",
"1016 1064 OFFCURVE",
"870 984 OFFCURVE",
"822 836 CURVE",
"858 872 LINE",
"810 872 LINE",
"846 836 LINE",
"802 984 OFFCURVE",
"680 1064 OFFCURVE",
"526 1064 CURVE SMOOTH",
"400 1064 OFFCURVE",
"280 1002 OFFCURVE",
"220 860 CURVE",
"248 898 LINE",
"232 898 LINE",
"232 1048 LINE",
"172 1048 LINE",
"172 0 LINE"
);
}
);
width = 1666;
},
{
anchors = (
{
name = bottom;
position = "{892, 0}";
},
{
name = leghookleft;
position = "{1496, 0}";
},
{
name = top;
position = "{888, 1080}";
}
);
layerId = "2D8F7115-C311-411E-929D-56333CF7FFB2";
paths = (
{
closed = 1;
nodes = (
"446 0 LINE",
"446 644 LINE SMOOTH",
"446 750 OFFCURVE",
"500 806 OFFCURVE",
"582 806 CURVE SMOOTH",
"664 806 OFFCURVE",
"704 746 OFFCURVE",
"704 644 CURVE SMOOTH",
"704 0 LINE",
"1060 0 LINE",
"1060 644 LINE SMOOTH",
"1060 750 OFFCURVE",
"1114 806 OFFCURVE",
"1196 806 CURVE SMOOTH",
"1278 806 OFFCURVE",
"1318 746 OFFCURVE",
"1318 644 CURVE SMOOTH",
"1318 0 LINE",
"1676 0 LINE",
"1676 684 LINE SMOOTH",
"1676 854 OFFCURVE",
"1620 1096 OFFCURVE",
"1324 1096 CURVE SMOOTH",
"1176 1096 OFFCURVE",
"1044 1034 OFFCURVE",
"962 912 CURVE",
"1008 946 LINE",
"966 946 LINE",
"1000 912 LINE",
"946 1036 OFFCURVE",
"856 1096 OFFCURVE",
"726 1096 CURVE SMOOTH",
"560 1096 OFFCURVE",
"440 1000 OFFCURVE",
"364 816 CURVE",
"472 940 LINE",
"426 940 LINE",
"426 1080 LINE",
"90 1080 LINE",
"90 0 LINE"
);
}
);
width = 1758;
},
{
anchors = (
{
name = bottom;
position = "{854, 0}";
},
{
name = leghookleft;
position = "{1476, 0}";
},
{
name = top;
position = "{882, 1060}";
}
);
layerId = "FD1CEFBD-BAB1-4C2A-A598-30E93F9A29F6";
paths = (
{
closed = 1;
nodes = (
"310 0 LINE",
"310 648 LINE SMOOTH",
"310 828 OFFCURVE",
"420 916 OFFCURVE",
"546 916 CURVE SMOOTH",
"678 916 OFFCURVE",
"768 828 OFFCURVE",
"768 656 CURVE SMOOTH",
"768 0 LINE",
"940 0 LINE",
"940 656 LINE SMOOTH",
"940 832 OFFCURVE",
"1052 916 OFFCURVE",
"1178 916 CURVE SMOOTH",
"1310 916 OFFCURVE",
"1398 828 OFFCURVE",
"1398 656 CURVE SMOOTH",
"1398 0 LINE",
"1570 0 LINE",
"1570 692 LINE SMOOTH",
"1570 906 OFFCURVE",
"1444 1076 OFFCURVE",
"1206 1076 CURVE SMOOTH",
"1052 1076 OFFCURVE",
"908 1004 OFFCURVE",
"850 856 CURVE",
"944 926 LINE",
"834 926 LINE",
"912 856 LINE",
"876 984 OFFCURVE",
"760 1076 OFFCURVE",
"600 1076 CURVE SMOOTH",
"444 1076 OFFCURVE",
"318 988 OFFCURVE",
"268 840 CURVE",
"342 934 LINE",
"310 934 LINE",
"310 1060 LINE",
"138 1060 LINE",
"138 0 LINE"
);
}
);
width = 1702;
}
);
leftKerningGroup = LAT_N_LC;
leftMetricsKey = n;
rightKerningGroup = LAT_N_LC;
rightMetricsKey = n;
unicode = 006D;
},
{
glyphname = n;
lastChange = "2021-01-26 09:48:34 +0000";
layers = (
{
anchors = (
{
name = bottom;
position = "{586, 0}";
},
{
name = leghookleft;
position = "{202, 0}";
},
{
name = leghookretroflex;
position = "{926, 0}";
},
{
name = top;
position = "{590, 1048}";
}
);
layerId = "AB099EFE-E788-4EFC-8633-CF147CB782A6";
paths = (
{
closed = 1;
nodes = (
"232 0 LINE",
"232 668 LINE SMOOTH",
"232 848 OFFCURVE",
"384 1008 OFFCURVE",
"594 1008 CURVE SMOOTH",
"776 1008 OFFCURVE",
"892 892 OFFCURVE",
"892 660 CURVE SMOOTH",
"892 0 LINE",
"952 0 LINE",
"952 676 LINE SMOOTH",
"952 932 OFFCURVE",
"812 1064 OFFCURVE",
"592 1064 CURVE SMOOTH",
"402 1064 OFFCURVE",
"268 958 OFFCURVE",
"216 824 CURVE",
"260 868 LINE",
"232 868 LINE",
"232 1048 LINE",
"172 1048 LINE",
"172 0 LINE"
);
}
);
width = 1116;
},
{
anchors = (
{
name = bottom;
position = "{594, 0}";
},
{
name = leghookleft;
position = "{266, 0}";
},
{
name = leghookretroflex;
position = "{930, 0}";
},
{
name = top;
position = "{630, 1080}";
}
);
layerId = "2D8F7115-C311-411E-929D-56333CF7FFB2";
paths = (
{
closed = 1;
nodes = (
"446 0 LINE",
"446 628 LINE SMOOTH",
"446 744 OFFCURVE",
"516 806 OFFCURVE",
"606 804 CURVE SMOOTH",
"696 806 OFFCURVE",
"754 748 OFFCURVE",
"754 632 CURVE SMOOTH",
"754 0 LINE",
"1110 0 LINE",
"1110 710 LINE SMOOTH",
"1110 948 OFFCURVE",
"972 1096 OFFCURVE",
"770 1096 CURVE SMOOTH",
"590 1096 OFFCURVE",
"426 998 OFFCURVE",
"390 814 CURVE",
"484 936 LINE",
"434 936 LINE",
"434 1080 LINE",
"90 1080 LINE",
"90 0 LINE"
);
}
);
width = 1192;
},
{
anchors = (
{
name = bottom;
position = "{586, 0}";
},
{
name = leghookleft;
position = "{246, 0}";
},
{
name = leghookretroflex;
position = "{930, 0}";
},
{
name = top;
position = "{622, 1074}";
}
);
associatedMasterId = "AB099EFE-E788-4EFC-8633-CF147CB782A6";
layerId = "F3CDA97A-5939-4999-94BA-ABB8D23516F0";
name = "{140}";
paths = (
{
closed = 1;
nodes = (
"386 0 LINE",
"386 638 LINE SMOOTH",
"385 778 OFFCURVE",
"479 856 OFFCURVE",
"600 856 CURVE SMOOTH",
"717 856 OFFCURVE",
"795 782 OFFCURVE",
"794 638 CURVE SMOOTH",
"794 0 LINE",
"1070 0 LINE",
"1070 700 LINE SMOOTH",
"1069 913 OFFCURVE",
"942 1090 OFFCURVE",
"716 1090 CURVE SMOOTH",
"537 1090 OFFCURVE",
"385 999 OFFCURVE",
"340 836 CURVE",
"426 934 LINE",
"376 934 LINE",
"376 1074 LINE",
"110 1074 LINE",
"110 0 LINE"
);
}
);
width = 1172;
},
{
anchors = (
{
name = bottom;
position = "{580, 0}";
},
{
name = leghookleft;
position = "{224, 0}";
},
{
name = leghookretroflex;
position = "{920, 0}";
},
{
name = top;
position = "{608, 1060}";
}
);
layerId = "FD1CEFBD-BAB1-4C2A-A598-30E93F9A29F6";
paths = (
{
closed = 1;
nodes = (
"310 0 LINE",
"310 644 LINE SMOOTH",
"310 820 OFFCURVE",
"432 916 OFFCURVE",
"588 916 CURVE SMOOTH",
"744 916 OFFCURVE",
"838 824 OFFCURVE",
"838 644 CURVE SMOOTH",
"838 0 LINE",
"1010 0 LINE",
"1010 680 LINE SMOOTH",
"1010 872 OFFCURVE",
"904 1076 OFFCURVE",
"636 1076 CURVE SMOOTH",
"470 1076 OFFCURVE",
"330 1000 OFFCURVE",
"276 856 CURVE",
"350 930 LINE",
"310 930 LINE",
"310 1060 LINE",
"138 1060 LINE",
"138 0 LINE"
);
}
);
width = 1142;
}
);
leftKerningGroup = LAT_N_LC;
rightKerningGroup = LAT_N_LC;
unicode = 006E;
},
{
glyphname = o;
lastChange = "2021-01-26 10:51:21 +0000";
layers = (
{
anchors = (
{
name = bottom;
position = "{624, 0}";
},
{
name = center;
position = "{628, 524}";
},
{
name = horn;
position = "{854, 1012}";
},
{
name = ogonek;
position = "{756, 0}";
},
{
name = top;
position = "{624, 1048}";
},
{
name = topright;
position = "{1214, 1048}";
}
);
layerId = "AB099EFE-E788-4EFC-8633-CF147CB782A6";
paths = (
{
closed = 1;
nodes = (
"922 -16 OFFCURVE",
"1132 218 OFFCURVE",
"1132 524 CURVE SMOOTH",
"1132 840 OFFCURVE",
"922 1064 OFFCURVE",
"624 1064 CURVE SMOOTH",
"326 1064 OFFCURVE",
"116 840 OFFCURVE",
"116 524 CURVE SMOOTH",
"116 218 OFFCURVE",
"326 -16 OFFCURVE",
"624 -16 CURVE SMOOTH"
);
},
{
closed = 1;
nodes = (
"370 40 OFFCURVE",
"176 242 OFFCURVE",
"176 524 CURVE SMOOTH",
"176 812 OFFCURVE",
"370 1008 OFFCURVE",
"624 1008 CURVE SMOOTH",
"888 1008 OFFCURVE",
"1072 812 OFFCURVE",
"1072 524 CURVE SMOOTH",
"1072 242 OFFCURVE",
"888 40 OFFCURVE",
"624 40 CURVE SMOOTH"
);
}
);
width = 1248;
},
{
anchors = (
{
name = bottom;
position = "{614, 0}";
},
{
name = center;
position = "{614, 540}";
},
{
name = horn;
position = "{922, 1016}";
},
{
name = ogonek;
position = "{758, 0}";
},
{
name = top;
position = "{614, 1080}";
},
{
name = topright;
position = "{1192, 1080}";
}
);
layerId = "2D8F7115-C311-411E-929D-56333CF7FFB2";
paths = (
{
closed = 1;
nodes = (
"934 -16 OFFCURVE",
"1188 214 OFFCURVE",
"1188 540 CURVE SMOOTH",
"1188 868 OFFCURVE",
"934 1098 OFFCURVE",
"614 1098 CURVE SMOOTH",
"300 1098 OFFCURVE",
"46 868 OFFCURVE",
"40 540 CURVE SMOOTH",
"46 214 OFFCURVE",
"300 -16 OFFCURVE",
"614 -16 CURVE SMOOTH"
);
},
{
closed = 1;
nodes = (
"482 286 OFFCURVE",
"378 388 OFFCURVE",
"376 540 CURVE SMOOTH",
"376 690 OFFCURVE",
"480 798 OFFCURVE",
"616 798 CURVE SMOOTH",
"756 798 OFFCURVE",
"852 686 OFFCURVE",
"852 540 CURVE SMOOTH",
"852 388 OFFCURVE",
"748 286 OFFCURVE",
"614 284 CURVE SMOOTH"
);
}
);
width = 1228;
},
{
anchors = (
{
name = bottom;
position = "{596, 0}";
},
{
name = center;
position = "{596, 528}";
},
{
name = horn;
position = "{846, 1016}";
},
{
name = ogonek;
position = "{732, 0}";
},
{
name = top;
position = "{596, 1060}";
},
{
name = topright;
position = "{1166, 1060}";
}
);
layerId = "FD1CEFBD-BAB1-4C2A-A598-30E93F9A29F6";
paths = (
{
closed = 1;
nodes = (
"892 -16 OFFCURVE",
"1112 210 OFFCURVE",
"1112 536 CURVE SMOOTH",
"1112 856 OFFCURVE",
"896 1076 OFFCURVE",
"596 1076 CURVE SMOOTH",
"298 1076 OFFCURVE",
"80 856 OFFCURVE",
"80 536 CURVE SMOOTH",
"80 210 OFFCURVE",
"298 -16 OFFCURVE",
"596 -16 CURVE SMOOTH"
);
},
{
closed = 1;
nodes = (
"396 148 OFFCURVE",
"256 300 OFFCURVE",
"256 536 CURVE SMOOTH",
"256 766 OFFCURVE",
"400 916 OFFCURVE",
"596 916 CURVE SMOOTH",
"794 916 OFFCURVE",
"936 766 OFFCURVE",
"936 536 CURVE SMOOTH",
"936 300 OFFCURVE",
"794 148 OFFCURVE",
"596 144 CURVE SMOOTH"
);
}
);
width = 1192;
}
);
leftKerningGroup = LAT_O_LC;
rightKerningGroup = LAT_O_LC;
unicode = 006F;
},
{
color = 4;
glyphname = o.ss01;
lastChange = "2021-01-26 10:51:44 +0000";
layers = (
{
anchors = (
{
name = bottom;
position = "{626, 0}";
},
{
name = center;
position = "{626, 524}";
},
{
name = horn;
position = "{854, 1012}";
},
{
name = ogonek;
position = "{734, 0}";
},
{
name = top;
position = "{626, 1048}";
},
{
name = topright;
position = "{1232, 1048}";
}
);
layerId = "AB099EFE-E788-4EFC-8633-CF147CB782A6";
paths = (
{
closed = 1;
nodes = (
"916 -16 OFFCURVE",
"1156 226 OFFCURVE",
"1156 528 CURVE SMOOTH",
"1156 828 OFFCURVE",
"916 1064 OFFCURVE",
"626 1064 CURVE SMOOTH",
"336 1064 OFFCURVE",
"98 826 OFFCURVE",
"98 528 CURVE SMOOTH",
"98 226 OFFCURVE",
"336 -16 OFFCURVE",
"626 -16 CURVE SMOOTH"
);
},
{
closed = 1;
nodes = (
"368 38 OFFCURVE",
"158 262 OFFCURVE",
"158 528 CURVE SMOOTH",
"158 796 OFFCURVE",
"368 1008 OFFCURVE",
"626 1008 CURVE SMOOTH",
"886 1008 OFFCURVE",
"1096 796 OFFCURVE",
"1096 528 CURVE SMOOTH",
"1096 258 OFFCURVE",
"886 38 OFFCURVE",
"626 38 CURVE SMOOTH"
);
}
);
width = 1254;
},
{
anchors = (
{
name = bottom;
position = "{598, 0}";
},
{
name = center;
position = "{598, 540}";
},
{
name = horn;
position = "{896, 1016}";
},
{
name = ogonek;
position = "{720, 0}";
},
{
name = top;
position = "{602, 1080}";
},
{
name = topright;
position = "{1204, 1080}";
}
);
layerId = "2D8F7115-C311-411E-929D-56333CF7FFB2";
paths = (
{
closed = 1;
nodes = (
"918 -16 OFFCURVE",
"1172 230 OFFCURVE",
"1172 540 CURVE SMOOTH",
"1172 850 OFFCURVE",
"918 1096 OFFCURVE",
"598 1096 CURVE SMOOTH",
"280 1096 OFFCURVE",
"26 850 OFFCURVE",
"24 540 CURVE SMOOTH",
"26 230 OFFCURVE",
"280 -16 OFFCURVE",
"598 -16 CURVE SMOOTH"
);
},
{
closed = 1;
nodes = (
"466 284 OFFCURVE",
"360 400 OFFCURVE",
"360 542 CURVE SMOOTH",
"360 682 OFFCURVE",
"466 796 OFFCURVE",
"598 796 CURVE SMOOTH",
"730 796 OFFCURVE",
"836 682 OFFCURVE",
"836 540 CURVE SMOOTH",
"836 402 OFFCURVE",
"734 284 OFFCURVE",
"598 284 CURVE SMOOTH"
);
}
);
width = 1196;
},
{
anchors = (
{
name = bottom;
position = "{614, 0}";
},
{
name = center;
position = "{614, 532}";
},
{
name = horn;
position = "{864, 1016}";
},
{
name = ogonek;
position = "{726, 0}";
},
{
name = top;
position = "{614, 1060}";
},
{
name = topright;
position = "{1220, 1060}";
}
);
layerId = "FD1CEFBD-BAB1-4C2A-A598-30E93F9A29F6";
paths = (
{
closed = 1;
nodes = (
"914 -16 OFFCURVE",
"1160 230 OFFCURVE",
"1160 536 CURVE SMOOTH",
"1160 840 OFFCURVE",
"914 1076 OFFCURVE",
"614 1076 CURVE SMOOTH",
"308 1076 OFFCURVE",
"70 840 OFFCURVE",
"70 536 CURVE SMOOTH",
"70 230 OFFCURVE",
"308 -16 OFFCURVE",
"614 -16 CURVE SMOOTH"
);
},
{
closed = 1;
nodes = (
"402 144 OFFCURVE",
"242 320 OFFCURVE",
"242 536 CURVE SMOOTH",
"242 750 OFFCURVE",
"402 916 OFFCURVE",
"614 916 CURVE SMOOTH",
"820 916 OFFCURVE",
"988 754 OFFCURVE",
"988 540 CURVE SMOOTH",
"988 320 OFFCURVE",
"820 144 OFFCURVE",
"614 144 CURVE SMOOTH"
);
}
);
width = 1230;
}
);
leftKerningGroup = LAT_O_LC;
rightKerningGroup = LAT_O_LC;
},
{
glyphname = oe;
lastChange = "2021-01-26 09:48:34 +0000";
layers = (
{
anchors = (
{
name = top;
position = "{1016, 1048}";
}
);
layerId = "AB099EFE-E788-4EFC-8633-CF147CB782A6";
paths = (
{
closed = 1;
nodes = (
"856 -16 OFFCURVE",
"1046 218 OFFCURVE",
"1046 526 CURVE SMOOTH",
"1046 828 OFFCURVE",
"862 1064 OFFCURVE",
"590 1064 CURVE SMOOTH",
"312 1064 OFFCURVE",
"116 822 OFFCURVE",
"116 524 CURVE SMOOTH",
"116 218 OFFCURVE",
"322 -16 OFFCURVE",
"592 -16 CURVE SMOOTH"
);
},
{
closed = 1;
nodes = (
"356 40 OFFCURVE",
"176 246 OFFCURVE",
"176 524 CURVE SMOOTH",
"176 810 OFFCURVE",
"366 1008 OFFCURVE",
"592 1008 CURVE SMOOTH",
"824 1008 OFFCURVE",
"986 802 OFFCURVE",
"986 526 CURVE SMOOTH",
"986 250 OFFCURVE",
"822 40 OFFCURVE",
"588 40 CURVE SMOOTH"
);
},
{
closed = 1;
nodes = (
"1580 -16 OFFCURVE",
"1694 38 OFFCURVE",
"1780 118 CURVE",
"1756 182 LINE",
"1682 100 OFFCURVE",
"1558 40 OFFCURVE",
"1436 40 CURVE SMOOTH",
"1230 40 OFFCURVE",
"1046 214 OFFCURVE",
"1050 528 CURVE SMOOTH",
"1054 788 OFFCURVE",
"1194 1008 OFFCURVE",
"1428 1008 CURVE SMOOTH",
"1636 1008 OFFCURVE",
"1782 824 OFFCURVE",
"1778 562 CURVE",
"1034 562 LINE",
"1034 506 LINE",
"1838 506 LINE",
"1842 548 OFFCURVE",
"1842 534 OFFCURVE",
"1842 548 CURVE SMOOTH",
"1842 858 OFFCURVE",
"1678 1064 OFFCURVE",
"1428 1064 CURVE SMOOTH",
"1156 1064 OFFCURVE",
"990 824 OFFCURVE",
"990 522 CURVE SMOOTH",
"990 202 OFFCURVE",
"1174 -16 OFFCURVE",
"1444 -16 CURVE SMOOTH"
);
}
);
width = 1952;
},
{
anchors = (
{
name = top;
position = "{950, 1080}";
}
);
layerId = "2D8F7115-C311-411E-929D-56333CF7FFB2";
paths = (
{
closed = 1;
nodes = (
"886 -16 OFFCURVE",
"1094 262 OFFCURVE",
"1094 540 CURVE SMOOTH",
"1094 816 OFFCURVE",
"886 1096 OFFCURVE",
"570 1096 CURVE SMOOTH",
"276 1096 OFFCURVE",
"40 852 OFFCURVE",
"40 544 CURVE SMOOTH",
"42 226 OFFCURVE",
"284 -16 OFFCURVE",
"574 -16 CURVE SMOOTH"
);
},
{
closed = 1;
nodes = (
"456 274 OFFCURVE",
"370 382 OFFCURVE",
"368 540 CURVE SMOOTH",
"370 700 OFFCURVE",
"456 804 OFFCURVE",
"588 802 CURVE SMOOTH",
"714 802 OFFCURVE",
"798 706 OFFCURVE",
"798 542 CURVE SMOOTH",
"798 378 OFFCURVE",
"714 274 OFFCURVE",
"586 274 CURVE SMOOTH"
);
},
{
closed = 1;
nodes = (
"1480 -16 OFFCURVE",
"1626 16 OFFCURVE",
"1696 66 CURVE",
"1594 324 LINE",
"1524 274 OFFCURVE",
"1450 254 OFFCURVE",
"1372 254 CURVE SMOOTH",
"1258 254 OFFCURVE",
"1078 300 OFFCURVE",
"1078 560 CURVE SMOOTH",
"1078 782 OFFCURVE",
"1210 848 OFFCURVE",
"1308 848 CURVE SMOOTH",
"1424 848 OFFCURVE",
"1504 758 OFFCURVE",
"1504 638 CURVE",
"1048 638 LINE",
"1048 434 LINE",
"1790 434 LINE",
"1798 476 OFFCURVE",
"1802 528 OFFCURVE",
"1802 574 CURVE SMOOTH",
"1802 964 OFFCURVE",
"1540 1096 OFFCURVE",
"1332 1096 CURVE SMOOTH",
"1054 1096 OFFCURVE",
"816 864 OFFCURVE",
"816 530 CURVE SMOOTH",
"816 214 OFFCURVE",
"1028 -16 OFFCURVE",
"1358 -16 CURVE SMOOTH"
);
}
);
width = 1842;
},
{
anchors = (
{
name = top;
position = "{980, 1060}";
}
);
layerId = "FD1CEFBD-BAB1-4C2A-A598-30E93F9A29F6";
paths = (
{
closed = 1;
nodes = (
"854 -16 OFFCURVE",
"1056 218 OFFCURVE",
"1054 532 CURVE SMOOTH",
"1052 856 OFFCURVE",
"840 1076 OFFCURVE",
"568 1076 CURVE SMOOTH",
"288 1076 OFFCURVE",
"80 840 OFFCURVE",
"80 540 CURVE SMOOTH",
"80 236 OFFCURVE",
"294 -16 OFFCURVE",
"580 -16 CURVE SMOOTH"
);
},
{
closed = 1;
nodes = (
"384 144 OFFCURVE",
"248 300 OFFCURVE",
"248 532 CURVE SMOOTH",
"248 762 OFFCURVE",
"384 916 OFFCURVE",
"576 916 CURVE SMOOTH",
"764 916 OFFCURVE",
"904 762 OFFCURVE",
"904 524 CURVE SMOOTH",
"904 296 OFFCURVE",
"776 144 OFFCURVE",
"580 144 CURVE SMOOTH"
);
},
{
closed = 1;
nodes = (
"1538 -16 OFFCURVE",
"1670 30 OFFCURVE",
"1746 102 CURVE",
"1682 258 LINE",
"1608 184 OFFCURVE",
"1518 144 OFFCURVE",
"1408 144 CURVE SMOOTH",
"1190 144 OFFCURVE",
"1064 296 OFFCURVE",
"1062 530 CURVE SMOOTH",
"1062 766 OFFCURVE",
"1190 916 OFFCURVE",
"1374 916 CURVE SMOOTH",
"1546 916 OFFCURVE",
"1648 778 OFFCURVE",
"1646 602 CURVE",
"1026 602 LINE",
"1026 462 LINE",
"1800 462 LINE",
"1804 488 OFFCURVE",
"1808 542 OFFCURVE",
"1808 582 CURVE SMOOTH",
"1808 878 OFFCURVE",
"1620 1076 OFFCURVE",
"1370 1076 CURVE SMOOTH",
"1112 1076 OFFCURVE",
"916 864 OFFCURVE",
"916 536 CURVE SMOOTH",
"916 226 OFFCURVE",
"1096 -16 OFFCURVE",
"1402 -16 CURVE SMOOTH"
);
}
);
width = 1896;
}
);
leftKerningGroup = LAT_O_LC;
leftMetricsKey = o;
rightKerningGroup = LAT_E_LC;
rightMetricsKey = e;
unicode = 0153;
},
{
glyphname = p;
lastChange = "2021-01-26 11:40:27 +0000";
layers = (
{
anchors = (
{
name = bottom;
position = "{202, -420}";
},
{
name = top;
position = "{614, 1048}";
}
);
components = (
{
name = _part.bowl;
}
);
layerId = "AB099EFE-E788-4EFC-8633-CF147CB782A6";
paths = (
{
closed = 1;
nodes = (
"232 224 LINE",
"256 224 LINE",
"224 330 LINE",
"224 748 LINE",
"264 834 LINE",
"232 834 LINE",
"232 1048 LINE",
"172 1048 LINE",
"172 -420 LINE",
"232 -420 LINE"
);
}
);
width = 1206;
},
{
anchors = (
{
name = bottom;
position = "{270, -420}";
},
{
name = top;
position = "{638, 1080}";
}
);
components = (
{
name = _part.bowl;
transform = "{1, 0, 0, 1, -24, 0}";
}
);
layerId = "2D8F7115-C311-411E-929D-56333CF7FFB2";
paths = (
{
closed = 1;
nodes = (
"450 90 LINE",
"504 90 LINE",
"426 212 LINE",
"426 862 LINE",
"476 982 LINE",
"430 982 LINE",
"430 1080 LINE",
"94 1080 LINE",
"94 -420 LINE",
"450 -420 LINE"
);
}
);
width = 1248;
},
{
anchors = (
{
name = bottom;
position = "{232, -420}";
},
{
name = top;
position = "{628, 1060}";
}
);
components = (
{
alignment = -1;
name = _part.bowl;
transform = "{1, 0, 0, 1, -10, 0}";
}
);
layerId = "FD1CEFBD-BAB1-4C2A-A598-30E93F9A29F6";
paths = (
{
closed = 1;
nodes = (
"310 144 LINE",
"342 144 LINE",
"280 266 LINE",
"280 824 LINE",
"334 922 LINE",
"310 922 LINE",
"310 1060 LINE",
"138 1060 LINE",
"138 -420 LINE",
"310 -420 LINE"
);
}
);
width = 1208;
}
);
leftKerningGroup = LAT_P_LC;
rightKerningGroup = LAT_O_LC;
rightMetricsKey = o;
unicode = 0070;
},
{
color = 4;
glyphname = p.ss01;
lastChange = "2021-01-26 11:41:11 +0000";
layers = (
{
anchors = (
{
name = bottom;
position = "{202, -420}";
},
{
name = top;
position = "{614, 1048}";
}
);
components = (
{
name = _part.bowl.ss01;
transform = "{1, 0, 0, 1, -4, 0}";
}
);
layerId = "AB099EFE-E788-4EFC-8633-CF147CB782A6";
paths = (
{
closed = 1;
nodes = (
"232 -420 LINE",
"232 244 LINE",
"244 244 LINE",
"228 304 LINE",
"228 778 LINE",
"252 810 LINE",
"232 810 LINE",
"232 1048 LINE",
"172 1048 LINE",
"172 -420 LINE"
);
}
);
width = 1276;
},
{
anchors = (
{
name = bottom;
position = "{270, -420}";
},
{
name = top;
position = "{638, 1080}";
}
);
components = (
{
name = _part.bowl.ss01;
transform = "{1, 0, 0, 1, -24, 0}";
}
);
layerId = "2D8F7115-C311-411E-929D-56333CF7FFB2";
paths = (
{
closed = 1;
nodes = (
"450 -424 LINE",
"450 106 LINE",
"476 106 LINE",
"430 212 LINE",
"430 866 LINE",
"476 960 LINE",
"430 960 LINE",
"430 1080 LINE",
"94 1080 LINE",
"94 -420 LINE"
);
}
);
width = 1286;
},
{
anchors = (
{
name = bottom;
position = "{232, -420}";
},
{
name = top;
position = "{632, 1060}";
}
);
components = (
{
alignment = -1;
name = _part.bowl.ss01;
transform = "{1, 0, 0, 1, -10, 0}";
}
);
layerId = "FD1CEFBD-BAB1-4C2A-A598-30E93F9A29F6";
paths = (
{
closed = 1;
nodes = (
"314 -420 LINE",
"314 148 LINE",
"338 148 LINE",
"302 274 LINE",
"302 836 LINE",
"330 908 LINE",
"310 908 LINE",
"310 1060 LINE",
"138 1060 LINE",
"138 -420 LINE"
);
}
);
width = 1274;
}
);
leftKerningGroup = LAT_P_LC;
rightKerningGroup = LAT_O_LC;
rightMetricsKey = o;
},
{
glyphname = thorn;
lastChange = "2021-01-26 09:48:34 +0000";
layers = (
{
anchors = (
{
name = bottom;
position = "{628, -4}";
},
{
name = top;
position = "{202, 1540}";
}
);
components = (
{
name = _part.bowl;
}
);
layerId = "AB099EFE-E788-4EFC-8633-CF147CB782A6";
paths = (
{
closed = 1;
nodes = (
"232 224 LINE",
"260 224 LINE",
"224 330 LINE",
"224 750 LINE",
"256 834 LINE",
"232 834 LINE",
"232 1540 LINE",
"172 1540 LINE",
"172 -420 LINE",
"232 -420 LINE"
);
}
);
width = 1206;
},
{
anchors = (
{
name = bottom;
position = "{724, 0}";
},
{
name = top;
position = "{262, 1540}";
}
);
components = (
{
name = _part.bowl;
transform = "{1, 0, 0, 1, -24, 0}";
}
);
layerId = "2D8F7115-C311-411E-929D-56333CF7FFB2";
paths = (
{
closed = 1;
nodes = (
"446 96 LINE",
"500 96 LINE",
"422 212 LINE",
"422 868 LINE",
"472 998 LINE",
"446 998 LINE",
"446 1540 LINE",
"90 1540 LINE",
"90 -420 LINE",
"446 -420 LINE"
);
}
);
width = 1248;
},
{
anchors = (
{
name = bottom;
position = "{662, 0}";
},
{
name = top;
position = "{224, 1516}";
}
);
components = (
{
alignment = -1;
name = _part.bowl;
transform = "{1, 0, 0, 1, -10, 0}";
}
);
layerId = "FD1CEFBD-BAB1-4C2A-A598-30E93F9A29F6";
paths = (
{
closed = 1;
nodes = (
"310 144 LINE",
"338 144 LINE",
"280 266 LINE",
"280 782 LINE",
"334 922 LINE",
"310 922 LINE",
"310 1540 LINE",
"138 1540 LINE",
"138 -420 LINE",
"310 -420 LINE"
);
}
);
width = 1208;
}
);
leftKerningGroup = LAT_L_LC;
leftMetricsKey = h;
rightKerningGroup = LAT_O_LC;
rightMetricsKey = p;
unicode = 00FE;
},
{
color = 4;
glyphname = thorn.ss01;
lastChange = "2021-01-26 09:48:34 +0000";
layers = (
{
anchors = (
{
name = bottom;
position = "{666, 0}";
},
{
name = top;
position = "{202, 1540}";
}
);
components = (
{
name = _part.bowl.ss01;
transform = "{1, 0, 0, 1, -4, 0}";
}
);
layerId = "AB099EFE-E788-4EFC-8633-CF147CB782A6";
paths = (
{
closed = 1;
nodes = (
"232 244 LINE",
"244 244 LINE",
"228 330 LINE",
"228 770 LINE",
"244 810 LINE",
"232 810 LINE",
"232 1540 LINE",
"172 1540 LINE",
"172 -420 LINE",
"232 -420 LINE"
);
}
);
width = 1276;
},
{
anchors = (
{
name = bottom;
position = "{766, 0}";
},
{
name = top;
position = "{258, 1540}";
}
);
components = (
{
name = _part.bowl.ss01;
transform = "{1, 0, 0, 1, -28, 0}";
}
);
layerId = "2D8F7115-C311-411E-929D-56333CF7FFB2";
paths = (
{
closed = 1;
nodes = (
"446 110 LINE",
"500 110 LINE",
"430 212 LINE",
"430 840 LINE",
"472 958 LINE",
"426 958 LINE",
"426 1540 LINE",
"90 1540 LINE",
"90 -420 LINE",
"446 -420 LINE"
);
}
);
width = 1282;
},
{
anchors = (
{
name = bottom;
position = "{694, 0}";
},
{
name = top;
position = "{224, 1516}";
}
);
components = (
{
alignment = -1;
name = _part.bowl.ss01;
transform = "{1, 0, 0, 1, -14, 0}";
}
);
layerId = "FD1CEFBD-BAB1-4C2A-A598-30E93F9A29F6";
paths = (
{
closed = 1;
nodes = (
"310 144 LINE",
"338 144 LINE",
"288 226 LINE",
"288 824 LINE",
"334 914 LINE",
"310 914 LINE",
"310 1540 LINE",
"138 1540 LINE",
"138 -420 LINE",
"310 -420 LINE"
);
}
);
width = 1270;
}
);
leftKerningGroup = LAT_L_LC;
leftMetricsKey = h;
rightKerningGroup = LAT_O_LC;
rightMetricsKey = p;
},
{
glyphname = q;
lastChange = "2021-01-26 09:48:34 +0000";
layers = (
{
anchors = (
{
name = bottom;
position = "{1002, -420}";
},
{
name = top;
position = "{572, 1048}";
}
);
components = (
{
name = _part.bowl;
transform = "{-1, 0, 0, 1, 1206, 0}";
}
);
layerId = "AB099EFE-E788-4EFC-8633-CF147CB782A6";
paths = (
{
closed = 1;
nodes = (
"1124 -382 LINE",
"1062 -350 OFFCURVE",
"1030 -284 OFFCURVE",
"1030 -190 CURVE SMOOTH",
"1030 1048 LINE",
"970 1048 LINE",
"970 834 LINE",
"946 834 LINE",
"978 782 LINE",
"978 296 LINE",
"954 224 LINE",
"970 224 LINE",
"970 -196 LINE SMOOTH",
"970 -324 OFFCURVE",
"1006 -386 OFFCURVE",
"1100 -438 CURVE"
);
}
);
width = 1210;
},
{
anchors = (
{
name = bottom;
position = "{976, -420}";
},
{
name = top;
position = "{534, 1080}";
}
);
components = (
{
name = _part.bowl;
transform = "{-1, 0, 0, 1, 1272, 0}";
}
);
layerId = "2D8F7115-C311-411E-929D-56333CF7FFB2";
paths = (
{
closed = 1;
nodes = (
"1240 -148 LINE",
"1178 -128 OFFCURVE",
"1154 -104 OFFCURVE",
"1154 -28 CURVE SMOOTH",
"1154 1080 LINE",
"818 1080 LINE",
"818 984 LINE",
"784 984 LINE",
"818 856 LINE",
"818 172 LINE",
"748 92 LINE",
"796 92 LINE",
"796 -62 LINE SMOOTH",
"796 -242 OFFCURVE",
"906 -360 OFFCURVE",
"1116 -438 CURVE"
);
}
);
width = 1256;
},
{
anchors = (
{
name = bottom;
position = "{1002, -420}";
},
{
name = top;
position = "{560, 1060}";
}
);
components = (
{
alignment = -1;
name = _part.bowl;
transform = "{-1, 0, 0, 1, 1218, 0}";
}
);
layerId = "FD1CEFBD-BAB1-4C2A-A598-30E93F9A29F6";
paths = (
{
closed = 1;
nodes = (
"1158 -286 LINE",
"1084 -254 OFFCURVE",
"1076 -222 OFFCURVE",
"1076 -98 CURVE SMOOTH",
"1076 1060 LINE",
"904 1060 LINE",
"904 918 LINE",
"862 918 LINE",
"924 816 LINE",
"924 234 LINE",
"874 144 LINE",
"904 144 LINE",
"904 -152 LINE SMOOTH",
"904 -296 OFFCURVE",
"962 -382 OFFCURVE",
"1096 -438 CURVE"
);
}
);
width = 1220;
}
);
leftKerningGroup = LAT_O_LC;
leftMetricsKey = o;
rightKerningGroup = LAT_Q_LC;
unicode = 0071;
},
{
glyphname = r;
lastChange = "2021-01-26 09:48:34 +0000";
layers = (
{
anchors = (
{
name = bottom;
position = "{202, 0}";
},
{
name = top;
position = "{386, 1048}";
}
);
guideLines = (
{
angle = 67.5;
position = "{-2, -200}";
}
);
layerId = "AB099EFE-E788-4EFC-8633-CF147CB782A6";
paths = (
{
closed = 1;
nodes = (
"232 0 LINE",
"232 644 LINE SMOOTH",
"232 856 OFFCURVE",
"436 1008 OFFCURVE",
"576 1008 CURVE SMOOTH",
"600 1008 OFFCURVE",
"616 1004 OFFCURVE",
"642 996 CURVE",
"666 1052 LINE",
"642 1062 OFFCURVE",
"610 1064 OFFCURVE",
"584 1064 CURVE SMOOTH",
"442 1064 OFFCURVE",
"294 964 OFFCURVE",
"216 812 CURVE",
"256 852 LINE",
"232 852 LINE",
"232 1048 LINE",
"172 1048 LINE",
"172 0 LINE"
);
}
);
width = 698;
},
{
anchors = (
{
name = bottom;
position = "{270, 0}";
},
{
name = top;
position = "{434, 1080}";
}
);
guideLines = (
{
angle = 67.5;
position = "{104, -200}";
}
);
layerId = "2D8F7115-C311-411E-929D-56333CF7FFB2";
paths = (
{
closed = 1;
nodes = (
"446 0 LINE",
"446 538 LINE SMOOTH",
"446 690 OFFCURVE",
"558 752 OFFCURVE",
"652 752 CURVE SMOOTH",
"696 752 OFFCURVE",
"734 740 OFFCURVE",
"750 732 CURVE",
"892 1072 LINE",
"872 1084 OFFCURVE",
"824 1096 OFFCURVE",
"766 1096 CURVE SMOOTH",
"558 1096 OFFCURVE",
"434 944 OFFCURVE",
"390 854 CURVE",
"466 932 LINE",
"434 932 LINE",
"434 1080 LINE",
"90 1080 LINE",
"90 0 LINE"
);
}
);
width = 868;
},
{
anchors = (
{
name = bottom;
position = "{224, 0}";
},
{
name = top;
position = "{400, 1060}";
}
);
layerId = "FD1CEFBD-BAB1-4C2A-A598-30E93F9A29F6";
paths = (
{
closed = 1;
nodes = (
"310 0 LINE",
"310 606 LINE SMOOTH",
"310 796 OFFCURVE",
"478 904 OFFCURVE",
"600 904 CURVE SMOOTH",
"634 904 OFFCURVE",
"666 900 OFFCURVE",
"674 896 CURVE",
"744 1062 LINE",
"728 1068 OFFCURVE",
"682 1076 OFFCURVE",
"636 1076 CURVE SMOOTH",
"458 1076 OFFCURVE",
"338 964 OFFCURVE",
"280 832 CURVE",
"338 898 LINE",
"310 898 LINE",
"310 1060 LINE",
"138 1060 LINE",
"138 0 LINE"
);
}
);
width = 750;
}
);
leftKerningGroup = LAT_N_LC;
leftMetricsKey = n;
rightKerningGroup = LAT_R_LC;
unicode = 0072;
},
{
glyphname = s;
lastChange = "2021-01-27 10:18:26 +0000";
layers = (
{
anchors = (
{
name = bottom;
position = "{444, 0}";
},
{
name = cedilla;
position = "{452, 0}";
},
{
name = top;
position = "{440, 1048}";
}
);
layerId = "AB099EFE-E788-4EFC-8633-CF147CB782A6";
paths = (
{
closed = 1;
nodes = (
"628 -16 OFFCURVE",
"770 96 OFFCURVE",
"770 272 CURVE SMOOTH",
"770 478 OFFCURVE",
"578 536 OFFCURVE",
"446 578 CURVE SMOOTH",
"352 608 OFFCURVE",
"210 662 OFFCURVE",
"206 804 CURVE SMOOTH",
"202 916 OFFCURVE",
"290 1008 OFFCURVE",
"428 1008 CURVE SMOOTH",
"542 1008 OFFCURVE",
"638 944 OFFCURVE",
"678 862 CURVE",
"734 884 LINE",
"684 988 OFFCURVE",
"572 1064 OFFCURVE",
"432 1064 CURVE SMOOTH",
"268 1064 OFFCURVE",
"146 960 OFFCURVE",
"146 814 CURVE SMOOTH",
"146 638 OFFCURVE",
"326 554 OFFCURVE",
"438 522 CURVE SMOOTH",
"528 496 OFFCURVE",
"710 442 OFFCURVE",
"710 272 CURVE SMOOTH",
"710 138 OFFCURVE",
"598 40 OFFCURVE",
"456 40 CURVE SMOOTH",
"322 40 OFFCURVE",
"218 130 OFFCURVE",
"176 232 CURVE",
"116 208 LINE",
"162 94 OFFCURVE",
"286 -16 OFFCURVE",
"456 -16 CURVE SMOOTH"
);
}
);
width = 890;
},
{
anchors = (
{
name = bottom;
position = "{446, 0}";
},
{
name = cedilla;
position = "{454, 0}";
},
{
name = top;
position = "{430, 1056}";
}
);
associatedMasterId = "AB099EFE-E788-4EFC-8633-CF147CB782A6";
guideLines = (
{
angle = 22.5;
position = "{80, 296}";
}
);
layerId = "3776DB26-7760-492E-8786-63C554B21AA1";
name = "{68}";
paths = (
{
closed = 1;
nodes = (
"635 -16 OFFCURVE",
"799 111 OFFCURVE",
"798 286 CURVE SMOOTH",
"799 492 OFFCURVE",
"590 561 OFFCURVE",
"484 594 CURVE SMOOTH",
"393 623 OFFCURVE",
"254 672 OFFCURVE",
"254 798 CURVE SMOOTH",
"254 889 OFFCURVE",
"340 948 OFFCURVE",
"438 948 CURVE SMOOTH",
"524 948 OFFCURVE",
"606 893 OFFCURVE",
"644 802 CURVE",
"762 852 LINE",
"713 975 OFFCURVE",
"582 1071 OFFCURVE",
"430 1072 CURVE SMOOTH",
"270 1071 OFFCURVE",
"127 958 OFFCURVE",
"126 798 CURVE SMOOTH",
"127 623 OFFCURVE",
"287 537 OFFCURVE",
"406 500 CURVE SMOOTH",
"520 463 OFFCURVE",
"672 414 OFFCURVE",
"672 290 CURVE SMOOTH",
"672 172 OFFCURVE",
"557 106 OFFCURVE",
"458 106 CURVE SMOOTH",
"340 106 OFFCURVE",
"250 197 OFFCURVE",
"222 278 CURVE",
"98 226 LINE",
"139 106 OFFCURVE",
"274 -16 OFFCURVE",
"454 -16 CURVE SMOOTH"
);
}
);
width = 898;
},
{
anchors = (
{
name = bottom;
position = "{462, 0}";
},
{
name = cedilla;
position = "{480, 0}";
},
{
name = top;
position = "{450, 1072}";
}
);
associatedMasterId = "AB099EFE-E788-4EFC-8633-CF147CB782A6";
guideLines = (
{
angle = 22.5;
position = "{72, 296}";
}
);
layerId = "2D4EE669-74DB-46FA-B066-FDF35B907363";
name = "{140}";
paths = (
{
closed = 1;
nodes = (
"684 -16 OFFCURVE",
"862 122 OFFCURVE",
"864 316 CURVE SMOOTH",
"864 522 OFFCURVE",
"662 592 OFFCURVE",
"550 628 CURVE SMOOTH",
"410 674 OFFCURVE",
"336 698 OFFCURVE",
"336 770 CURVE SMOOTH",
"336 834 OFFCURVE",
"392 870 OFFCURVE",
"458 870 CURVE SMOOTH",
"542 870 OFFCURVE",
"592 812 OFFCURVE",
"614 772 CURVE",
"836 866 LINE",
"776 994 OFFCURVE",
"626 1088 OFFCURVE",
"450 1088 CURVE SMOOTH",
"244 1088 OFFCURVE",
"84 962 OFFCURVE",
"82 776 CURVE SMOOTH",
"80 594 OFFCURVE",
"234 508 OFFCURVE",
"376 462 CURVE SMOOTH",
"462 434 OFFCURVE",
"614 402 OFFCURVE",
"614 314 CURVE SMOOTH",
"614 256 OFFCURVE",
"550 204 OFFCURVE",
"472 204 CURVE SMOOTH",
"384 204 OFFCURVE",
"310 274 OFFCURVE",
"278 348 CURVE",
"50 246 LINE",
"112 92 OFFCURVE",
"284 -16 OFFCURVE",
"472 -16 CURVE SMOOTH"
);
}
);
width = 922;
},
{
anchors = (
{
name = bottom;
position = "{466, 0}";
},
{
name = cedilla;
position = "{484, 0}";
},
{
name = top;
position = "{454, 1076}";
}
);
associatedMasterId = "AB099EFE-E788-4EFC-8633-CF147CB782A6";
guideLines = (
{
angle = 22.5;
position = "{142, 176}";
}
);
layerId = "E7831FF5-668F-4C95-A689-CAE55089C41D";
name = "{160}";
paths = (
{
closed = 1;
nodes = (
"696 -16 OFFCURVE",
"880 120 OFFCURVE",
"880 324 CURVE SMOOTH",
"880 552 OFFCURVE",
"654 612 OFFCURVE",
"574 634 CURVE SMOOTH",
"474 662 OFFCURVE",
"356 688 OFFCURVE",
"356 764 CURVE SMOOTH",
"356 810 OFFCURVE",
"402 848 OFFCURVE",
"466 848 CURVE SMOOTH",
"552 848 OFFCURVE",
"602 780 OFFCURVE",
"618 754 CURVE",
"860 856 LINE",
"806 988 OFFCURVE",
"646 1092 OFFCURVE",
"454 1092 CURVE SMOOTH",
"234 1092 OFFCURVE",
"70 958 OFFCURVE",
"70 764 CURVE SMOOTH",
"70 592 OFFCURVE",
"198 494 OFFCURVE",
"360 448 CURVE SMOOTH",
"440 426 OFFCURVE",
"598 394 OFFCURVE",
"598 318 CURVE SMOOTH",
"598 278 OFFCURVE",
"558 232 OFFCURVE",
"480 232 CURVE SMOOTH",
"390 232 OFFCURVE",
"318 296 OFFCURVE",
"286 358 CURVE",
"32 252 LINE",
"100 94 OFFCURVE",
"280 -16 OFFCURVE",
"476 -16 CURVE SMOOTH"
);
}
);
width = 922;
},
{
anchors = (
{
name = bottom;
position = "{462, 0}";
},
{
name = cedilla;
position = "{480, 0}";
},
{
name = top;
position = "{462, 1080}";
}
);
layerId = "2D8F7115-C311-411E-929D-56333CF7FFB2";
paths = (
{
closed = 1;
nodes = (
"700 -16 OFFCURVE",
"888 126 OFFCURVE",
"888 334 CURVE SMOOTH",
"888 556 OFFCURVE",
"672 624 OFFCURVE",
"574 648 CURVE SMOOTH",
"496 668 OFFCURVE",
"368 692 OFFCURVE",
"368 758 CURVE SMOOTH",
"368 794 OFFCURVE",
"408 828 OFFCURVE",
"464 828 CURVE SMOOTH",
"528 828 OFFCURVE",
"574 786 OFFCURVE",
"602 742 CURVE",
"868 860 LINE",
"804 1012 OFFCURVE",
"636 1096 OFFCURVE",
"452 1096 CURVE SMOOTH",
"218 1096 OFFCURVE",
"58 958 OFFCURVE",
"58 764 CURVE SMOOTH",
"58 582 OFFCURVE",
"196 486 OFFCURVE",
"356 438 CURVE SMOOTH",
"452 410 OFFCURVE",
"578 390 OFFCURVE",
"578 324 CURVE SMOOTH",
"578 288 OFFCURVE",
"538 254 OFFCURVE",
"476 254 CURVE SMOOTH",
"382 254 OFFCURVE",
"320 324 OFFCURVE",
"286 376 CURVE",
"16 258 LINE",
"94 78 OFFCURVE",
"284 -16 OFFCURVE",
"472 -16 CURVE SMOOTH"
);
}
);
width = 914;
},
{
anchors = (
{
name = bottom;
position = "{436, 0}";
},
{
name = cedilla;
position = "{448, 0}";
},
{
name = top;
position = "{432, 1060}";
}
);
layerId = "FD1CEFBD-BAB1-4C2A-A598-30E93F9A29F6";
paths = (
{
closed = 1;
nodes = (
"634 -16 OFFCURVE",
"802 116 OFFCURVE",
"800 300 CURVE SMOOTH",
"802 504 OFFCURVE",
"592 574 OFFCURVE",
"482 610 CURVE SMOOTH",
"392 640 OFFCURVE",
"268 676 OFFCURVE",
"268 786 CURVE SMOOTH",
"268 872 OFFCURVE",
"346 920 OFFCURVE",
"432 920 CURVE SMOOTH",
"526 920 OFFCURVE",
"580 860 OFFCURVE",
"612 798 CURVE",
"768 864 LINE",
"720 972 OFFCURVE",
"604 1076 OFFCURVE",
"432 1076 CURVE SMOOTH",
"260 1076 OFFCURVE",
"100 972 OFFCURVE",
"100 786 CURVE SMOOTH",
"100 598 OFFCURVE",
"264 528 OFFCURVE",
"384 488 CURVE SMOOTH",
"478 456 OFFCURVE",
"634 414 OFFCURVE",
"632 294 CURVE SMOOTH",
"634 202 OFFCURVE",
"540 144 OFFCURVE",
"444 144 CURVE SMOOTH",
"342 144 OFFCURVE",
"256 214 OFFCURVE",
"228 294 CURVE",
"72 230 LINE",
"114 106 OFFCURVE",
"256 -16 OFFCURVE",
"444 -16 CURVE SMOOTH"
);
}
);
width = 888;
}
);
leftKerningGroup = LAT_S_LC;
rightKerningGroup = LAT_S_LC;
unicode = 0073;
userData = {
com.typemytype.robofont.layerData = {
background = {
anchors = (
);
components = (
);
contours = (
{
points = (
{
segmentType = curve;
smooth = 1;
x = 213;
y = -12;
},
{
smooth = 0;
x = 318;
y = -12;
},
{
smooth = 0;
x = 376;
y = 50;
},
{
segmentType = curve;
smooth = 1;
x = 376;
y = 120;
},
{
smooth = 0;
x = 376;
y = 214;
},
{
smooth = 0;
x = 288;
y = 237;
},
{
segmentType = curve;
smooth = 1;
x = 208;
y = 266;
},
{
smooth = 0;
x = 147;
y = 288;
},
{
smooth = 0;
x = 85;
y = 310;
},
{
segmentType = curve;
smooth = 1;
x = 85;
y = 368;
},
{
smooth = 0;
x = 85;
y = 415;
},
{
smooth = 0;
x = 124;
y = 462;
},
{
segmentType = curve;
smooth = 1;
x = 208;
y = 462;
},
{
smooth = 0;
x = 253;
y = 462;
},
{
smooth = 0;
x = 284;
y = 448;
},
{
segmentType = curve;
smooth = 1;
x = 314;
y = 429;
},
{
smooth = 0;
x = 325;
y = 422;
},
{
smooth = 0;
x = 336;
y = 423;
},
{
segmentType = curve;
smooth = 1;
x = 343;
y = 434;
},
{
segmentType = line;
smooth = 1;
x = 346;
y = 439;
},
{
smooth = 0;
x = 347;
y = 441;
},
{
smooth = 0;
x = 347;
y = 443;
},
{
segmentType = curve;
smooth = 1;
x = 345;
y = 444;
},
{
smooth = 0;
x = 311;
y = 468;
},
{
smooth = 0;
x = 257;
y = 490;
},
{
segmentType = curve;
smooth = 1;
x = 211;
y = 490;
},
{
smooth = 0;
x = 108;
y = 490;
},
{
smooth = 0;
x = 54;
y = 432;
},
{
segmentType = curve;
smooth = 1;
x = 54;
y = 366;
},
{
smooth = 0;
x = 54;
y = 284;
},
{
smooth = 0;
x = 141;
y = 256;
},
{
segmentType = curve;
smooth = 1;
x = 218;
y = 230;
},
{
smooth = 0;
x = 277;
y = 210;
},
{
smooth = 0;
x = 344;
y = 182;
},
{
segmentType = curve;
smooth = 1;
x = 344;
y = 118;
},
{
smooth = 0;
x = 344;
y = 64;
},
{
smooth = 0;
x = 300;
y = 16;
},
{
segmentType = curve;
smooth = 1;
x = 215;
y = 16;
},
{
smooth = 0;
x = 148;
y = 16;
},
{
smooth = 0;
x = 105;
y = 37;
},
{
segmentType = curve;
smooth = 1;
x = 66;
y = 65;
},
{
smooth = 0;
x = 55;
y = 73;
},
{
smooth = 0;
x = 45;
y = 74;
},
{
segmentType = curve;
smooth = 1;
x = 37;
y = 63;
},
{
segmentType = line;
smooth = 1;
x = 33;
y = 57;
},
{
smooth = 0;
x = 32;
y = 55;
},
{
smooth = 0;
x = 32;
y = 53;
},
{
segmentType = curve;
smooth = 1;
x = 34;
y = 51;
},
{
smooth = 0;
x = 73;
y = 12;
},
{
smooth = 0;
x = 139;
y = -12;
}
);
}
);
lib = {
};
name = s;
unicodes = (
);
width = 439;
};
};
};
},
{
glyphname = germandbls;
lastChange = "2021-01-26 09:48:41 +0000";
layers = (
{
layerId = "AB099EFE-E788-4EFC-8633-CF147CB782A6";
paths = (
{
closed = 1;
nodes = (
"850 -16 OFFCURVE",
"1022 196 OFFCURVE",
"1022 418 CURVE SMOOTH",
"1022 672 OFFCURVE",
"818 864 OFFCURVE",
"542 852 CURVE",
"542 824 LINE",
"752 812 OFFCURVE",
"912 970 OFFCURVE",
"912 1188 CURVE SMOOTH",
"912 1410 OFFCURVE",
"752 1556 OFFCURVE",
"538 1556 CURVE SMOOTH",
"320 1556 OFFCURVE",
"172 1398 OFFCURVE",
"172 1178 CURVE SMOOTH",
"172 0 LINE",
"232 0 LINE",
"232 1190 LINE SMOOTH",
"232 1366 OFFCURVE",
"370 1500 OFFCURVE",
"542 1500 CURVE SMOOTH",
"722 1500 OFFCURVE",
"852 1364 OFFCURVE",
"852 1184 CURVE SMOOTH",
"852 1004 OFFCURVE",
"716 870 OFFCURVE",
"530 870 CURVE SMOOTH",
"460 870 LINE",
"460 814 LINE",
"490 814 LINE SMOOTH",
"758 814 OFFCURVE",
"962 654 OFFCURVE",
"962 418 CURVE SMOOTH",
"962 220 OFFCURVE",
"812 40 OFFCURVE",
"584 40 CURVE SMOOTH",
"512 40 OFFCURVE",
"444 56 OFFCURVE",
"404 68 CURVE",
"404 8 LINE",
"454 -8 OFFCURVE",
"540 -16 OFFCURVE",
"592 -16 CURVE SMOOTH"
);
}
);
width = 1156;
},
{
layerId = "2D8F7115-C311-411E-929D-56333CF7FFB2";
paths = (
{
closed = 1;
nodes = (
"1062 -16 OFFCURVE",
"1266 144 OFFCURVE",
"1266 402 CURVE SMOOTH",
"1266 652 OFFCURVE",
"1070 804 OFFCURVE",
"774 802 CURVE",
"774 746 LINE",
"934 746 OFFCURVE",
"1140 882 OFFCURVE",
"1138 1126 CURVE SMOOTH",
"1140 1356 OFFCURVE",
"954 1556 OFFCURVE",
"626 1556 CURVE SMOOTH",
"312 1556 OFFCURVE",
"90 1372 OFFCURVE",
"90 1056 CURVE SMOOTH",
"90 0 LINE",
"446 0 LINE",
"446 1040 LINE SMOOTH",
"446 1172 OFFCURVE",
"532 1262 OFFCURVE",
"648 1262 CURVE SMOOTH",
"746 1262 OFFCURVE",
"828 1196 OFFCURVE",
"828 1090 CURVE SMOOTH",
"828 996 OFFCURVE",
"750 926 OFFCURVE",
"644 926 CURVE SMOOTH",
"586 926 LINE",
"586 610 LINE",
"684 610 LINE SMOOTH",
"824 610 OFFCURVE",
"914 546 OFFCURVE",
"914 434 CURVE SMOOTH",
"914 338 OFFCURVE",
"844 278 OFFCURVE",
"730 278 CURVE SMOOTH",
"694 278 OFFCURVE",
"622 284 OFFCURVE",
"578 294 CURVE",
"578 -12 LINE",
"632 -16 OFFCURVE",
"710 -16 OFFCURVE",
"738 -16 CURVE SMOOTH"
);
}
);
width = 1310;
},
{
layerId = "FD1CEFBD-BAB1-4C2A-A598-30E93F9A29F6";
paths = (
{
closed = 1;
nodes = (
"908 -16 OFFCURVE",
"1112 176 OFFCURVE",
"1112 422 CURVE SMOOTH",
"1112 676 OFFCURVE",
"892 848 OFFCURVE",
"646 836 CURVE",
"646 786 LINE",
"842 778 OFFCURVE",
"1002 946 OFFCURVE",
"1002 1168 CURVE SMOOTH",
"1002 1398 OFFCURVE",
"830 1556 OFFCURVE",
"568 1556 CURVE SMOOTH",
"306 1556 OFFCURVE",
"138 1390 OFFCURVE",
"138 1114 CURVE SMOOTH",
"138 0 LINE",
"310 0 LINE",
"310 1098 LINE SMOOTH",
"310 1262 OFFCURVE",
"400 1398 OFFCURVE",
"572 1396 CURVE SMOOTH",
"720 1398 OFFCURVE",
"830 1304 OFFCURVE",
"830 1150 CURVE SMOOTH",
"830 996 OFFCURVE",
"712 886 OFFCURVE",
"576 884 CURVE SMOOTH",
"510 884 LINE",
"510 730 LINE",
"560 730 LINE SMOOTH",
"802 730 OFFCURVE",
"932 594 OFFCURVE",
"936 426 CURVE SMOOTH",
"940 250 OFFCURVE",
"810 144 OFFCURVE",
"604 144 CURVE SMOOTH",
"568 144 OFFCURVE",
"510 148 OFFCURVE",
"464 156 CURVE",
"464 -4 LINE",
"510 -12 OFFCURVE",
"564 -16 OFFCURVE",
"608 -16 CURVE SMOOTH"
);
}
);
width = 1220;
}
);
leftKerningGroup = LAT_L_LC;
leftMetricsKey = h;
rightKerningGroup = LAT_GERMANDBLS_LC;
rightMetricsKey = B;
unicode = 00DF;
},
{
glyphname = t;
lastChange = "2021-01-26 11:11:19 +0000";
layers = (
{
anchors = (
{
name = bottom;
position = "{464, 0}";
},
{
name = cedilla;
position = "{486, 0}";
},
{
name = center;
position = "{298, 524}";
},
{
name = top;
position = "{298, 1414}";
},
{
name = topright;
position = "{358, 1582}";
}
);
guideLines = (
{
angle = 112.5;
position = "{294, -12}";
}
);
layerId = "AB099EFE-E788-4EFC-8633-CF147CB782A6";
paths = (
{
closed = 1;
nodes = (
"554 -12 OFFCURVE",
"592 -8 OFFCURVE",
"628 8 CURVE",
"604 60 LINE",
"576 48 OFFCURVE",
"542 44 OFFCURVE",
"514 44 CURVE SMOOTH",
"384 44 OFFCURVE",
"326 136 OFFCURVE",
"326 274 CURVE SMOOTH",
"326 1414 LINE",
"266 1414 LINE",
"266 286 LINE SMOOTH",
"266 98 OFFCURVE",
"344 -12 OFFCURVE",
"518 -12 CURVE SMOOTH"
);
},
{
closed = 1;
nodes = (
"612 992 LINE",
"612 1048 LINE",
"98 1048 LINE",
"98 992 LINE"
);
}
);
width = 728;
},
{
anchors = (
{
name = bottom;
position = "{516, 0}";
},
{
name = cedilla;
position = "{540, 0}";
},
{
name = center;
position = "{352, 540}";
},
{
name = top;
position = "{348, 1392}";
},
{
name = topright;
position = "{512, 1684}";
}
);
associatedMasterId = "AB099EFE-E788-4EFC-8633-CF147CB782A6";
guideLines = (
{
angle = 112.5;
position = "{344, 8}";
}
);
layerId = "EABF1B0F-8E52-47E5-9328-BC578E3E2863";
name = "{140}";
paths = (
{
closed = 1;
nodes = (
"643 -16 OFFCURVE",
"713 -4 OFFCURVE",
"774 28 CURVE",
"684 246 LINE",
"659 233 OFFCURVE",
"631 225 OFFCURVE",
"602 226 CURVE SMOOTH",
"537 225 OFFCURVE",
"484 262 OFFCURVE",
"484 360 CURVE SMOOTH",
"484 1392 LINE",
"208 1392 LINE",
"208 344 LINE SMOOTH",
"208 131 OFFCURVE",
"332 -16 OFFCURVE",
"574 -16 CURVE SMOOTH"
);
},
{
closed = 1;
nodes = (
"734 850 LINE",
"734 1072 LINE",
"32 1072 LINE",
"32 850 LINE"
);
}
);
width = 798;
},
{
anchors = (
{
name = bottom;
position = "{536, 0}";
},
{
name = cedilla;
position = "{562, 0}";
},
{
name = center;
position = "{376, 540}";
},
{
name = top;
position = "{372, 1380}";
},
{
name = topright;
position = "{548, 1732}";
}
);
guideLines = (
{
angle = 149.6568;
position = "{398, -12}";
}
);
layerId = "2D8F7115-C311-411E-929D-56333CF7FFB2";
paths = (
{
closed = 1;
nodes = (
"696 -16 OFFCURVE",
"796 0 OFFCURVE",
"860 28 CURVE",
"746 308 LINE",
"722 296 OFFCURVE",
"692 288 OFFCURVE",
"660 286 CURVE SMOOTH",
"594 288 OFFCURVE",
"548 324 OFFCURVE",
"548 410 CURVE SMOOTH",
"548 1380 LINE",
"192 1380 LINE",
"192 410 LINE SMOOTH",
"192 160 OFFCURVE",
"324 -16 OFFCURVE",
"610 -16 CURVE SMOOTH"
);
},
{
closed = 1;
nodes = (
"794 780 LINE",
"794 1080 LINE",
"8 1080 LINE",
"8 780 LINE"
);
}
);
width = 864;
},
{
anchors = (
{
name = bottom;
position = "{494, 0}";
},
{
name = cedilla;
position = "{518, 0}";
},
{
name = center;
position = "{330, 536}";
},
{
name = top;
position = "{326, 1400}";
},
{
name = topright;
position = "{456, 1630}";
}
);
layerId = "FD1CEFBD-BAB1-4C2A-A598-30E93F9A29F6";
paths = (
{
closed = 1;
nodes = (
"608 -16 OFFCURVE",
"658 0 OFFCURVE",
"698 16 CURVE",
"632 168 LINE",
"608 156 OFFCURVE",
"580 144 OFFCURVE",
"546 144 CURVE SMOOTH",
"466 144 OFFCURVE",
"412 202 OFFCURVE",
"412 312 CURVE SMOOTH",
"412 1400 LINE",
"240 1400 LINE",
"240 294 LINE SMOOTH",
"240 112 OFFCURVE",
"342 -16 OFFCURVE",
"542 -16 CURVE SMOOTH"
);
},
{
closed = 1;
nodes = (
"674 904 LINE",
"674 1060 LINE",
"64 1060 LINE",
"64 904 LINE"
);
}
);
width = 754;
}
);
leftKerningGroup = LAT_T_LC;
rightKerningGroup = LAT_T_LC;
unicode = 0074;
},
{
color = 4;
glyphname = t.ss01;
lastChange = "2021-01-26 09:48:34 +0000";
layers = (
{
anchors = (
{
name = bottom;
position = "{350, 0}";
},
{
name = cedilla;
position = "{334, 0}";
},
{
name = center;
position = "{350, 524}";
},
{
name = top;
position = "{350, 1414}";
},
{
name = topright;
position = "{420, 1540}";
}
);
layerId = "AB099EFE-E788-4EFC-8633-CF147CB782A6";
paths = (
{
closed = 1;
nodes = (
"380 0 LINE",
"380 1414 LINE",
"320 1414 LINE",
"320 0 LINE"
);
},
{
closed = 1;
nodes = (
"626 992 LINE",
"626 1048 LINE",
"74 1048 LINE",
"74 992 LINE"
);
}
);
width = 700;
},
{
anchors = (
{
name = bottom;
position = "{414, 0}";
},
{
name = cedilla;
position = "{442, 0}";
},
{
name = center;
position = "{414, 540}";
},
{
name = top;
position = "{414, 1380}";
},
{
name = topright;
position = "{562, 1728}";
}
);
layerId = "2D8F7115-C311-411E-929D-56333CF7FFB2";
paths = (
{
closed = 1;
nodes = (
"592 0 LINE",
"592 1380 LINE",
"236 1380 LINE",
"236 0 LINE"
);
},
{
closed = 1;
nodes = (
"820 780 LINE",
"820 1080 LINE",
"8 1080 LINE",
"8 780 LINE"
);
}
);
width = 828;
},
{
anchors = (
{
name = bottom;
position = "{378, 0}";
},
{
name = cedilla;
position = "{384, 0}";
},
{
name = center;
position = "{384, 532}";
},
{
name = top;
position = "{384, 1400}";
},
{
name = topright;
position = "{482, 1614}";
}
);
layerId = "FD1CEFBD-BAB1-4C2A-A598-30E93F9A29F6";
paths = (
{
closed = 1;
nodes = (
"470 0 LINE",
"470 1400 LINE",
"298 1400 LINE",
"298 0 LINE"
);
},
{
closed = 1;
nodes = (
"710 906 LINE",
"710 1060 LINE",
"58 1060 LINE",
"58 906 LINE"
);
}
);
width = 768;
}
);
leftKerningGroup = LAT_T_LC;
rightKerningGroup = LAT_TSS01_LC;
},
{
glyphname = u;
lastChange = "2021-01-26 10:48:52 +0000";
layers = (
{
anchors = (
{
name = bottom;
position = "{610, 0}";
},
{
name = horn;
position = "{914, 1048}";
},
{
name = ogonek;
position = "{1016, -16}";
},
{
name = top;
position = "{570, 1048}";
}
);
guideLines = (
{
angle = 67.5;
position = "{480, 2}";
}
);
layerId = "AB099EFE-E788-4EFC-8633-CF147CB782A6";
paths = (
{
closed = 1;
nodes = (
"710 -16 OFFCURVE",
"856 100 OFFCURVE",
"906 238 CURVE",
"864 184 LINE",
"914 184 LINE",
"884 226 LINE",
"886 102 OFFCURVE",
"922 34 OFFCURVE",
"1016 -16 CURVE",
"1038 38 LINE",
"964 76 OFFCURVE",
"944 116 OFFCURVE",
"944 232 CURVE SMOOTH",
"944 1048 LINE",
"886 1048 LINE",
"886 390 LINE SMOOTH",
"886 210 OFFCURVE",
"728 38 OFFCURVE",
"514 40 CURVE SMOOTH",
"330 42 OFFCURVE",
"224 180 OFFCURVE",
"224 372 CURVE SMOOTH",
"224 1048 LINE",
"164 1048 LINE",
"164 372 LINE SMOOTH",
"164 136 OFFCURVE",
"304 -16 OFFCURVE",
"516 -16 CURVE SMOOTH"
);
}
);
width = 1144;
},
{
anchors = (
{
name = bottom;
position = "{660, 0}";
},
{
name = horn;
position = "{934, 1080}";
},
{
name = ogonek;
position = "{1056, -16}";
},
{
name = top;
position = "{612, 1080}";
}
);
guideLines = (
{
angle = 67.5;
position = "{488, 0}";
}
);
layerId = "2D8F7115-C311-411E-929D-56333CF7FFB2";
paths = (
{
closed = 1;
nodes = (
"660 -16 OFFCURVE",
"800 78 OFFCURVE",
"898 218 CURVE",
"734 118 LINE",
"868 118 LINE",
"806 200 LINE",
"808 84 OFFCURVE",
"880 24 OFFCURVE",
"1056 -16 CURVE",
"1180 278 LINE",
"1110 302 OFFCURVE",
"1094 326 OFFCURVE",
"1094 398 CURVE SMOOTH",
"1094 1080 LINE",
"738 1080 LINE",
"738 450 LINE SMOOTH",
"738 340 OFFCURVE",
"676 284 OFFCURVE",
"590 282 CURVE SMOOTH",
"508 284 OFFCURVE",
"446 340 OFFCURVE",
"446 450 CURVE SMOOTH",
"446 1080 LINE",
"90 1080 LINE",
"90 398 LINE SMOOTH",
"90 124 OFFCURVE",
"274 -16 OFFCURVE",
"492 -16 CURVE SMOOTH"
);
}
);
width = 1220;
},
{
anchors = (
{
name = bottom;
position = "{584, 0}";
},
{
name = horn;
position = "{908, 1060}";
},
{
name = ogonek;
position = "{1026, -16}";
},
{
name = top;
position = "{572, 1060}";
}
);
layerId = "FD1CEFBD-BAB1-4C2A-A598-30E93F9A29F6";
paths = (
{
closed = 1;
nodes = (
"724 -16 OFFCURVE",
"846 86 OFFCURVE",
"900 200 CURVE",
"810 140 LINE",
"944 140 LINE",
"862 176 LINE",
"862 106 OFFCURVE",
"928 30 OFFCURVE",
"1026 -16 CURVE",
"1092 140 LINE",
"1022 168 OFFCURVE",
"1006 206 OFFCURVE",
"1006 300 CURVE SMOOTH",
"1006 1060 LINE",
"834 1060 LINE",
"834 414 LINE SMOOTH",
"834 266 OFFCURVE",
"724 144 OFFCURVE",
"560 144 CURVE SMOOTH",
"420 148 OFFCURVE",
"306 234 OFFCURVE",
"306 414 CURVE SMOOTH",
"306 1060 LINE",
"134 1060 LINE",
"134 406 LINE SMOOTH",
"134 140 OFFCURVE",
"294 -16 OFFCURVE",
"530 -16 CURVE SMOOTH"
);
}
);
width = 1168;
}
);
leftKerningGroup = LAT_U_LC;
rightKerningGroup = LAT_A_LC;
unicode = 0075;
},
{
glyphname = v;
lastChange = "2021-01-26 09:48:34 +0000";
layers = (
{
anchors = (
{
name = bottom;
position = "{512, 0}";
},
{
name = top;
position = "{512, 1048}";
}
);
layerId = "AB099EFE-E788-4EFC-8633-CF147CB782A6";
paths = (
{
closed = 1;
nodes = (
"480 0 LINE",
"544 0 LINE",
"954 1048 LINE",
"890 1048 LINE",
"632 370 LINE",
"516 80 LINE",
"508 80 LINE",
"392 370 LINE",
"134 1048 LINE",
"70 1048 LINE"
);
}
);
width = 1024;
},
{
anchors = (
{
name = bottom;
position = "{582, 0}";
},
{
name = top;
position = "{582, 1080}";
}
);
layerId = "2D8F7115-C311-411E-929D-56333CF7FFB2";
paths = (
{
closed = 1;
nodes = (
"414 0 LINE",
"750 0 LINE",
"1164 1080 LINE",
"790 1080 LINE",
"656 648 LINE",
"586 368 LINE",
"578 368 LINE",
"508 648 LINE",
"376 1080 LINE",
"0 1080 LINE"
);
}
);
width = 1164;
},
{
anchors = (
{
name = bottom;
position = "{538, 0}";
},
{
name = top;
position = "{538, 1060}";
}
);
layerId = "FD1CEFBD-BAB1-4C2A-A598-30E93F9A29F6";
paths = (
{
closed = 1;
nodes = (
"456 0 LINE",
"620 0 LINE",
"1038 1060 LINE",
"846 1060 LINE",
"632 454 LINE",
"542 204 LINE",
"534 204 LINE",
"444 454 LINE",
"232 1060 LINE",
"38 1060 LINE"
);
}
);
width = 1078;
}
);
leftKerningGroup = LAT_V_LC;
rightKerningGroup = LAT_V_LC;
unicode = 0076;
},
{
glyphname = w;
lastChange = "2021-01-26 09:48:34 +0000";
layers = (
{
anchors = (
{
name = bottom;
position = "{770, 0}";
},
{
name = top;
position = "{770, 1048}";
}
);
layerId = "AB099EFE-E788-4EFC-8633-CF147CB782A6";
paths = (
{
closed = 1;
nodes = (
"474 0 LINE",
"604 388 LINE",
"766 868 LINE",
"774 868 LINE",
"934 388 LINE",
"1064 0 LINE",
"1136 0 LINE",
"1460 1048 LINE",
"1392 1048 LINE",
"1208 424 LINE",
"1102 72 LINE",
"1098 72 LINE",
"986 410 LINE",
"788 984 LINE",
"750 984 LINE",
"552 410 LINE",
"442 72 LINE",
"438 72 LINE",
"330 424 LINE",
"146 1048 LINE",
"78 1048 LINE",
"402 0 LINE"
);
}
);
userData = {
RMXScaler = {
adjustSpace = 8;
height = 72;
weight = 8;
width = 80;
};
};
width = 1538;
},
{
anchors = (
{
name = bottom;
position = "{832, 0}";
},
{
name = top;
position = "{830, 1080}";
}
);
layerId = "2D8F7115-C311-411E-929D-56333CF7FFB2";
paths = (
{
closed = 1;
nodes = (
"626 0 LINE",
"716 188 LINE",
"828 450 LINE",
"836 450 LINE",
"942 188 LINE",
"1032 0 LINE",
"1318 0 LINE",
"1642 1080 LINE",
"1294 1080 LINE",
"1184 598 LINE",
"1146 422 LINE",
"1142 422 LINE",
"1098 516 LINE",
"888 1048 LINE",
"770 1048 LINE",
"562 516 LINE",
"520 422 LINE",
"516 422 LINE",
"476 598 LINE",
"364 1080 LINE",
"16 1080 LINE",
"340 0 LINE"
);
}
);
userData = {
RMXScaler = {
adjustSpace = 20;
height = 73;
weight = -120;
width = 79;
};
};
width = 1658;
},
{
anchors = (
{
name = bottom;
position = "{794, 0}";
},
{
name = top;
position = "{794, 1064}";
}
);
associatedMasterId = "AB099EFE-E788-4EFC-8633-CF147CB782A6";
background = {
paths = (
{
closed = 1;
nodes = (
"344 0 LINE",
"544 0 LINE",
"644 274 LINE",
"790 656 LINE",
"798 656 LINE",
"942 274 LINE",
"1048 0 LINE",
"1246 0 LINE",
"1544 1064 LINE",
"1340 1064 LINE",
"1196 512 LINE",
"1130 250 LINE",
"1122 250 LINE",
"1048 462 LINE",
"832 1020 LINE",
"758 1020 LINE",
"544 462 LINE",
"466 250 LINE",
"462 250 LINE",
"398 512 LINE",
"250 1064 LINE",
"40 1064 LINE"
);
}
);
};
layerId = "7EFEC4AD-EE5C-46F9-94CB-CAA940C60973";
name = "{106}";
paths = (
{
closed = 1;
nodes = (
"536 0 LINE",
"644 266 LINE",
"790 630 LINE",
"798 630 LINE",
"950 266 LINE",
"1056 0 LINE",
"1242 0 LINE",
"1544 1064 LINE",
"1336 1064 LINE",
"1192 512 LINE",
"1130 274 LINE",
"1122 274 LINE",
"1048 472 LINE",
"852 984 LINE",
"738 984 LINE",
"544 472 LINE",
"466 274 LINE",
"462 274 LINE",
"402 512 LINE",
"258 1064 LINE",
"46 1064 LINE",
"348 0 LINE"
);
}
);
userData = {
RMXScaler = {
adjustSpace = 8;
height = 72;
weight = 8;
width = 80;
};
};
width = 1590;
},
{
anchors = (
{
name = bottom;
position = "{788, 0}";
},
{
name = top;
position = "{788, 1060}";
}
);
layerId = "FD1CEFBD-BAB1-4C2A-A598-30E93F9A29F6";
paths = (
{
closed = 1;
nodes = (
"522 0 LINE",
"632 294 LINE",
"784 688 LINE",
"792 688 LINE",
"944 294 LINE",
"1054 0 LINE",
"1214 0 LINE",
"1526 1060 LINE",
"1346 1060 LINE",
"1194 492 LINE",
"1124 226 LINE",
"1116 226 LINE",
"1030 458 LINE",
"838 984 LINE",
"740 984 LINE",
"546 458 LINE",
"460 226 LINE",
"452 226 LINE",
"384 492 LINE",
"232 1060 LINE",
"52 1060 LINE",
"362 0 LINE"
);
}
);
userData = {
RMXScaler = {
adjustSpace = 8;
height = 72;
weight = 8;
width = 80;
};
};
width = 1578;
}
);
leftKerningGroup = LAT_V_LC;
rightKerningGroup = LAT_V_LC;
unicode = 0077;
userData = {
RMXScaler = {
source = W;
};
};
},
{
color = 9;
glyphname = w.ss03;
lastChange = "2021-01-26 10:49:47 +0000";
layers = (
{
anchors = (
{
name = bottom;
position = "{782, 0}";
},
{
name = top;
position = "{782, 1048}";
}
);
layerId = "AB099EFE-E788-4EFC-8633-CF147CB782A6";
paths = (
{
closed = 1;
nodes = (
"478 0 LINE",
"608 406 LINE",
"774 922 LINE",
"786 922 LINE",
"950 406 LINE",
"1082 0 LINE",
"1158 0 LINE",
"1488 1048 LINE",
"1426 1048 LINE",
"1232 424 LINE",
"1122 72 LINE",
"1118 72 LINE",
"1002 424 LINE",
"800 1048 LINE",
"758 1048 LINE",
"558 424 LINE",
"440 72 LINE",
"438 72 LINE",
"326 424 LINE",
"134 1048 LINE",
"70 1048 LINE",
"402 0 LINE"
);
}
);
width = 1558;
},
{
anchors = (
{
name = bottom;
position = "{828, 0}";
},
{
name = top;
position = "{828, 1080}";
}
);
background = {
components = (
{
name = w;
transform = "{1, 0, 0, 1, -14, 0}";
}
);
};
layerId = "2D8F7115-C311-411E-929D-56333CF7FFB2";
paths = (
{
closed = 1;
nodes = (
"652 0 LINE",
"758 308 LINE",
"824 520 LINE",
"832 520 LINE",
"898 308 LINE",
"1004 0 LINE",
"1332 0 LINE",
"1654 1082 LINE",
"1298 1082 LINE",
"1200 626 LINE",
"1146 372 LINE",
"1138 372 LINE",
"1056 634 LINE",
"922 1082 LINE",
"734 1082 LINE",
"598 634 LINE",
"516 372 LINE",
"508 372 LINE",
"454 626 LINE",
"356 1082 LINE",
"0 1082 LINE",
"324 0 LINE"
);
}
);
width = 1654;
},
{
anchors = (
{
name = bottom;
position = "{796, 0}";
},
{
name = top;
position = "{796, 1060}";
}
);
layerId = "FD1CEFBD-BAB1-4C2A-A598-30E93F9A29F6";
paths = (
{
closed = 1;
nodes = (
"538 0 LINE",
"670 390 LINE",
"792 758 LINE",
"800 758 LINE",
"924 390 LINE",
"1054 0 LINE",
"1226 0 LINE",
"1554 1060 LINE",
"1374 1060 LINE",
"1218 516 LINE",
"1136 218 LINE",
"1128 218 LINE",
"1030 516 LINE",
"854 1060 LINE",
"740 1060 LINE",
"564 516 LINE",
"464 218 LINE",
"456 218 LINE",
"374 516 LINE",
"220 1060 LINE",
"38 1060 LINE",
"366 0 LINE"
);
}
);
width = 1594;
}
);
leftKerningGroup = LAT_V_LC;
leftMetricsKey = v;
rightKerningGroup = LAT_V_LC;
rightMetricsKey = v;
},
{
glyphname = x;
lastChange = "2021-01-26 09:48:34 +0000";
layers = (
{
anchors = (
{
name = bottom;
position = "{500, 0}";
},
{
name = top;
position = "{500, 1048}";
}
);
layerId = "AB099EFE-E788-4EFC-8633-CF147CB782A6";
paths = (
{
closed = 1;
nodes = (
"162 0 LINE",
"496 478 LINE",
"508 478 LINE",
"540 520 LINE",
"540 528 LINE",
"914 1048 LINE",
"842 1048 LINE",
"504 568 LINE",
"492 568 LINE",
"460 528 LINE",
"460 520 LINE",
"86 0 LINE"
);
},
{
closed = 1;
nodes = (
"914 0 LINE",
"540 520 LINE",
"540 528 LINE",
"508 568 LINE",
"496 568 LINE",
"158 1048 LINE",
"86 1048 LINE",
"460 528 LINE",
"460 520 LINE",
"492 478 LINE",
"504 478 LINE",
"838 0 LINE"
);
}
);
userData = {
RMXScaler = {
height = 71;
weight = 16;
width = 73.5;
};
};
width = 1000;
},
{
anchors = (
{
name = bottom;
position = "{574, 0}";
},
{
name = top;
position = "{574, 1080}";
}
);
layerId = "2D8F7115-C311-411E-929D-56333CF7FFB2";
paths = (
{
closed = 1;
nodes = (
"372 0 LINE",
"570 316 LINE",
"582 316 LINE",
"790 540 LINE",
"790 544 LINE",
"1146 1080 LINE",
"782 1080 LINE",
"578 742 LINE",
"570 742 LINE",
"356 540 LINE",
"356 536 LINE",
"0 0 LINE"
);
},
{
closed = 1;
nodes = (
"1142 0 LINE",
"790 536 LINE",
"790 540 LINE",
"578 742 LINE",
"570 742 LINE",
"364 1080 LINE",
"4 1080 LINE",
"356 544 LINE",
"356 540 LINE",
"566 316 LINE",
"578 316 LINE",
"774 0 LINE"
);
}
);
userData = {
RMXScaler = {
height = 73.5;
weight = -110;
width = 73;
};
};
width = 1146;
},
{
anchors = (
{
name = bottom;
position = "{522, 0}";
},
{
name = top;
position = "{522, 1060}";
}
);
layerId = "FD1CEFBD-BAB1-4C2A-A598-30E93F9A29F6";
paths = (
{
closed = 1;
nodes = (
"252 0 LINE",
"518 410 LINE",
"530 410 LINE",
"636 528 LINE",
"636 536 LINE",
"994 1060 LINE",
"796 1060 LINE",
"526 644 LINE",
"514 644 LINE",
"408 536 LINE",
"408 528 LINE",
"48 0 LINE"
);
},
{
closed = 1;
nodes = (
"998 0 LINE",
"636 528 LINE",
"636 536 LINE",
"530 644 LINE",
"518 644 LINE",
"248 1060 LINE",
"52 1060 LINE",
"408 536 LINE",
"408 528 LINE",
"514 410 LINE",
"526 410 LINE",
"792 0 LINE"
);
}
);
userData = {
RMXScaler = {
height = 71;
weight = 16;
width = 73.5;
};
};
width = 1044;
}
);
leftKerningGroup = LAT_X_LC;
rightKerningGroup = LAT_X_LC;
unicode = 0078;
userData = {
RMXScaler = {
source = X;
};
};
},
{
glyphname = y;
lastChange = "2021-01-26 11:40:34 +0000";
layers = (
{
anchors = (
{
name = bottom;
position = "{306, -420}";
},
{
name = top;
position = "{550, 1048}";
}
);
guideLines = (
{
angle = 68.6294;
position = "{236, -86}";
},
{
angle = 67.5;
position = "{116, -8}";
}
);
layerId = "AB099EFE-E788-4EFC-8633-CF147CB782A6";
paths = (
{
closed = 1;
nodes = (
"1002 1048 LINE",
"938 1048 LINE",
"672 358 LINE",
"556 64 LINE",
"546 64 LINE",
"424 358 LINE",
"150 1048 LINE",
"86 1048 LINE",
"536 -58 LINE",
"532 4 LINE",
"466 -164 LINE SMOOTH",
"428 -262 OFFCURVE",
"390 -380 OFFCURVE",
"254 -380 CURVE SMOOTH",
"214 -380 OFFCURVE",
"164 -370 OFFCURVE",
"138 -354 CURVE",
"114 -412 LINE",
"144 -424 OFFCURVE",
"198 -436 OFFCURVE",
"248 -436 CURVE SMOOTH",
"414 -436 OFFCURVE",
"464 -322 OFFCURVE",
"522 -174 CURVE SMOOTH"
);
}
);
width = 1072;
},
{
anchors = (
{
name = bottom;
position = "{406, -420}";
},
{
name = top;
position = "{608, 1080}";
}
);
guideLines = (
{
angle = 67.5;
position = "{102, 8}";
}
);
layerId = "2D8F7115-C311-411E-929D-56333CF7FFB2";
paths = (
{
closed = 1;
nodes = (
"1204 1080 LINE",
"832 1080 LINE",
"656 496 LINE",
"614 356 LINE",
"610 356 LINE",
"570 496 LINE",
"380 1080 LINE",
"8 1080 LINE",
"466 -50 LINE",
"496 132 LINE",
"450 -32 LINE SMOOTH",
"437 -78 OFFCURVE",
"410 -142 OFFCURVE",
"316 -142 CURVE SMOOTH",
"284 -142 OFFCURVE",
"246 -134 OFFCURVE",
"218 -120 CURVE",
"98 -400 LINE",
"160 -420 OFFCURVE",
"254 -436 OFFCURVE",
"336 -436 CURVE SMOOTH",
"636 -436 OFFCURVE",
"700 -244 OFFCURVE",
"750 -112 CURVE SMOOTH"
);
}
);
width = 1204;
},
{
anchors = (
{
name = bottom;
position = "{448, -420}";
},
{
name = top;
position = "{580, 1060}";
}
);
layerId = "FD1CEFBD-BAB1-4C2A-A598-30E93F9A29F6";
paths = (
{
closed = 1;
nodes = (
"1068 1060 LINE",
"886 1060 LINE",
"658 414 LINE",
"584 196 LINE",
"576 196 LINE",
"494 414 LINE",
"244 1060 LINE",
"56 1060 LINE",
"518 -50 LINE",
"514 54 LINE",
"460 -106 LINE SMOOTH",
"440 -164 OFFCURVE",
"388 -278 OFFCURVE",
"266 -276 CURVE SMOOTH",
"228 -276 OFFCURVE",
"180 -262 OFFCURVE",
"138 -240 CURVE",
"72 -396 LINE",
"100 -412 OFFCURVE",
"178 -436 OFFCURVE",
"260 -436 CURVE SMOOTH",
"494 -436 OFFCURVE",
"576 -244 OFFCURVE",
"612 -148 CURVE SMOOTH"
);
}
);
width = 1108;
}
);
leftKerningGroup = LAT_Y_LC;
rightKerningGroup = LAT_Y_LC;
rightMetricsKey = v;
unicode = 0079;
},
{
glyphname = z;
lastChange = "2021-01-26 09:48:34 +0000";
layers = (
{
anchors = (
{
name = bottom;
position = "{484, 0}";
},
{
name = center;
position = "{484, 524}";
},
{
name = leghookretroflex;
position = "{824, 0}";
},
{
name = top;
position = "{504, 1048}";
}
);
layerId = "AB099EFE-E788-4EFC-8633-CF147CB782A6";
paths = (
{
closed = 1;
nodes = (
"114 0 LINE",
"850 0 LINE",
"850 56 LINE",
"200 56 LINE",
"200 64 LINE",
"838 1020 LINE",
"838 1048 LINE",
"144 1048 LINE",
"144 992 LINE",
"748 992 LINE",
"748 984 LINE",
"114 36 LINE"
);
}
);
width = 964;
},
{
anchors = (
{
name = bottom;
position = "{508, 0}";
},
{
name = center;
position = "{508, 540}";
},
{
name = leghookretroflex;
position = "{794, 0}";
},
{
name = top;
position = "{524, 1080}";
}
);
layerId = "2D8F7115-C311-411E-929D-56333CF7FFB2";
paths = (
{
closed = 1;
nodes = (
"32 0 LINE",
"974 0 LINE",
"974 304 LINE",
"540 304 LINE",
"540 312 LINE",
"974 1006 LINE",
"974 1080 LINE",
"70 1080 LINE",
"70 776 LINE",
"466 776 LINE",
"466 768 LINE",
"32 70 LINE"
);
}
);
width = 1008;
},
{
anchors = (
{
name = bottom;
position = "{494, 0}";
},
{
name = center;
position = "{494, 536}";
},
{
name = leghookretroflex;
position = "{814, 0}";
},
{
name = top;
position = "{518, 1060}";
}
);
layerId = "FD1CEFBD-BAB1-4C2A-A598-30E93F9A29F6";
paths = (
{
closed = 1;
nodes = (
"88 0 LINE",
"900 0 LINE",
"900 156 LINE",
"360 156 LINE",
"360 164 LINE",
"896 1020 LINE",
"896 1060 LINE",
"112 1060 LINE",
"112 904 LINE",
"624 904 LINE",
"624 896 LINE",
"88 40 LINE"
);
}
);
width = 988;
}
);
leftKerningGroup = LAT_Z_LC;
rightKerningGroup = LAT_Z_LC;
unicode = 007A;
},
